G04 Layer_Color=8388736*
%FSLAX44Y44*%
%MOMM*%
G71*
G01*
G75*
%ADD47C,0.1270*%
%ADD64R,1.2032X1.3032*%
%ADD65R,1.3032X1.2032*%
%ADD66C,1.3532*%
%ADD67R,0.7032X1.1032*%
%ADD68R,1.5032X1.5032*%
%ADD69R,1.7532X1.5032*%
%ADD70R,0.4532X1.6032*%
%ADD71R,1.6032X0.4532*%
%ADD72R,0.8032X1.8032*%
%ADD73R,0.6032X0.6832*%
%ADD74R,1.0032X1.0032*%
%ADD75R,0.5032X0.8632*%
%ADD76R,1.3032X1.5032*%
%ADD77R,1.5532X2.4032*%
%ADD78R,2.1032X2.1032*%
%ADD79R,1.6032X1.8032*%
%ADD80R,1.5532X0.6032*%
%ADD81R,1.0032X1.0032*%
%ADD82R,2.0032X2.3032*%
%ADD83R,1.0032X0.8032*%
%ADD84R,1.9032X2.9032*%
%ADD85R,1.1032X1.5032*%
%ADD86R,1.1032X2.1032*%
%ADD87R,0.9032X1.0032*%
%ADD88R,1.4032X0.4232*%
%ADD89R,0.4232X1.4032*%
%ADD90R,1.0332X0.8332*%
%ADD91R,1.2032X1.6032*%
%ADD92R,0.7032X0.9032*%
%ADD93R,0.6032X1.1032*%
%ADD94R,0.8032X1.0032*%
%ADD95C,2.9032*%
%ADD96C,3.0032*%
%ADD97C,1.8034*%
%ADD98R,1.8034X1.8034*%
%ADD99O,1.8032X1.1032*%
%ADD100C,1.8432*%
%ADD101C,1.4032*%
D47*
X0Y0D02*
Y600000D01*
X1000000D01*
Y0D02*
Y600000D01*
X0Y0D02*
X1000000D01*
D64*
X607060Y155330D02*
D03*
Y172330D02*
D03*
X627380Y155330D02*
D03*
Y172330D02*
D03*
X699770Y43570D02*
D03*
Y60570D02*
D03*
X683260Y442840D02*
D03*
Y425840D02*
D03*
X482600Y387740D02*
D03*
Y404740D02*
D03*
X182880Y70730D02*
D03*
Y53730D02*
D03*
X482600Y425840D02*
D03*
Y442840D02*
D03*
X483870Y219320D02*
D03*
Y202320D02*
D03*
X869950Y444110D02*
D03*
Y427110D02*
D03*
Y540630D02*
D03*
Y523630D02*
D03*
Y561730D02*
D03*
Y578730D02*
D03*
Y156600D02*
D03*
Y173600D02*
D03*
Y61350D02*
D03*
Y78350D02*
D03*
Y40250D02*
D03*
Y23250D02*
D03*
X393700Y535060D02*
D03*
Y552060D02*
D03*
X369570Y535060D02*
D03*
Y552060D02*
D03*
X420370Y535060D02*
D03*
Y552060D02*
D03*
Y490610D02*
D03*
Y507610D02*
D03*
X393700Y490610D02*
D03*
Y507610D02*
D03*
X369570Y507610D02*
D03*
Y490610D02*
D03*
X613410Y442840D02*
D03*
Y425840D02*
D03*
X515620Y345830D02*
D03*
Y362830D02*
D03*
X668020Y155330D02*
D03*
Y172330D02*
D03*
X795020Y188350D02*
D03*
Y205350D02*
D03*
X171450Y287900D02*
D03*
Y270900D02*
D03*
X341630Y267090D02*
D03*
Y284090D02*
D03*
X190500Y423300D02*
D03*
Y440300D02*
D03*
X279400Y423300D02*
D03*
Y440300D02*
D03*
X342900Y340750D02*
D03*
Y357750D02*
D03*
X111760Y328050D02*
D03*
Y345050D02*
D03*
X171450Y328050D02*
D03*
Y345050D02*
D03*
X69850Y70730D02*
D03*
Y53730D02*
D03*
X869950Y465210D02*
D03*
Y482210D02*
D03*
X25400Y433950D02*
D03*
Y416950D02*
D03*
X110490Y552060D02*
D03*
Y535060D02*
D03*
X190500Y552060D02*
D03*
Y535060D02*
D03*
X279400Y552060D02*
D03*
Y535060D02*
D03*
X25400Y535060D02*
D03*
Y552060D02*
D03*
X111760Y287900D02*
D03*
Y270900D02*
D03*
X141605D02*
D03*
Y287900D02*
D03*
X29210Y70730D02*
D03*
Y53730D02*
D03*
X49530Y53730D02*
D03*
Y70730D02*
D03*
X110490Y70730D02*
D03*
Y53730D02*
D03*
X90170Y70730D02*
D03*
Y53730D02*
D03*
X869950Y135500D02*
D03*
Y118500D02*
D03*
X50800Y433950D02*
D03*
Y416950D02*
D03*
X137160Y552060D02*
D03*
Y535060D02*
D03*
X795020Y322970D02*
D03*
Y339970D02*
D03*
X647733Y172330D02*
D03*
Y155330D02*
D03*
X515620Y202320D02*
D03*
Y219320D02*
D03*
Y326000D02*
D03*
Y309000D02*
D03*
X515469Y273440D02*
D03*
Y290440D02*
D03*
X820420Y310760D02*
D03*
Y293760D02*
D03*
Y272660D02*
D03*
Y255660D02*
D03*
X717550Y425840D02*
D03*
Y442840D02*
D03*
X515620Y253610D02*
D03*
Y236610D02*
D03*
X203200Y70730D02*
D03*
Y53730D02*
D03*
X223520Y53730D02*
D03*
Y70730D02*
D03*
X162560Y53730D02*
D03*
Y70730D02*
D03*
X243840Y70730D02*
D03*
Y53730D02*
D03*
X543560Y42300D02*
D03*
Y59300D02*
D03*
X454660Y99450D02*
D03*
Y116450D02*
D03*
X389890Y99450D02*
D03*
Y116450D02*
D03*
Y42300D02*
D03*
Y59300D02*
D03*
X740410Y43570D02*
D03*
Y60570D02*
D03*
X720090Y60570D02*
D03*
Y43570D02*
D03*
D65*
X608720Y135890D02*
D03*
X625720D02*
D03*
X190890Y379730D02*
D03*
X207890D02*
D03*
X279790D02*
D03*
X296790D02*
D03*
X900820Y223520D02*
D03*
X917820D02*
D03*
X900820Y246017D02*
D03*
X917820D02*
D03*
X900820Y268514D02*
D03*
X917820D02*
D03*
X900820Y291011D02*
D03*
X917820D02*
D03*
X900820Y313508D02*
D03*
X917820D02*
D03*
X900820Y336006D02*
D03*
X917820D02*
D03*
X900820Y358503D02*
D03*
X917820D02*
D03*
X900820Y378558D02*
D03*
X917820D02*
D03*
D66*
X679450Y113030D02*
D03*
X820420Y205740D02*
D03*
Y340360D02*
D03*
X744220Y427990D02*
D03*
X85926Y377190D02*
D03*
X323850Y449580D02*
D03*
X368300Y95250D02*
D03*
X556260Y135890D02*
D03*
X137160Y452120D02*
D03*
Y502920D02*
D03*
X132080Y157480D02*
D03*
X704850Y113030D02*
D03*
D67*
X680060Y63570D02*
D03*
X670560D02*
D03*
X661060D02*
D03*
Y40570D02*
D03*
X680060D02*
D03*
D68*
X338580Y498200D02*
D03*
X322580D02*
D03*
X306580D02*
D03*
Y543200D02*
D03*
X322580D02*
D03*
X338580D02*
D03*
D69*
X379350Y437790D02*
D03*
X458850D02*
D03*
X379350Y392790D02*
D03*
X458850D02*
D03*
X973200Y528680D02*
D03*
X893700D02*
D03*
X973200Y573680D02*
D03*
X893700D02*
D03*
X973200Y433430D02*
D03*
X893700D02*
D03*
X973200Y478430D02*
D03*
X893700D02*
D03*
X973200Y123550D02*
D03*
X893700D02*
D03*
X973200Y168550D02*
D03*
X893700D02*
D03*
X973200Y28300D02*
D03*
X893700D02*
D03*
X973200Y73300D02*
D03*
X893700D02*
D03*
D70*
X744458Y406000D02*
D03*
X739458D02*
D03*
X734458D02*
D03*
X729458D02*
D03*
X724458D02*
D03*
X719458D02*
D03*
X714458D02*
D03*
X709458D02*
D03*
X704458D02*
D03*
X699458D02*
D03*
X694458D02*
D03*
X689458D02*
D03*
X684458D02*
D03*
X679458D02*
D03*
X674458D02*
D03*
X669458D02*
D03*
X664458D02*
D03*
X659458D02*
D03*
X654458D02*
D03*
X649458D02*
D03*
X644458D02*
D03*
X639459D02*
D03*
X634459D02*
D03*
X629459D02*
D03*
X624459D02*
D03*
X619459D02*
D03*
X614459D02*
D03*
X609459D02*
D03*
X604459D02*
D03*
X599459D02*
D03*
X594459D02*
D03*
X589459D02*
D03*
X584459D02*
D03*
X579459D02*
D03*
X574459D02*
D03*
X569459D02*
D03*
Y194000D02*
D03*
X574459D02*
D03*
X579459D02*
D03*
X584459D02*
D03*
X589459D02*
D03*
X594459D02*
D03*
X599459D02*
D03*
X604459D02*
D03*
X609459D02*
D03*
X614459D02*
D03*
X619459D02*
D03*
X624459D02*
D03*
X629459D02*
D03*
X634459D02*
D03*
X639459D02*
D03*
X644458D02*
D03*
X649458D02*
D03*
X654458D02*
D03*
X659458D02*
D03*
X664458D02*
D03*
X669458D02*
D03*
X674458D02*
D03*
X679458D02*
D03*
X684458D02*
D03*
X689458D02*
D03*
X694458D02*
D03*
X699458D02*
D03*
X704458D02*
D03*
X709458D02*
D03*
X714458D02*
D03*
X719458D02*
D03*
X724458D02*
D03*
X729458D02*
D03*
X734458D02*
D03*
X739458D02*
D03*
X744458D02*
D03*
D71*
X550959Y387500D02*
D03*
Y382500D02*
D03*
Y377500D02*
D03*
Y372500D02*
D03*
Y367500D02*
D03*
Y362500D02*
D03*
Y357500D02*
D03*
Y352500D02*
D03*
Y347500D02*
D03*
Y342500D02*
D03*
Y337500D02*
D03*
Y332500D02*
D03*
Y327500D02*
D03*
Y322500D02*
D03*
Y317500D02*
D03*
Y312500D02*
D03*
Y307500D02*
D03*
Y302500D02*
D03*
Y297500D02*
D03*
Y292500D02*
D03*
Y287500D02*
D03*
Y282500D02*
D03*
Y277500D02*
D03*
Y272500D02*
D03*
Y267500D02*
D03*
Y262500D02*
D03*
Y257500D02*
D03*
Y252500D02*
D03*
Y247500D02*
D03*
Y242500D02*
D03*
Y237500D02*
D03*
Y232500D02*
D03*
Y227500D02*
D03*
Y222500D02*
D03*
Y217500D02*
D03*
Y212500D02*
D03*
X762959D02*
D03*
Y217500D02*
D03*
Y222500D02*
D03*
Y227500D02*
D03*
Y232500D02*
D03*
Y237500D02*
D03*
Y242500D02*
D03*
Y247500D02*
D03*
Y252500D02*
D03*
Y257500D02*
D03*
Y262500D02*
D03*
Y267500D02*
D03*
Y272500D02*
D03*
Y277500D02*
D03*
Y282500D02*
D03*
Y287500D02*
D03*
Y292500D02*
D03*
Y297500D02*
D03*
Y302500D02*
D03*
Y307500D02*
D03*
Y312500D02*
D03*
Y317500D02*
D03*
Y322500D02*
D03*
Y327500D02*
D03*
Y332500D02*
D03*
Y337500D02*
D03*
Y342500D02*
D03*
Y347500D02*
D03*
Y352500D02*
D03*
Y357500D02*
D03*
Y362500D02*
D03*
Y367500D02*
D03*
Y372500D02*
D03*
Y377500D02*
D03*
Y382500D02*
D03*
Y387500D02*
D03*
D72*
X222250Y105080D02*
D03*
X209550D02*
D03*
X196850D02*
D03*
X184150D02*
D03*
Y159080D02*
D03*
X196850D02*
D03*
X209550D02*
D03*
X222250D02*
D03*
X88900Y105080D02*
D03*
X76200D02*
D03*
X63500D02*
D03*
X50800D02*
D03*
Y159080D02*
D03*
X63500D02*
D03*
X76200D02*
D03*
X88900D02*
D03*
D73*
X483870Y342650D02*
D03*
Y355850D02*
D03*
D74*
Y252610D02*
D03*
Y237610D02*
D03*
X50800Y469780D02*
D03*
Y454780D02*
D03*
X163830Y536060D02*
D03*
Y551060D02*
D03*
D75*
X456080Y534360D02*
D03*
X449580D02*
D03*
X443080D02*
D03*
Y552760D02*
D03*
X449580D02*
D03*
X456080D02*
D03*
Y489910D02*
D03*
X449580D02*
D03*
X443080D02*
D03*
Y508310D02*
D03*
X449580D02*
D03*
X456080D02*
D03*
D76*
X151240Y348050D02*
D03*
Y325050D02*
D03*
X133240D02*
D03*
Y348050D02*
D03*
D77*
X219760Y430400D02*
D03*
X219660Y458600D02*
D03*
X250240Y430400D02*
D03*
X250140Y458600D02*
D03*
X483920Y286890D02*
D03*
X483820Y315090D02*
D03*
X795031Y269110D02*
D03*
X794931Y297310D02*
D03*
X482650Y36700D02*
D03*
X482550Y64900D02*
D03*
X454710Y36700D02*
D03*
X454610Y64900D02*
D03*
D78*
X36155Y287720D02*
D03*
Y311720D02*
D03*
D79*
X60655Y267720D02*
D03*
Y331720D02*
D03*
D80*
X62905Y286720D02*
D03*
Y293220D02*
D03*
Y299720D02*
D03*
Y306220D02*
D03*
Y312720D02*
D03*
D81*
X954920Y223520D02*
D03*
X939920D02*
D03*
X954920Y246017D02*
D03*
X939920D02*
D03*
X954920Y268514D02*
D03*
X939920D02*
D03*
X954920Y291011D02*
D03*
X939920D02*
D03*
X954920Y313508D02*
D03*
X939920D02*
D03*
X954920Y336006D02*
D03*
X939920D02*
D03*
X954920Y358503D02*
D03*
X939920D02*
D03*
X954920Y379857D02*
D03*
X939920D02*
D03*
D82*
X83820Y466500D02*
D03*
Y422500D02*
D03*
D83*
X279400Y469280D02*
D03*
Y455280D02*
D03*
X190500Y470550D02*
D03*
Y456550D02*
D03*
X25400Y455280D02*
D03*
Y469280D02*
D03*
X482600Y114950D02*
D03*
Y100950D02*
D03*
D84*
X234950Y556560D02*
D03*
X68580D02*
D03*
D85*
X249950Y530560D02*
D03*
X219950D02*
D03*
X83580D02*
D03*
X53580D02*
D03*
D86*
X234950Y533560D02*
D03*
X68580D02*
D03*
D87*
X657220Y440590D02*
D03*
X640720D02*
D03*
Y428090D02*
D03*
X657220D02*
D03*
D88*
X201343Y335950D02*
D03*
Y330950D02*
D03*
Y325950D02*
D03*
Y320950D02*
D03*
Y315950D02*
D03*
Y310950D02*
D03*
Y305950D02*
D03*
Y300950D02*
D03*
Y295950D02*
D03*
Y290950D02*
D03*
Y285950D02*
D03*
Y280950D02*
D03*
Y275950D02*
D03*
Y270950D02*
D03*
Y265950D02*
D03*
Y260950D02*
D03*
X316343D02*
D03*
Y265950D02*
D03*
Y270950D02*
D03*
Y275950D02*
D03*
Y280950D02*
D03*
Y285950D02*
D03*
Y290950D02*
D03*
Y295950D02*
D03*
Y300950D02*
D03*
Y305950D02*
D03*
Y310950D02*
D03*
Y315950D02*
D03*
Y320950D02*
D03*
Y325950D02*
D03*
Y330950D02*
D03*
Y335950D02*
D03*
D89*
X220844Y240950D02*
D03*
X225844D02*
D03*
X230844D02*
D03*
X235844D02*
D03*
X240844D02*
D03*
X245844D02*
D03*
X250844D02*
D03*
X255844D02*
D03*
X260844D02*
D03*
X265844D02*
D03*
X270844D02*
D03*
X275844D02*
D03*
X280844D02*
D03*
X285844D02*
D03*
X290844D02*
D03*
X295844D02*
D03*
Y355950D02*
D03*
X290844D02*
D03*
X285844D02*
D03*
X280844D02*
D03*
X270844D02*
D03*
X265844D02*
D03*
X260844D02*
D03*
X255844D02*
D03*
X250844D02*
D03*
X245844D02*
D03*
X240844D02*
D03*
X235844D02*
D03*
X230844D02*
D03*
X225844D02*
D03*
X220844D02*
D03*
X275844D02*
D03*
D90*
X744220Y172440D02*
D03*
Y150140D02*
D03*
D91*
X515620Y39800D02*
D03*
X506120Y61800D02*
D03*
X525120D02*
D03*
D92*
X428600Y38550D02*
D03*
X409600D02*
D03*
Y63050D02*
D03*
X419100D02*
D03*
X428600D02*
D03*
D93*
X428850Y119950D02*
D03*
X422350D02*
D03*
X415850D02*
D03*
X409350D02*
D03*
Y95950D02*
D03*
X415850D02*
D03*
X422350D02*
D03*
X428850D02*
D03*
D94*
X60340Y242570D02*
D03*
X46340D02*
D03*
D95*
X309880Y57150D02*
D03*
X797493Y54610D02*
D03*
X603250Y54917D02*
D03*
D96*
X284130Y31400D02*
D03*
X335630D02*
D03*
X284130Y82900D02*
D03*
X335630D02*
D03*
X771743Y28860D02*
D03*
X823243D02*
D03*
X771743Y80360D02*
D03*
X823243D02*
D03*
X629000Y80667D02*
D03*
X577500D02*
D03*
X629000Y29167D02*
D03*
X577500D02*
D03*
D97*
X567690Y514350D02*
D03*
Y539750D02*
D03*
X593090Y514350D02*
D03*
Y539750D02*
D03*
X618490Y514350D02*
D03*
Y539750D02*
D03*
X643890Y514350D02*
D03*
Y539750D02*
D03*
X669290Y514350D02*
D03*
Y539750D02*
D03*
X694690Y514350D02*
D03*
Y539750D02*
D03*
X720090Y514350D02*
D03*
Y539750D02*
D03*
X745490Y514350D02*
D03*
Y539750D02*
D03*
X770890Y514350D02*
D03*
Y539750D02*
D03*
X796290Y514350D02*
D03*
X516890D02*
D03*
Y539750D02*
D03*
X542290Y514350D02*
D03*
Y539750D02*
D03*
D98*
X796290D02*
D03*
D99*
X36155Y266720D02*
D03*
Y332720D02*
D03*
D100*
X393700Y323850D02*
D03*
X419100D02*
D03*
X393700Y247650D02*
D03*
X419100D02*
D03*
Y273050D02*
D03*
X393700D02*
D03*
D101*
X97790Y242570D02*
D03*
X401320Y78740D02*
D03*
X660400Y15240D02*
D03*
M02*
