G04 Layer_Color=65535*
%FSLAX44Y44*%
%MOMM*%
G71*
G01*
G75*
%ADD41C,0.1524*%
%ADD46C,0.2032*%
%ADD47C,0.1270*%
%ADD56C,0.0229*%
%ADD57C,0.0445*%
%ADD58C,0.2500*%
%ADD59C,0.6000*%
%ADD60C,0.5000*%
%ADD61C,0.3000*%
%ADD62C,0.2000*%
%ADD63C,0.2286*%
D41*
X381000Y127000D02*
Y134618D01*
X384809D01*
X386078Y133348D01*
Y130809D01*
X384809Y129539D01*
X381000D01*
X383539D02*
X386078Y127000D01*
X392426D02*
Y134618D01*
X388618Y130809D01*
X393696D01*
X396235Y127000D02*
X398774D01*
X397505D01*
Y134618D01*
X396235Y133348D01*
X381000Y21590D02*
Y29207D01*
X384809D01*
X386078Y27938D01*
Y25399D01*
X384809Y24129D01*
X381000D01*
X383539D02*
X386078Y21590D01*
X392426D02*
Y29207D01*
X388618Y25399D01*
X393696D01*
X396235Y27938D02*
X397505Y29207D01*
X400044D01*
X401313Y27938D01*
Y22860D01*
X400044Y21590D01*
X397505D01*
X396235Y22860D01*
Y27938D01*
X744220Y69850D02*
X736602D01*
Y73659D01*
X737872Y74928D01*
X740411D01*
X741681Y73659D01*
Y69850D01*
Y72389D02*
X744220Y74928D01*
X737872Y77467D02*
X736602Y78737D01*
Y81276D01*
X737872Y82546D01*
X739142D01*
X740411Y81276D01*
Y80007D01*
Y81276D01*
X741681Y82546D01*
X742950D01*
X744220Y81276D01*
Y78737D01*
X742950Y77467D01*
Y85085D02*
X744220Y86355D01*
Y88894D01*
X742950Y90163D01*
X737872D01*
X736602Y88894D01*
Y86355D01*
X737872Y85085D01*
X739142D01*
X740411Y86355D01*
Y90163D01*
X723900Y69850D02*
X716283D01*
Y73659D01*
X717552Y74928D01*
X720091D01*
X721361Y73659D01*
Y69850D01*
Y72389D02*
X723900Y74928D01*
X717552Y77467D02*
X716283Y78737D01*
Y81276D01*
X717552Y82546D01*
X718822D01*
X720091Y81276D01*
Y80007D01*
Y81276D01*
X721361Y82546D01*
X722630D01*
X723900Y81276D01*
Y78737D01*
X722630Y77467D01*
X717552Y85085D02*
X716283Y86355D01*
Y88894D01*
X717552Y90163D01*
X718822D01*
X720091Y88894D01*
X721361Y90163D01*
X722630D01*
X723900Y88894D01*
Y86355D01*
X722630Y85085D01*
X721361D01*
X720091Y86355D01*
X718822Y85085D01*
X717552D01*
X720091Y86355D02*
Y88894D01*
X589278Y123188D02*
X588009Y124458D01*
X585470D01*
X584200Y123188D01*
Y118110D01*
X585470Y116840D01*
X588009D01*
X589278Y118110D01*
X591818Y116840D02*
Y124458D01*
X596896Y116840D01*
Y124458D01*
X604513D02*
X599435D01*
Y120649D01*
X601974Y121918D01*
X603244D01*
X604513Y120649D01*
Y118110D01*
X603244Y116840D01*
X600705D01*
X599435Y118110D01*
X576580Y157480D02*
Y165098D01*
X580389D01*
X581658Y163828D01*
Y161289D01*
X580389Y160019D01*
X576580D01*
X579119D02*
X581658Y157480D01*
X584198Y163828D02*
X585467Y165098D01*
X588006D01*
X589276Y163828D01*
Y162558D01*
X588006Y161289D01*
X586737D01*
X588006D01*
X589276Y160019D01*
Y158750D01*
X588006Y157480D01*
X585467D01*
X584198Y158750D01*
X591815Y165098D02*
X596893D01*
Y163828D01*
X591815Y158750D01*
Y157480D01*
X575310Y132080D02*
Y139698D01*
X579119D01*
X580388Y138428D01*
Y135889D01*
X579119Y134619D01*
X575310D01*
X577849D02*
X580388Y132080D01*
X582928Y138428D02*
X584197Y139698D01*
X586736D01*
X588006Y138428D01*
Y137158D01*
X586736Y135889D01*
X585467D01*
X586736D01*
X588006Y134619D01*
Y133350D01*
X586736Y132080D01*
X584197D01*
X582928Y133350D01*
X595623Y139698D02*
X593084Y138428D01*
X590545Y135889D01*
Y133350D01*
X591815Y132080D01*
X594354D01*
X595623Y133350D01*
Y134619D01*
X594354Y135889D01*
X590545D01*
X576580Y168910D02*
Y176528D01*
X580389D01*
X581658Y175258D01*
Y172719D01*
X580389Y171449D01*
X576580D01*
X579119D02*
X581658Y168910D01*
X584198Y175258D02*
X585467Y176528D01*
X588006D01*
X589276Y175258D01*
Y173988D01*
X588006Y172719D01*
X586737D01*
X588006D01*
X589276Y171449D01*
Y170180D01*
X588006Y168910D01*
X585467D01*
X584198Y170180D01*
X596893Y176528D02*
X591815D01*
Y172719D01*
X594354Y173988D01*
X595624D01*
X596893Y172719D01*
Y170180D01*
X595624Y168910D01*
X593085D01*
X591815Y170180D01*
X697232Y74928D02*
X695963Y73659D01*
Y71120D01*
X697232Y69850D01*
X702310D01*
X703580Y71120D01*
Y73659D01*
X702310Y74928D01*
X703580Y81276D02*
X695963D01*
X699771Y77467D01*
Y82546D01*
X703580Y90163D02*
Y85085D01*
X698502Y90163D01*
X697232D01*
X695963Y88894D01*
Y86355D01*
X697232Y85085D01*
X276858Y124458D02*
X275589Y125728D01*
X273050D01*
X271780Y124458D01*
Y119380D01*
X273050Y118110D01*
X275589D01*
X276858Y119380D01*
X279398Y118110D02*
Y125728D01*
X284476Y118110D01*
Y125728D01*
X292093Y118110D02*
X287015D01*
X292093Y123188D01*
Y124458D01*
X290824Y125728D01*
X288285D01*
X287015Y124458D01*
X758188Y111758D02*
X756919Y113027D01*
X754380D01*
X753110Y111758D01*
Y106680D01*
X754380Y105410D01*
X756919D01*
X758188Y106680D01*
X760727Y105410D02*
Y113027D01*
X765806Y105410D01*
Y113027D01*
X768345Y105410D02*
X770884D01*
X769615D01*
Y113027D01*
X768345Y111758D01*
X890272Y546098D02*
X889003Y544829D01*
Y542290D01*
X890272Y541020D01*
X891542D01*
X892811Y542290D01*
Y544829D01*
X894081Y546098D01*
X895350D01*
X896620Y544829D01*
Y542290D01*
X895350Y541020D01*
X889003Y548638D02*
X896620D01*
X894081Y551177D01*
X896620Y553716D01*
X889003D01*
X890272Y556255D02*
X889003Y557525D01*
Y560064D01*
X890272Y561333D01*
X891542D01*
X892811Y560064D01*
Y558794D01*
Y560064D01*
X894081Y561333D01*
X895350D01*
X896620Y560064D01*
Y557525D01*
X895350Y556255D01*
X890272Y450848D02*
X889003Y449579D01*
Y447040D01*
X890272Y445770D01*
X891542D01*
X892811Y447040D01*
Y449579D01*
X894081Y450848D01*
X895350D01*
X896620Y449579D01*
Y447040D01*
X895350Y445770D01*
X889003Y453387D02*
X896620D01*
X894081Y455927D01*
X896620Y458466D01*
X889003D01*
X896620Y466083D02*
Y461005D01*
X891542Y466083D01*
X890272D01*
X889003Y464814D01*
Y462275D01*
X890272Y461005D01*
Y142238D02*
X889003Y140969D01*
Y138430D01*
X890272Y137160D01*
X891542D01*
X892811Y138430D01*
Y140969D01*
X894081Y142238D01*
X895350D01*
X896620Y140969D01*
Y138430D01*
X895350Y137160D01*
X889003Y144777D02*
X896620D01*
X894081Y147317D01*
X896620Y149856D01*
X889003D01*
X896620Y152395D02*
Y154934D01*
Y153665D01*
X889003D01*
X890272Y152395D01*
Y45718D02*
X889003Y44449D01*
Y41910D01*
X890272Y40640D01*
X891542D01*
X892811Y41910D01*
Y44449D01*
X894081Y45718D01*
X895350D01*
X896620Y44449D01*
Y41910D01*
X895350Y40640D01*
X889003Y48257D02*
X896620D01*
X894081Y50797D01*
X896620Y53336D01*
X889003D01*
X890272Y55875D02*
X889003Y57145D01*
Y59684D01*
X890272Y60953D01*
X895350D01*
X896620Y59684D01*
Y57145D01*
X895350Y55875D01*
X890272D01*
X138433Y363220D02*
X146050Y368298D01*
X138433D02*
X146050Y363220D01*
Y370838D02*
Y373377D01*
Y372107D01*
X138433D01*
X139702Y370838D01*
X454658Y132078D02*
X453389Y133348D01*
X450850D01*
X449580Y132078D01*
Y127000D01*
X450850Y125730D01*
X453389D01*
X454658Y127000D01*
X457197Y125730D02*
X459737D01*
X458467D01*
Y133348D01*
X457197Y132078D01*
X436882Y21588D02*
X435612Y20319D01*
Y17780D01*
X436882Y16510D01*
X441960D01*
X443230Y17780D01*
Y20319D01*
X441960Y21588D01*
X443230Y29206D02*
Y24128D01*
X438152Y29206D01*
X436882D01*
X435612Y27936D01*
Y25397D01*
X436882Y24128D01*
X681988Y458468D02*
X680719Y459738D01*
X678180D01*
X676910Y458468D01*
Y453390D01*
X678180Y452120D01*
X680719D01*
X681988Y453390D01*
X684528Y458468D02*
X685797Y459738D01*
X688336D01*
X689606Y458468D01*
Y457198D01*
X688336Y455929D01*
X687067D01*
X688336D01*
X689606Y454659D01*
Y453390D01*
X688336Y452120D01*
X685797D01*
X684528Y453390D01*
X612138Y459738D02*
X610869Y461007D01*
X608330D01*
X607060Y459738D01*
Y454660D01*
X608330Y453390D01*
X610869D01*
X612138Y454660D01*
X618486Y453390D02*
Y461007D01*
X614678Y457199D01*
X619756D01*
X514348Y378458D02*
X513079Y379728D01*
X510540D01*
X509270Y378458D01*
Y373380D01*
X510540Y372110D01*
X513079D01*
X514348Y373380D01*
X521966Y379728D02*
X516888D01*
Y375919D01*
X519427Y377188D01*
X520696D01*
X521966Y375919D01*
Y373380D01*
X520696Y372110D01*
X518157D01*
X516888Y373380D01*
X666748Y146048D02*
X665479Y147317D01*
X662940D01*
X661670Y146048D01*
Y140970D01*
X662940Y139700D01*
X665479D01*
X666748Y140970D01*
X674366Y147317D02*
X671827Y146048D01*
X669287Y143509D01*
Y140970D01*
X670557Y139700D01*
X673096D01*
X674366Y140970D01*
Y142239D01*
X673096Y143509D01*
X669287D01*
X793748Y220978D02*
X792479Y222248D01*
X789940D01*
X788670Y220978D01*
Y215900D01*
X789940Y214630D01*
X792479D01*
X793748Y215900D01*
X796288Y222248D02*
X801366D01*
Y220978D01*
X796288Y215900D01*
Y214630D01*
X495302Y397508D02*
X494033Y396239D01*
Y393700D01*
X495302Y392430D01*
X500380D01*
X501650Y393700D01*
Y396239D01*
X500380Y397508D01*
X495302Y400047D02*
X494033Y401317D01*
Y403856D01*
X495302Y405126D01*
X496572D01*
X497841Y403856D01*
X499111Y405126D01*
X500380D01*
X501650Y403856D01*
Y401317D01*
X500380Y400047D01*
X499111D01*
X497841Y401317D01*
X496572Y400047D01*
X495302D01*
X497841Y401317D02*
Y403856D01*
X793748Y356868D02*
X792479Y358138D01*
X789940D01*
X788670Y356868D01*
Y351790D01*
X789940Y350520D01*
X792479D01*
X793748Y351790D01*
X796288D02*
X797557Y350520D01*
X800096D01*
X801366Y351790D01*
Y356868D01*
X800096Y358138D01*
X797557D01*
X796288Y356868D01*
Y355598D01*
X797557Y354329D01*
X801366D01*
X497842Y240028D02*
X496572Y238759D01*
Y236220D01*
X497842Y234950D01*
X502920D01*
X504190Y236220D01*
Y238759D01*
X502920Y240028D01*
X504190Y242568D02*
Y245107D01*
Y243837D01*
X496572D01*
X497842Y242568D01*
Y248916D02*
X496572Y250185D01*
Y252724D01*
X497842Y253994D01*
X502920D01*
X504190Y252724D01*
Y250185D01*
X502920Y248916D01*
X497842D01*
X643921Y146048D02*
X642651Y147317D01*
X640112D01*
X638843Y146048D01*
Y140970D01*
X640112Y139700D01*
X642651D01*
X643921Y140970D01*
X646460Y139700D02*
X648999D01*
X647730D01*
Y147317D01*
X646460Y146048D01*
X652808Y139700D02*
X655347D01*
X654078D01*
Y147317D01*
X652808Y146048D01*
X713738Y458468D02*
X712469Y459738D01*
X709930D01*
X708660Y458468D01*
Y453390D01*
X709930Y452120D01*
X712469D01*
X713738Y453390D01*
X716277Y452120D02*
X718817D01*
X717547D01*
Y459738D01*
X716277Y458468D01*
X727704Y452120D02*
X722626D01*
X727704Y457198D01*
Y458468D01*
X726434Y459738D01*
X723895D01*
X722626Y458468D01*
X497842Y205738D02*
X496572Y204469D01*
Y201930D01*
X497842Y200660D01*
X502920D01*
X504190Y201930D01*
Y204469D01*
X502920Y205738D01*
X504190Y208277D02*
Y210817D01*
Y209547D01*
X496572D01*
X497842Y208277D01*
Y214625D02*
X496572Y215895D01*
Y218434D01*
X497842Y219704D01*
X499112D01*
X500381Y218434D01*
Y217165D01*
Y218434D01*
X501651Y219704D01*
X502920D01*
X504190Y218434D01*
Y215895D01*
X502920Y214625D01*
X464067Y300218D02*
X462798Y298948D01*
Y296409D01*
X464067Y295139D01*
X469145D01*
X470415Y296409D01*
Y298948D01*
X469145Y300218D01*
X470415Y302757D02*
Y305296D01*
Y304027D01*
X462798D01*
X464067Y302757D01*
X470415Y312914D02*
X462798D01*
X466606Y309105D01*
Y314183D01*
X789938Y247648D02*
X788669Y248918D01*
X786130D01*
X784860Y247648D01*
Y242570D01*
X786130Y241300D01*
X788669D01*
X789938Y242570D01*
X792477Y241300D02*
X795017D01*
X793747D01*
Y248918D01*
X792477Y247648D01*
X803904Y248918D02*
X798826D01*
Y245109D01*
X801365Y246378D01*
X802634D01*
X803904Y245109D01*
Y242570D01*
X802634Y241300D01*
X800095D01*
X798826Y242570D01*
X527052Y316228D02*
X525783Y314959D01*
Y312420D01*
X527052Y311150D01*
X532130D01*
X533400Y312420D01*
Y314959D01*
X532130Y316228D01*
X533400Y318768D02*
Y321307D01*
Y320037D01*
X525783D01*
X527052Y318768D01*
X525783Y330194D02*
X527052Y327655D01*
X529591Y325116D01*
X532130D01*
X533400Y326385D01*
Y328924D01*
X532130Y330194D01*
X530861D01*
X529591Y328924D01*
Y325116D01*
X836928Y304798D02*
X835659Y306068D01*
X833120D01*
X831850Y304798D01*
Y299720D01*
X833120Y298450D01*
X835659D01*
X836928Y299720D01*
X839467Y298450D02*
X842007D01*
X840737D01*
Y306068D01*
X839467Y304798D01*
X845816Y306068D02*
X850894D01*
Y304798D01*
X845816Y299720D01*
Y298450D01*
X160022Y30478D02*
X158752Y29209D01*
Y26670D01*
X160022Y25400D01*
X165100D01*
X166370Y26670D01*
Y29209D01*
X165100Y30478D01*
X166370Y33017D02*
Y35557D01*
Y34287D01*
X158752D01*
X160022Y33017D01*
Y39365D02*
X158752Y40635D01*
Y43174D01*
X160022Y44444D01*
X161292D01*
X162561Y43174D01*
X163831Y44444D01*
X165100D01*
X166370Y43174D01*
Y40635D01*
X165100Y39365D01*
X163831D01*
X162561Y40635D01*
X161292Y39365D01*
X160022D01*
X162561Y40635D02*
Y43174D01*
X168912Y247648D02*
X167642Y246379D01*
Y243840D01*
X168912Y242570D01*
X173990D01*
X175260Y243840D01*
Y246379D01*
X173990Y247648D01*
X175260Y250187D02*
Y252727D01*
Y251457D01*
X167642D01*
X168912Y250187D01*
X173990Y256535D02*
X175260Y257805D01*
Y260344D01*
X173990Y261614D01*
X168912D01*
X167642Y260344D01*
Y257805D01*
X168912Y256535D01*
X170182D01*
X171451Y257805D01*
Y261614D01*
X354332Y261618D02*
X353063Y260349D01*
Y257810D01*
X354332Y256540D01*
X359410D01*
X360680Y257810D01*
Y260349D01*
X359410Y261618D01*
X360680Y269236D02*
Y264158D01*
X355602Y269236D01*
X354332D01*
X353063Y267966D01*
Y265427D01*
X354332Y264158D01*
Y271775D02*
X353063Y273045D01*
Y275584D01*
X354332Y276853D01*
X359410D01*
X360680Y275584D01*
Y273045D01*
X359410Y271775D01*
X354332D01*
X215898Y480058D02*
X214629Y481328D01*
X212090D01*
X210820Y480058D01*
Y474980D01*
X212090Y473710D01*
X214629D01*
X215898Y474980D01*
X223516Y473710D02*
X218438D01*
X223516Y478788D01*
Y480058D01*
X222246Y481328D01*
X219707D01*
X218438Y480058D01*
X226055Y473710D02*
X228594D01*
X227325D01*
Y481328D01*
X226055Y480058D01*
X171452Y425058D02*
X170182Y423789D01*
Y421250D01*
X171452Y419980D01*
X176530D01*
X177800Y421250D01*
Y423789D01*
X176530Y425058D01*
X177800Y432676D02*
Y427598D01*
X172722Y432676D01*
X171452D01*
X170182Y431406D01*
Y428867D01*
X171452Y427598D01*
X177800Y440293D02*
Y435215D01*
X172722Y440293D01*
X171452D01*
X170182Y439024D01*
Y436485D01*
X171452Y435215D01*
X292102Y427598D02*
X290833Y426329D01*
Y423790D01*
X292102Y422520D01*
X297180D01*
X298450Y423790D01*
Y426329D01*
X297180Y427598D01*
X298450Y435216D02*
Y430137D01*
X293372Y435216D01*
X292102D01*
X290833Y433946D01*
Y431407D01*
X292102Y430137D01*
Y437755D02*
X290833Y439025D01*
Y441564D01*
X292102Y442833D01*
X293372D01*
X294641Y441564D01*
Y440294D01*
Y441564D01*
X295911Y442833D01*
X297180D01*
X298450Y441564D01*
Y439025D01*
X297180Y437755D01*
X246378Y480058D02*
X245109Y481328D01*
X242570D01*
X241300Y480058D01*
Y474980D01*
X242570Y473710D01*
X245109D01*
X246378Y474980D01*
X253996Y473710D02*
X248918D01*
X253996Y478788D01*
Y480058D01*
X252726Y481328D01*
X250187D01*
X248918Y480058D01*
X260344Y473710D02*
Y481328D01*
X256535Y477519D01*
X261613D01*
X222248Y382268D02*
X220979Y383537D01*
X218440D01*
X217170Y382268D01*
Y377190D01*
X218440Y375920D01*
X220979D01*
X222248Y377190D01*
X229866Y375920D02*
X224788D01*
X229866Y380998D01*
Y382268D01*
X228596Y383537D01*
X226057D01*
X224788Y382268D01*
X237483Y383537D02*
X232405D01*
Y379729D01*
X234944Y380998D01*
X236214D01*
X237483Y379729D01*
Y377190D01*
X236214Y375920D01*
X233675D01*
X232405Y377190D01*
X322578Y380998D02*
X321309Y382267D01*
X318770D01*
X317500Y380998D01*
Y375920D01*
X318770Y374650D01*
X321309D01*
X322578Y375920D01*
X330196Y374650D02*
X325117D01*
X330196Y379728D01*
Y380998D01*
X328926Y382267D01*
X326387D01*
X325117Y380998D01*
X337813Y382267D02*
X335274Y380998D01*
X332735Y378459D01*
Y375920D01*
X334005Y374650D01*
X336544D01*
X337813Y375920D01*
Y377189D01*
X336544Y378459D01*
X332735D01*
X355602Y345438D02*
X354333Y344169D01*
Y341630D01*
X355602Y340360D01*
X360680D01*
X361950Y341630D01*
Y344169D01*
X360680Y345438D01*
X361950Y353056D02*
Y347977D01*
X356872Y353056D01*
X355602D01*
X354333Y351786D01*
Y349247D01*
X355602Y347977D01*
X354333Y355595D02*
Y360673D01*
X355602D01*
X360680Y355595D01*
X361950D01*
X109222Y360678D02*
X107952Y359409D01*
Y356870D01*
X109222Y355600D01*
X114300D01*
X115570Y356870D01*
Y359409D01*
X114300Y360678D01*
X115570Y368296D02*
Y363218D01*
X110492Y368296D01*
X109222D01*
X107952Y367026D01*
Y364487D01*
X109222Y363218D01*
Y370835D02*
X107952Y372105D01*
Y374644D01*
X109222Y375913D01*
X110492D01*
X111761Y374644D01*
X113031Y375913D01*
X114300D01*
X115570Y374644D01*
Y372105D01*
X114300Y370835D01*
X113031D01*
X111761Y372105D01*
X110492Y370835D01*
X109222D01*
X111761Y372105D02*
Y374644D01*
X168667Y363218D02*
X167397Y361949D01*
Y359410D01*
X168667Y358140D01*
X173745D01*
X175015Y359410D01*
Y361949D01*
X173745Y363218D01*
X175015Y370836D02*
Y365757D01*
X169937Y370836D01*
X168667D01*
X167397Y369566D01*
Y367027D01*
X168667Y365757D01*
X173745Y373375D02*
X175015Y374645D01*
Y377184D01*
X173745Y378453D01*
X168667D01*
X167397Y377184D01*
Y374645D01*
X168667Y373375D01*
X169937D01*
X171206Y374645D01*
Y378453D01*
X67312Y30478D02*
X66042Y29209D01*
Y26670D01*
X67312Y25400D01*
X72390D01*
X73660Y26670D01*
Y29209D01*
X72390Y30478D01*
X67312Y33017D02*
X66042Y34287D01*
Y36826D01*
X67312Y38096D01*
X68582D01*
X69851Y36826D01*
Y35557D01*
Y36826D01*
X71121Y38096D01*
X72390D01*
X73660Y36826D01*
Y34287D01*
X72390Y33017D01*
X67312Y40635D02*
X66042Y41905D01*
Y44444D01*
X67312Y45713D01*
X72390D01*
X73660Y44444D01*
Y41905D01*
X72390Y40635D01*
X67312D01*
X852172Y67308D02*
X850902Y66039D01*
Y63500D01*
X852172Y62230D01*
X857250D01*
X858520Y63500D01*
Y66039D01*
X857250Y67308D01*
X852172Y69847D02*
X850902Y71117D01*
Y73656D01*
X852172Y74926D01*
X853442D01*
X854711Y73656D01*
Y72387D01*
Y73656D01*
X855981Y74926D01*
X857250D01*
X858520Y73656D01*
Y71117D01*
X857250Y69847D01*
X858520Y77465D02*
Y80004D01*
Y78735D01*
X850902D01*
X852172Y77465D01*
X853442Y160018D02*
X852172Y158749D01*
Y156210D01*
X853442Y154940D01*
X858520D01*
X859790Y156210D01*
Y158749D01*
X858520Y160018D01*
X853442Y162558D02*
X852172Y163827D01*
Y166366D01*
X853442Y167636D01*
X854712D01*
X855981Y166366D01*
Y165097D01*
Y166366D01*
X857251Y167636D01*
X858520D01*
X859790Y166366D01*
Y163827D01*
X858520Y162558D01*
X859790Y175253D02*
Y170175D01*
X854712Y175253D01*
X853442D01*
X852172Y173984D01*
Y171445D01*
X853442Y170175D01*
X850902Y471168D02*
X849632Y469899D01*
Y467360D01*
X850902Y466090D01*
X855980D01*
X857250Y467360D01*
Y469899D01*
X855980Y471168D01*
X850902Y473708D02*
X849632Y474977D01*
Y477516D01*
X850902Y478786D01*
X852172D01*
X853441Y477516D01*
Y476247D01*
Y477516D01*
X854711Y478786D01*
X855980D01*
X857250Y477516D01*
Y474977D01*
X855980Y473708D01*
X850902Y481325D02*
X849632Y482595D01*
Y485134D01*
X850902Y486403D01*
X852172D01*
X853441Y485134D01*
Y483864D01*
Y485134D01*
X854711Y486403D01*
X855980D01*
X857250Y485134D01*
Y482595D01*
X855980Y481325D01*
X852172Y566418D02*
X850902Y565149D01*
Y562610D01*
X852172Y561340D01*
X857250D01*
X858520Y562610D01*
Y565149D01*
X857250Y566418D01*
X852172Y568957D02*
X850902Y570227D01*
Y572766D01*
X852172Y574036D01*
X853442D01*
X854711Y572766D01*
Y571497D01*
Y572766D01*
X855981Y574036D01*
X857250D01*
X858520Y572766D01*
Y570227D01*
X857250Y568957D01*
X858520Y580384D02*
X850902D01*
X854711Y576575D01*
Y581653D01*
X22862Y392428D02*
X21593Y391159D01*
Y388620D01*
X22862Y387350D01*
X27940D01*
X29210Y388620D01*
Y391159D01*
X27940Y392428D01*
X22862Y394967D02*
X21593Y396237D01*
Y398776D01*
X22862Y400046D01*
X24132D01*
X25401Y398776D01*
Y397507D01*
Y398776D01*
X26671Y400046D01*
X27940D01*
X29210Y398776D01*
Y396237D01*
X27940Y394967D01*
X21593Y407663D02*
Y402585D01*
X25401D01*
X24132Y405124D01*
Y406394D01*
X25401Y407663D01*
X27940D01*
X29210Y406394D01*
Y403855D01*
X27940Y402585D01*
X537208Y31748D02*
X535939Y33017D01*
X533400D01*
X532130Y31748D01*
Y26670D01*
X533400Y25400D01*
X535939D01*
X537208Y26670D01*
X539748Y31748D02*
X541017Y33017D01*
X543556D01*
X544826Y31748D01*
Y30478D01*
X543556Y29209D01*
X542287D01*
X543556D01*
X544826Y27939D01*
Y26670D01*
X543556Y25400D01*
X541017D01*
X539748Y26670D01*
X552443Y33017D02*
X549904Y31748D01*
X547365Y29209D01*
Y26670D01*
X548635Y25400D01*
X551174D01*
X552443Y26670D01*
Y27939D01*
X551174Y29209D01*
X547365D01*
X497842Y21588D02*
X496572Y20319D01*
Y17780D01*
X497842Y16510D01*
X502920D01*
X504190Y17780D01*
Y20319D01*
X502920Y21588D01*
X497842Y24128D02*
X496572Y25397D01*
Y27936D01*
X497842Y29206D01*
X499112D01*
X500381Y27936D01*
Y26667D01*
Y27936D01*
X501651Y29206D01*
X502920D01*
X504190Y27936D01*
Y25397D01*
X502920Y24128D01*
X496572Y31745D02*
Y36823D01*
X497842D01*
X502920Y31745D01*
X504190D01*
X109222Y567688D02*
X107952Y566419D01*
Y563880D01*
X109222Y562610D01*
X114300D01*
X115570Y563880D01*
Y566419D01*
X114300Y567688D01*
X109222Y570228D02*
X107952Y571497D01*
Y574036D01*
X109222Y575306D01*
X110492D01*
X111761Y574036D01*
Y572767D01*
Y574036D01*
X113031Y575306D01*
X114300D01*
X115570Y574036D01*
Y571497D01*
X114300Y570228D01*
X109222Y577845D02*
X107952Y579115D01*
Y581654D01*
X109222Y582923D01*
X110492D01*
X111761Y581654D01*
X113031Y582923D01*
X114300D01*
X115570Y581654D01*
Y579115D01*
X114300Y577845D01*
X113031D01*
X111761Y579115D01*
X110492Y577845D01*
X109222D01*
X111761Y579115D02*
Y581654D01*
X187962Y567688D02*
X186693Y566419D01*
Y563880D01*
X187962Y562610D01*
X193040D01*
X194310Y563880D01*
Y566419D01*
X193040Y567688D01*
X187962Y570228D02*
X186693Y571497D01*
Y574036D01*
X187962Y575306D01*
X189232D01*
X190501Y574036D01*
Y572767D01*
Y574036D01*
X191771Y575306D01*
X193040D01*
X194310Y574036D01*
Y571497D01*
X193040Y570228D01*
Y577845D02*
X194310Y579115D01*
Y581654D01*
X193040Y582923D01*
X187962D01*
X186693Y581654D01*
Y579115D01*
X187962Y577845D01*
X189232D01*
X190501Y579115D01*
Y582923D01*
X276862Y566418D02*
X275592Y565149D01*
Y562610D01*
X276862Y561340D01*
X281940D01*
X283210Y562610D01*
Y565149D01*
X281940Y566418D01*
X283210Y572766D02*
X275592D01*
X279401Y568957D01*
Y574036D01*
X276862Y576575D02*
X275592Y577845D01*
Y580384D01*
X276862Y581653D01*
X281940D01*
X283210Y580384D01*
Y577845D01*
X281940Y576575D01*
X276862D01*
X22862Y567688D02*
X21593Y566419D01*
Y563880D01*
X22862Y562610D01*
X27940D01*
X29210Y563880D01*
Y566419D01*
X27940Y567688D01*
X29210Y574036D02*
X21593D01*
X25401Y570228D01*
Y575306D01*
X29210Y577845D02*
Y580384D01*
Y579115D01*
X21593D01*
X22862Y577845D01*
X488952Y518158D02*
X487682Y516889D01*
Y514350D01*
X488952Y513080D01*
X494030D01*
X495300Y514350D01*
Y516889D01*
X494030Y518158D01*
X495300Y520698D02*
X487682D01*
X495300Y525776D01*
X487682D01*
X488952Y528315D02*
X487682Y529585D01*
Y532124D01*
X488952Y533393D01*
X490222D01*
X491491Y532124D01*
Y530854D01*
Y532124D01*
X492761Y533393D01*
X494030D01*
X495300Y532124D01*
Y529585D01*
X494030Y528315D01*
X54608Y353058D02*
X53339Y354328D01*
X50800D01*
X49530Y353058D01*
Y347980D01*
X50800Y346710D01*
X53339D01*
X54608Y347980D01*
X57147Y346710D02*
Y354328D01*
X62226Y346710D01*
Y354328D01*
X68574Y346710D02*
Y354328D01*
X64765Y350519D01*
X69843D01*
X966470Y227327D02*
Y219710D01*
X970279D01*
X971548Y220980D01*
Y226058D01*
X970279Y227327D01*
X966470D01*
X974088Y226058D02*
X975357Y227327D01*
X977896D01*
X979166Y226058D01*
Y220980D01*
X977896Y219710D01*
X975357D01*
X974088Y220980D01*
Y226058D01*
X966470Y250187D02*
Y242570D01*
X970279D01*
X971548Y243840D01*
Y248918D01*
X970279Y250187D01*
X966470D01*
X974088Y242570D02*
X976627D01*
X975357D01*
Y250187D01*
X974088Y248918D01*
X966470Y273048D02*
Y265430D01*
X970279D01*
X971548Y266700D01*
Y271778D01*
X970279Y273048D01*
X966470D01*
X979166Y265430D02*
X974088D01*
X979166Y270508D01*
Y271778D01*
X977896Y273048D01*
X975357D01*
X974088Y271778D01*
X966470Y294638D02*
Y287020D01*
X970279D01*
X971548Y288290D01*
Y293368D01*
X970279Y294638D01*
X966470D01*
X974088Y293368D02*
X975357Y294638D01*
X977896D01*
X979166Y293368D01*
Y292098D01*
X977896Y290829D01*
X976627D01*
X977896D01*
X979166Y289559D01*
Y288290D01*
X977896Y287020D01*
X975357D01*
X974088Y288290D01*
X966470Y317498D02*
Y309880D01*
X970279D01*
X971548Y311150D01*
Y316228D01*
X970279Y317498D01*
X966470D01*
X977896Y309880D02*
Y317498D01*
X974088Y313689D01*
X979166D01*
X966470Y340358D02*
Y332740D01*
X970279D01*
X971548Y334010D01*
Y339088D01*
X970279Y340358D01*
X966470D01*
X979166D02*
X974088D01*
Y336549D01*
X976627Y337818D01*
X977896D01*
X979166Y336549D01*
Y334010D01*
X977896Y332740D01*
X975357D01*
X974088Y334010D01*
X966470Y361948D02*
Y354330D01*
X970279D01*
X971548Y355600D01*
Y360678D01*
X970279Y361948D01*
X966470D01*
X979166D02*
X976627Y360678D01*
X974088Y358139D01*
Y355600D01*
X975357Y354330D01*
X977896D01*
X979166Y355600D01*
Y356869D01*
X977896Y358139D01*
X974088D01*
X966470Y383665D02*
Y376048D01*
X970279D01*
X971548Y377317D01*
Y382396D01*
X970279Y383665D01*
X966470D01*
X974088D02*
X979166D01*
Y382396D01*
X974088Y377317D01*
Y376048D01*
X477520Y372108D02*
Y364490D01*
X481329D01*
X482598Y365760D01*
Y370838D01*
X481329Y372108D01*
X477520D01*
X485137Y370838D02*
X486407Y372108D01*
X488946D01*
X490216Y370838D01*
Y369568D01*
X488946Y368299D01*
X490216Y367029D01*
Y365760D01*
X488946Y364490D01*
X486407D01*
X485137Y365760D01*
Y367029D01*
X486407Y368299D01*
X485137Y369568D01*
Y370838D01*
X486407Y368299D02*
X488946D01*
X467363Y234950D02*
X474980D01*
Y238759D01*
X473710Y240028D01*
X468632D01*
X467363Y238759D01*
Y234950D01*
X473710Y242568D02*
X474980Y243837D01*
Y246376D01*
X473710Y247646D01*
X468632D01*
X467363Y246376D01*
Y243837D01*
X468632Y242568D01*
X469902D01*
X471171Y243837D01*
Y247646D01*
X316230Y563877D02*
Y556260D01*
X320039D01*
X321308Y557530D01*
Y562608D01*
X320039Y563877D01*
X316230D01*
X323848Y556260D02*
X326387D01*
X325117D01*
Y563877D01*
X323848Y562608D01*
X330196Y556260D02*
X332735D01*
X331465D01*
Y563877D01*
X330196Y562608D01*
X73660Y488947D02*
Y481330D01*
X77469D01*
X78738Y482600D01*
Y487678D01*
X77469Y488947D01*
X73660D01*
X81278Y481330D02*
X83817D01*
X82547D01*
Y488947D01*
X81278Y487678D01*
X92704Y481330D02*
X87626D01*
X92704Y486408D01*
Y487678D01*
X91434Y488947D01*
X88895D01*
X87626Y487678D01*
X46993Y477520D02*
X54610D01*
Y481329D01*
X53340Y482598D01*
X48262D01*
X46993Y481329D01*
Y477520D01*
X54610Y485137D02*
Y487677D01*
Y486407D01*
X46993D01*
X48262Y485137D01*
Y491485D02*
X46993Y492755D01*
Y495294D01*
X48262Y496564D01*
X49532D01*
X50801Y495294D01*
Y494025D01*
Y495294D01*
X52071Y496564D01*
X53340D01*
X54610Y495294D01*
Y492755D01*
X53340Y491485D01*
X160023Y562610D02*
X167640D01*
Y566419D01*
X166370Y567688D01*
X161292D01*
X160023Y566419D01*
Y562610D01*
X167640Y570228D02*
Y572767D01*
Y571497D01*
X160023D01*
X161292Y570228D01*
X167640Y580384D02*
X160023D01*
X163831Y576576D01*
Y581654D01*
X290833Y458468D02*
Y453390D01*
X294641D01*
Y455929D01*
Y453390D01*
X298450D01*
X290833Y461007D02*
X298450D01*
Y464816D01*
X297180Y466086D01*
X295911D01*
X294641Y464816D01*
Y461007D01*
Y464816D01*
X293372Y466086D01*
X292102D01*
X290833Y464816D01*
Y461007D01*
X298450Y468625D02*
Y471164D01*
Y469895D01*
X290833D01*
X292102Y468625D01*
X171453Y459348D02*
Y454270D01*
X175261D01*
Y456809D01*
Y454270D01*
X179070D01*
X171453Y461888D02*
X179070D01*
Y465696D01*
X177800Y466966D01*
X176531D01*
X175261Y465696D01*
Y461888D01*
Y465696D01*
X173992Y466966D01*
X172722D01*
X171453Y465696D01*
Y461888D01*
X179070Y474583D02*
Y469505D01*
X173992Y474583D01*
X172722D01*
X171453Y473314D01*
Y470775D01*
X172722Y469505D01*
X21593Y481328D02*
Y476250D01*
X25401D01*
Y478789D01*
Y476250D01*
X29210D01*
X21593Y483867D02*
X29210D01*
Y487676D01*
X27940Y488946D01*
X26671D01*
X25401Y487676D01*
Y483867D01*
Y487676D01*
X24132Y488946D01*
X22862D01*
X21593Y487676D01*
Y483867D01*
X22862Y491485D02*
X21593Y492755D01*
Y495294D01*
X22862Y496563D01*
X24132D01*
X25401Y495294D01*
Y494024D01*
Y495294D01*
X26671Y496563D01*
X27940D01*
X29210Y495294D01*
Y492755D01*
X27940Y491485D01*
X21588Y246378D02*
X16510D01*
Y242569D01*
X19049D01*
X16510D01*
Y238760D01*
X24128Y246378D02*
Y238760D01*
X27936D01*
X29206Y240030D01*
Y241299D01*
X27936Y242569D01*
X24128D01*
X27936D01*
X29206Y243838D01*
Y245108D01*
X27936Y246378D01*
X24128D01*
X35554Y238760D02*
Y246378D01*
X31745Y242569D01*
X36823D01*
X482598Y133094D02*
X477520D01*
Y129285D01*
X480059D01*
X477520D01*
Y125476D01*
X485137Y133094D02*
Y125476D01*
X488946D01*
X490216Y126746D01*
Y128015D01*
X488946Y129285D01*
X485137D01*
X488946D01*
X490216Y130554D01*
Y131824D01*
X488946Y133094D01*
X485137D01*
X497833D02*
X492755D01*
Y129285D01*
X495294Y130554D01*
X496564D01*
X497833Y129285D01*
Y126746D01*
X496564Y125476D01*
X494025D01*
X492755Y126746D01*
X407670Y139698D02*
X410209D01*
X408940D01*
Y132080D01*
X407670D01*
X410209D01*
X419096Y138428D02*
X417827Y139698D01*
X415288D01*
X414018Y138428D01*
Y133350D01*
X415288Y132080D01*
X417827D01*
X419096Y133350D01*
X421636Y132080D02*
X424175D01*
X422905D01*
Y139698D01*
X421636Y138428D01*
X408940Y29207D02*
X411479D01*
X410210D01*
Y21590D01*
X408940D01*
X411479D01*
X420366Y27938D02*
X419097Y29207D01*
X416558D01*
X415288Y27938D01*
Y22860D01*
X416558Y21590D01*
X419097D01*
X420366Y22860D01*
X427984Y21590D02*
X422906D01*
X427984Y26668D01*
Y27938D01*
X426714Y29207D01*
X424175D01*
X422906Y27938D01*
X233682Y127000D02*
Y129539D01*
Y128270D01*
X241300D01*
Y127000D01*
Y129539D01*
X234952Y138426D02*
X233682Y137157D01*
Y134618D01*
X234952Y133348D01*
X240030D01*
X241300Y134618D01*
Y137157D01*
X240030Y138426D01*
X234952Y140965D02*
X233682Y142235D01*
Y144774D01*
X234952Y146044D01*
X236222D01*
X237491Y144774D01*
Y143505D01*
Y144774D01*
X238761Y146044D01*
X240030D01*
X241300Y144774D01*
Y142235D01*
X240030Y140965D01*
X101602Y123190D02*
Y125729D01*
Y124460D01*
X109220D01*
Y123190D01*
Y125729D01*
X102872Y134616D02*
X101602Y133347D01*
Y130808D01*
X102872Y129538D01*
X107950D01*
X109220Y130808D01*
Y133347D01*
X107950Y134616D01*
X101602Y142234D02*
Y137156D01*
X105411D01*
X104142Y139695D01*
Y140964D01*
X105411Y142234D01*
X107950D01*
X109220Y140964D01*
Y138425D01*
X107950Y137156D01*
X440690Y567687D02*
X443229D01*
X441960D01*
Y560070D01*
X440690D01*
X443229D01*
X452116Y566418D02*
X450847Y567687D01*
X448307D01*
X447038Y566418D01*
Y561340D01*
X448307Y560070D01*
X450847D01*
X452116Y561340D01*
X459734Y567687D02*
X457195Y566418D01*
X454655Y563879D01*
Y561340D01*
X455925Y560070D01*
X458464D01*
X459734Y561340D01*
Y562609D01*
X458464Y563879D01*
X454655D01*
X440690Y482598D02*
X443229D01*
X441960D01*
Y474980D01*
X440690D01*
X443229D01*
X452116Y481328D02*
X450847Y482598D01*
X448307D01*
X447038Y481328D01*
Y476250D01*
X448307Y474980D01*
X450847D01*
X452116Y476250D01*
X454655Y482598D02*
X459734D01*
Y481328D01*
X454655Y476250D01*
Y474980D01*
X511810Y80007D02*
X514349D01*
X513080D01*
Y72390D01*
X511810D01*
X514349D01*
X523236Y78738D02*
X521967Y80007D01*
X519427D01*
X518158Y78738D01*
Y73660D01*
X519427Y72390D01*
X521967D01*
X523236Y73660D01*
X525775Y78738D02*
X527045Y80007D01*
X529584D01*
X530854Y78738D01*
Y77468D01*
X529584Y76199D01*
X530854Y74929D01*
Y73660D01*
X529584Y72390D01*
X527045D01*
X525775Y73660D01*
Y74929D01*
X527045Y76199D01*
X525775Y77468D01*
Y78738D01*
X527045Y76199D02*
X529584D01*
X226083Y581657D02*
X228622D01*
X227352D01*
Y574040D01*
X226083D01*
X228622D01*
X237509Y580388D02*
X236239Y581657D01*
X233700D01*
X232430Y580388D01*
Y575310D01*
X233700Y574040D01*
X236239D01*
X237509Y575310D01*
X240048D02*
X241318Y574040D01*
X243857D01*
X245126Y575310D01*
Y580388D01*
X243857Y581657D01*
X241318D01*
X240048Y580388D01*
Y579118D01*
X241318Y577849D01*
X245126D01*
X55903Y582928D02*
X58442D01*
X57172D01*
Y575310D01*
X55903D01*
X58442D01*
X67329Y581658D02*
X66059Y582928D01*
X63520D01*
X62250Y581658D01*
Y576580D01*
X63520Y575310D01*
X66059D01*
X67329Y576580D01*
X69868Y575310D02*
X72407D01*
X71138D01*
Y582928D01*
X69868Y581658D01*
X76216D02*
X77486Y582928D01*
X80025D01*
X81294Y581658D01*
Y576580D01*
X80025Y575310D01*
X77486D01*
X76216Y576580D01*
Y581658D01*
X386078Y297178D02*
X383539D01*
X384809D01*
Y290830D01*
X383539Y289560D01*
X382270D01*
X381000Y290830D01*
X388618Y289560D02*
Y297178D01*
X392426D01*
X393696Y295908D01*
Y293369D01*
X392426Y292099D01*
X388618D01*
X396235Y289560D02*
X398774D01*
X397505D01*
Y297178D01*
X396235Y295908D01*
X386840Y351534D02*
X384301D01*
X385571D01*
Y345186D01*
X384301Y343916D01*
X383032D01*
X381762Y345186D01*
X389380Y343916D02*
Y351534D01*
X393188D01*
X394458Y350264D01*
Y347725D01*
X393188Y346455D01*
X389380D01*
X402075Y343916D02*
X396997D01*
X402075Y348994D01*
Y350264D01*
X400806Y351534D01*
X398267D01*
X396997Y350264D01*
X633729Y459738D02*
X631190D01*
X629920Y458468D01*
Y453390D01*
X631190Y452120D01*
X633729D01*
X634998Y453390D01*
Y458468D01*
X633729Y459738D01*
X642616Y458468D02*
X641346Y459738D01*
X638807D01*
X637537Y458468D01*
Y457198D01*
X638807Y455929D01*
X641346D01*
X642616Y454659D01*
Y453390D01*
X641346Y452120D01*
X638807D01*
X637537Y453390D01*
X650233Y458468D02*
X648964Y459738D01*
X646425D01*
X645155Y458468D01*
Y453390D01*
X646425Y452120D01*
X648964D01*
X650233Y453390D01*
X652773Y452120D02*
X655312D01*
X654042D01*
Y459738D01*
X652773Y458468D01*
X186690Y30480D02*
X179072D01*
Y34289D01*
X180342Y35558D01*
X182881D01*
X184151Y34289D01*
Y30480D01*
Y33019D02*
X186690Y35558D01*
Y38098D02*
Y40637D01*
Y39367D01*
X179072D01*
X180342Y38098D01*
X486410Y453390D02*
X478792D01*
Y457199D01*
X480062Y458468D01*
X482601D01*
X483871Y457199D01*
Y453390D01*
Y455929D02*
X486410Y458468D01*
Y466086D02*
Y461007D01*
X481332Y466086D01*
X480062D01*
X478792Y464816D01*
Y462277D01*
X480062Y461007D01*
X473710Y204470D02*
X466092D01*
Y208279D01*
X467362Y209548D01*
X469901D01*
X471171Y208279D01*
Y204470D01*
Y207009D02*
X473710Y209548D01*
X467362Y212087D02*
X466092Y213357D01*
Y215896D01*
X467362Y217166D01*
X468632D01*
X469901Y215896D01*
Y214627D01*
Y215896D01*
X471171Y217166D01*
X472440D01*
X473710Y215896D01*
Y213357D01*
X472440Y212087D01*
X533400Y272500D02*
X525783D01*
Y276309D01*
X527052Y277578D01*
X529591D01*
X530861Y276309D01*
Y272500D01*
Y275039D02*
X533400Y277578D01*
Y283926D02*
X525783D01*
X529591Y280117D01*
Y285196D01*
X831850Y254000D02*
Y261618D01*
X835659D01*
X836928Y260348D01*
Y257809D01*
X835659Y256539D01*
X831850D01*
X834389D02*
X836928Y254000D01*
X844546Y261618D02*
X839467D01*
Y257809D01*
X842007Y259078D01*
X843276D01*
X844546Y257809D01*
Y255270D01*
X843276Y254000D01*
X840737D01*
X839467Y255270D01*
X247650Y30480D02*
X240033D01*
Y34289D01*
X241302Y35558D01*
X243841D01*
X245111Y34289D01*
Y30480D01*
Y33019D02*
X247650Y35558D01*
X240033Y43176D02*
X241302Y40637D01*
X243841Y38098D01*
X246380D01*
X247650Y39367D01*
Y41906D01*
X246380Y43176D01*
X245111D01*
X243841Y41906D01*
Y38098D01*
X208280Y30480D02*
X200662D01*
Y34289D01*
X201932Y35558D01*
X204471D01*
X205741Y34289D01*
Y30480D01*
Y33019D02*
X208280Y35558D01*
X200662Y38098D02*
Y43176D01*
X201932D01*
X207010Y38098D01*
X208280D01*
X227330Y31750D02*
X219713D01*
Y35559D01*
X220982Y36828D01*
X223521D01*
X224791Y35559D01*
Y31750D01*
Y34289D02*
X227330Y36828D01*
X220982Y39367D02*
X219713Y40637D01*
Y43176D01*
X220982Y44446D01*
X222252D01*
X223521Y43176D01*
X224791Y44446D01*
X226060D01*
X227330Y43176D01*
Y40637D01*
X226060Y39367D01*
X224791D01*
X223521Y40637D01*
X222252Y39367D01*
X220982D01*
X223521Y40637D02*
Y43176D01*
X115570Y248920D02*
X107952D01*
Y252729D01*
X109222Y253998D01*
X111761D01*
X113031Y252729D01*
Y248920D01*
Y251459D02*
X115570Y253998D01*
X114300Y256537D02*
X115570Y257807D01*
Y260346D01*
X114300Y261616D01*
X109222D01*
X107952Y260346D01*
Y257807D01*
X109222Y256537D01*
X110492D01*
X111761Y257807D01*
Y261616D01*
X145415Y242570D02*
X137797D01*
Y246379D01*
X139067Y247648D01*
X141606D01*
X142876Y246379D01*
Y242570D01*
Y245109D02*
X145415Y247648D01*
Y250187D02*
Y252727D01*
Y251457D01*
X137797D01*
X139067Y250187D01*
Y256535D02*
X137797Y257805D01*
Y260344D01*
X139067Y261614D01*
X144145D01*
X145415Y260344D01*
Y257805D01*
X144145Y256535D01*
X139067D01*
X33020Y25400D02*
X25403D01*
Y29209D01*
X26672Y30478D01*
X29211D01*
X30481Y29209D01*
Y25400D01*
Y27939D02*
X33020Y30478D01*
Y33017D02*
Y35557D01*
Y34287D01*
X25403D01*
X26672Y33017D01*
X33020Y39365D02*
Y41905D01*
Y40635D01*
X25403D01*
X26672Y39365D01*
X53340Y25400D02*
X45722D01*
Y29209D01*
X46992Y30478D01*
X49531D01*
X50801Y29209D01*
Y25400D01*
Y27939D02*
X53340Y30478D01*
Y33017D02*
Y35557D01*
Y34287D01*
X45722D01*
X46992Y33017D01*
X53340Y44444D02*
Y39365D01*
X48262Y44444D01*
X46992D01*
X45722Y43174D01*
Y40635D01*
X46992Y39365D01*
X114300Y25400D02*
X106683D01*
Y29209D01*
X107952Y30478D01*
X110491D01*
X111761Y29209D01*
Y25400D01*
Y27939D02*
X114300Y30478D01*
Y33017D02*
Y35557D01*
Y34287D01*
X106683D01*
X107952Y33017D01*
Y39365D02*
X106683Y40635D01*
Y43174D01*
X107952Y44444D01*
X109222D01*
X110491Y43174D01*
Y41905D01*
Y43174D01*
X111761Y44444D01*
X113030D01*
X114300Y43174D01*
Y40635D01*
X113030Y39365D01*
X93980Y25400D02*
X86362D01*
Y29209D01*
X87632Y30478D01*
X90171D01*
X91441Y29209D01*
Y25400D01*
Y27939D02*
X93980Y30478D01*
Y33017D02*
Y35557D01*
Y34287D01*
X86362D01*
X87632Y33017D01*
X93980Y43174D02*
X86362D01*
X90171Y39365D01*
Y44444D01*
X424180Y562610D02*
X416562D01*
Y566419D01*
X417832Y567688D01*
X420371D01*
X421641Y566419D01*
Y562610D01*
Y565149D02*
X424180Y567688D01*
Y570228D02*
Y572767D01*
Y571497D01*
X416562D01*
X417832Y570228D01*
X416562Y581654D02*
Y576576D01*
X420371D01*
X419102Y579115D01*
Y580384D01*
X420371Y581654D01*
X422910D01*
X424180Y580384D01*
Y577845D01*
X422910Y576576D01*
X397510Y562610D02*
X389893D01*
Y566419D01*
X391162Y567688D01*
X393701D01*
X394971Y566419D01*
Y562610D01*
Y565149D02*
X397510Y567688D01*
Y570228D02*
Y572767D01*
Y571497D01*
X389893D01*
X391162Y570228D01*
X389893Y581654D02*
X391162Y579115D01*
X393701Y576576D01*
X396240D01*
X397510Y577845D01*
Y580384D01*
X396240Y581654D01*
X394971D01*
X393701Y580384D01*
Y576576D01*
X373380Y562610D02*
X365762D01*
Y566419D01*
X367032Y567688D01*
X369571D01*
X370841Y566419D01*
Y562610D01*
Y565149D02*
X373380Y567688D01*
Y570228D02*
Y572767D01*
Y571497D01*
X365762D01*
X367032Y570228D01*
X365762Y576576D02*
Y581654D01*
X367032D01*
X372110Y576576D01*
X373380D01*
X871220Y219710D02*
Y227327D01*
X875029D01*
X876298Y226058D01*
Y223519D01*
X875029Y222249D01*
X871220D01*
X873759D02*
X876298Y219710D01*
X878838D02*
X881377D01*
X880107D01*
Y227327D01*
X878838Y226058D01*
X885185D02*
X886455Y227327D01*
X888994D01*
X890264Y226058D01*
Y224788D01*
X888994Y223519D01*
X890264Y222249D01*
Y220980D01*
X888994Y219710D01*
X886455D01*
X885185Y220980D01*
Y222249D01*
X886455Y223519D01*
X885185Y224788D01*
Y226058D01*
X886455Y223519D02*
X888994D01*
X858520Y21590D02*
X850902D01*
Y25399D01*
X852172Y26668D01*
X854711D01*
X855981Y25399D01*
Y21590D01*
Y24129D02*
X858520Y26668D01*
Y29207D02*
Y31747D01*
Y30477D01*
X850902D01*
X852172Y29207D01*
X857250Y35556D02*
X858520Y36825D01*
Y39364D01*
X857250Y40634D01*
X852172D01*
X850902Y39364D01*
Y36825D01*
X852172Y35556D01*
X853442D01*
X854711Y36825D01*
Y40634D01*
X871220Y242570D02*
Y250187D01*
X875029D01*
X876298Y248918D01*
Y246379D01*
X875029Y245109D01*
X871220D01*
X873759D02*
X876298Y242570D01*
X883916D02*
X878838D01*
X883916Y247648D01*
Y248918D01*
X882646Y250187D01*
X880107D01*
X878838Y248918D01*
X886455D02*
X887725Y250187D01*
X890264D01*
X891533Y248918D01*
Y243840D01*
X890264Y242570D01*
X887725D01*
X886455Y243840D01*
Y248918D01*
X411480Y469900D02*
X403862D01*
Y473709D01*
X405132Y474978D01*
X407671D01*
X408941Y473709D01*
Y469900D01*
Y472439D02*
X411480Y474978D01*
Y482596D02*
Y477518D01*
X406402Y482596D01*
X405132D01*
X403862Y481326D01*
Y478787D01*
X405132Y477518D01*
X411480Y485135D02*
Y487674D01*
Y486405D01*
X403862D01*
X405132Y485135D01*
X386080Y462280D02*
X378462D01*
Y466089D01*
X379732Y467358D01*
X382271D01*
X383541Y466089D01*
Y462280D01*
Y464819D02*
X386080Y467358D01*
Y474976D02*
Y469897D01*
X381002Y474976D01*
X379732D01*
X378462Y473706D01*
Y471167D01*
X379732Y469897D01*
X386080Y482593D02*
Y477515D01*
X381002Y482593D01*
X379732D01*
X378462Y481324D01*
Y478785D01*
X379732Y477515D01*
X365760Y461010D02*
X358143D01*
Y464819D01*
X359412Y466088D01*
X361951D01*
X363221Y464819D01*
Y461010D01*
Y463549D02*
X365760Y466088D01*
Y473706D02*
Y468628D01*
X360682Y473706D01*
X359412D01*
X358143Y472436D01*
Y469897D01*
X359412Y468628D01*
Y476245D02*
X358143Y477515D01*
Y480054D01*
X359412Y481323D01*
X360682D01*
X361951Y480054D01*
Y478784D01*
Y480054D01*
X363221Y481323D01*
X364490D01*
X365760Y480054D01*
Y477515D01*
X364490Y476245D01*
X871220Y264160D02*
Y271777D01*
X875029D01*
X876298Y270508D01*
Y267969D01*
X875029Y266699D01*
X871220D01*
X873759D02*
X876298Y264160D01*
X883916D02*
X878838D01*
X883916Y269238D01*
Y270508D01*
X882646Y271777D01*
X880107D01*
X878838Y270508D01*
X890264Y264160D02*
Y271777D01*
X886455Y267969D01*
X891533D01*
X871220Y287020D02*
Y294638D01*
X875029D01*
X876298Y293368D01*
Y290829D01*
X875029Y289559D01*
X871220D01*
X873759D02*
X876298Y287020D01*
X883916D02*
X878838D01*
X883916Y292098D01*
Y293368D01*
X882646Y294638D01*
X880107D01*
X878838Y293368D01*
X891533Y294638D02*
X886455D01*
Y290829D01*
X888994Y292098D01*
X890264D01*
X891533Y290829D01*
Y288290D01*
X890264Y287020D01*
X887725D01*
X886455Y288290D01*
X859790Y116840D02*
X852172D01*
Y120649D01*
X853442Y121918D01*
X855981D01*
X857251Y120649D01*
Y116840D01*
Y119379D02*
X859790Y121918D01*
Y129536D02*
Y124458D01*
X854712Y129536D01*
X853442D01*
X852172Y128266D01*
Y125727D01*
X853442Y124458D01*
X852172Y137153D02*
X853442Y134614D01*
X855981Y132075D01*
X858520D01*
X859790Y133345D01*
Y135884D01*
X858520Y137153D01*
X857251D01*
X855981Y135884D01*
Y132075D01*
X871220Y308610D02*
Y316227D01*
X875029D01*
X876298Y314958D01*
Y312419D01*
X875029Y311149D01*
X871220D01*
X873759D02*
X876298Y308610D01*
X883916D02*
X878838D01*
X883916Y313688D01*
Y314958D01*
X882646Y316227D01*
X880107D01*
X878838Y314958D01*
X886455Y316227D02*
X891533D01*
Y314958D01*
X886455Y309880D01*
Y308610D01*
X871220Y331470D02*
Y339087D01*
X875029D01*
X876298Y337818D01*
Y335279D01*
X875029Y334009D01*
X871220D01*
X873759D02*
X876298Y331470D01*
X883916D02*
X878838D01*
X883916Y336548D01*
Y337818D01*
X882646Y339087D01*
X880107D01*
X878838Y337818D01*
X886455D02*
X887725Y339087D01*
X890264D01*
X891533Y337818D01*
Y336548D01*
X890264Y335279D01*
X891533Y334009D01*
Y332740D01*
X890264Y331470D01*
X887725D01*
X886455Y332740D01*
Y334009D01*
X887725Y335279D01*
X886455Y336548D01*
Y337818D01*
X887725Y335279D02*
X890264D01*
X858520Y427990D02*
X850902D01*
Y431799D01*
X852172Y433068D01*
X854711D01*
X855981Y431799D01*
Y427990D01*
Y430529D02*
X858520Y433068D01*
Y440686D02*
Y435607D01*
X853442Y440686D01*
X852172D01*
X850902Y439416D01*
Y436877D01*
X852172Y435607D01*
X857250Y443225D02*
X858520Y444495D01*
Y447034D01*
X857250Y448303D01*
X852172D01*
X850902Y447034D01*
Y444495D01*
X852172Y443225D01*
X853442D01*
X854711Y444495D01*
Y448303D01*
X871220Y354330D02*
Y361948D01*
X875029D01*
X876298Y360678D01*
Y358139D01*
X875029Y356869D01*
X871220D01*
X873759D02*
X876298Y354330D01*
X878838Y360678D02*
X880107Y361948D01*
X882646D01*
X883916Y360678D01*
Y359408D01*
X882646Y358139D01*
X881377D01*
X882646D01*
X883916Y356869D01*
Y355600D01*
X882646Y354330D01*
X880107D01*
X878838Y355600D01*
X886455Y360678D02*
X887725Y361948D01*
X890264D01*
X891533Y360678D01*
Y355600D01*
X890264Y354330D01*
X887725D01*
X886455Y355600D01*
Y360678D01*
X871220Y374748D02*
Y382365D01*
X875029D01*
X876298Y381096D01*
Y378556D01*
X875029Y377287D01*
X871220D01*
X873759D02*
X876298Y374748D01*
X878838Y381096D02*
X880107Y382365D01*
X882646D01*
X883916Y381096D01*
Y379826D01*
X882646Y378556D01*
X881377D01*
X882646D01*
X883916Y377287D01*
Y376017D01*
X882646Y374748D01*
X880107D01*
X878838Y376017D01*
X886455Y374748D02*
X888994D01*
X887725D01*
Y382365D01*
X886455Y381096D01*
X857250Y523240D02*
X849632D01*
Y527049D01*
X850902Y528318D01*
X853441D01*
X854711Y527049D01*
Y523240D01*
Y525779D02*
X857250Y528318D01*
X850902Y530858D02*
X849632Y532127D01*
Y534666D01*
X850902Y535936D01*
X852172D01*
X853441Y534666D01*
Y533397D01*
Y534666D01*
X854711Y535936D01*
X855980D01*
X857250Y534666D01*
Y532127D01*
X855980Y530858D01*
X857250Y543553D02*
Y538475D01*
X852172Y543553D01*
X850902D01*
X849632Y542284D01*
Y539745D01*
X850902Y538475D01*
X54610Y387350D02*
X46993D01*
Y391159D01*
X48262Y392428D01*
X50801D01*
X52071Y391159D01*
Y387350D01*
Y389889D02*
X54610Y392428D01*
X48262Y394967D02*
X46993Y396237D01*
Y398776D01*
X48262Y400046D01*
X49532D01*
X50801Y398776D01*
Y397507D01*
Y398776D01*
X52071Y400046D01*
X53340D01*
X54610Y398776D01*
Y396237D01*
X53340Y394967D01*
X48262Y402585D02*
X46993Y403855D01*
Y406394D01*
X48262Y407663D01*
X49532D01*
X50801Y406394D01*
Y405124D01*
Y406394D01*
X52071Y407663D01*
X53340D01*
X54610Y406394D01*
Y403855D01*
X53340Y402585D01*
X140970Y562610D02*
X133352D01*
Y566419D01*
X134622Y567688D01*
X137161D01*
X138431Y566419D01*
Y562610D01*
Y565149D02*
X140970Y567688D01*
X134622Y570228D02*
X133352Y571497D01*
Y574036D01*
X134622Y575306D01*
X135892D01*
X137161Y574036D01*
Y572767D01*
Y574036D01*
X138431Y575306D01*
X139700D01*
X140970Y574036D01*
Y571497D01*
X139700Y570228D01*
X140970Y581654D02*
X133352D01*
X137161Y577845D01*
Y582923D01*
X375922Y411478D02*
X374652Y410209D01*
Y407670D01*
X375922Y406400D01*
X377192D01*
X378461Y407670D01*
Y410209D01*
X379731Y411478D01*
X381000D01*
X382270Y410209D01*
Y407670D01*
X381000Y406400D01*
X374652Y414017D02*
X382270D01*
X379731Y416557D01*
X382270Y419096D01*
X374652D01*
X382270Y425444D02*
X374652D01*
X378461Y421635D01*
Y426713D01*
X544990Y411948D02*
Y405600D01*
X546260Y404330D01*
X548799D01*
X550068Y405600D01*
Y411948D01*
X552607Y404330D02*
X555147D01*
X553877D01*
Y411948D01*
X552607Y410678D01*
X308610Y243838D02*
X311149D01*
X309880D01*
Y236220D01*
X308610D01*
X311149D01*
X320036Y242568D02*
X318767Y243838D01*
X316227D01*
X314958Y242568D01*
Y237490D01*
X316227Y236220D01*
X318767D01*
X320036Y237490D01*
X326384Y236220D02*
Y243838D01*
X322575Y240029D01*
X327654D01*
X735330Y143507D02*
Y135890D01*
X739139D01*
X740408Y137160D01*
Y142238D01*
X739139Y143507D01*
X735330D01*
X742947Y135890D02*
X745487D01*
X744217D01*
Y143507D01*
X742947Y142238D01*
X749296D02*
X750565Y143507D01*
X753104D01*
X754374Y142238D01*
Y137160D01*
X753104Y135890D01*
X750565D01*
X749296Y137160D01*
Y142238D01*
X791210Y105410D02*
Y113027D01*
X795019D01*
X796288Y111758D01*
Y109219D01*
X795019Y107949D01*
X791210D01*
X798828Y113027D02*
Y105410D01*
X801367Y107949D01*
X803906Y105410D01*
Y113027D01*
X806445Y105410D02*
Y113027D01*
X808984Y110488D01*
X811523Y113027D01*
Y105410D01*
X814063Y104140D02*
X819141D01*
X826758Y111758D02*
X825489Y113027D01*
X822950D01*
X821680Y111758D01*
Y110488D01*
X822950Y109219D01*
X825489D01*
X826758Y107949D01*
Y106680D01*
X825489Y105410D01*
X822950D01*
X821680Y106680D01*
X829298Y105410D02*
Y113027D01*
X831837Y110488D01*
X834376Y113027D01*
Y105410D01*
X836915D02*
Y110488D01*
X839454Y113027D01*
X841994Y110488D01*
Y105410D01*
Y109219D01*
X836915D01*
X584200Y113027D02*
Y105410D01*
X588009D01*
X589278Y106680D01*
Y111758D01*
X588009Y113027D01*
X584200D01*
X591818D02*
X594357D01*
X593087D01*
Y105410D01*
X591818D01*
X594357D01*
X603244Y113027D02*
X598166D01*
Y109219D01*
X600705D01*
X598166D01*
Y105410D01*
X605783Y104140D02*
X610861D01*
X618479Y111758D02*
X617209Y113027D01*
X614670D01*
X613401Y111758D01*
Y110488D01*
X614670Y109219D01*
X617209D01*
X618479Y107949D01*
Y106680D01*
X617209Y105410D01*
X614670D01*
X613401Y106680D01*
X621018Y105410D02*
Y113027D01*
X623557Y110488D01*
X626096Y113027D01*
Y105410D01*
X628636D02*
Y110488D01*
X631175Y113027D01*
X633714Y110488D01*
Y105410D01*
Y109219D01*
X628636D01*
X271780Y114298D02*
Y106680D01*
X275589D01*
X276858Y107950D01*
Y113028D01*
X275589Y114298D01*
X271780D01*
X279398Y106680D02*
Y111758D01*
X281937Y114298D01*
X284476Y111758D01*
Y106680D01*
Y110489D01*
X279398D01*
X292093Y113028D02*
X290824Y114298D01*
X288285D01*
X287015Y113028D01*
Y107950D01*
X288285Y106680D01*
X290824D01*
X292093Y107950D01*
X294633Y105410D02*
X299711D01*
X307328Y113028D02*
X306059Y114298D01*
X303520D01*
X302250Y113028D01*
Y111758D01*
X303520Y110489D01*
X306059D01*
X307328Y109219D01*
Y107950D01*
X306059Y106680D01*
X303520D01*
X302250Y107950D01*
X309868Y106680D02*
Y114298D01*
X312407Y111758D01*
X314946Y114298D01*
Y106680D01*
X317485D02*
Y111758D01*
X320024Y114298D01*
X322564Y111758D01*
Y106680D01*
Y110489D01*
X317485D01*
X673100Y11430D02*
Y19047D01*
X676909D01*
X678178Y17778D01*
Y15239D01*
X676909Y13969D01*
X673100D01*
X680717Y19047D02*
Y11430D01*
X683257Y13969D01*
X685796Y11430D01*
Y19047D01*
X688335Y11430D02*
Y19047D01*
X690874Y16508D01*
X693413Y19047D01*
Y11430D01*
X695953Y10160D02*
X701031D01*
X707379Y19047D02*
X704840D01*
X703570Y17778D01*
Y12700D01*
X704840Y11430D01*
X707379D01*
X708649Y12700D01*
Y17778D01*
X707379Y19047D01*
X711188D02*
Y12700D01*
X712457Y11430D01*
X714996D01*
X716266Y12700D01*
Y19047D01*
X718805D02*
X723884D01*
X721344D01*
Y11430D01*
X646430Y123190D02*
Y130808D01*
X650239D01*
X651508Y129538D01*
Y126999D01*
X650239Y125729D01*
X646430D01*
X654047Y130808D02*
Y123190D01*
X656587Y125729D01*
X659126Y123190D01*
Y130808D01*
X661665Y123190D02*
Y130808D01*
X664204Y128268D01*
X666743Y130808D01*
Y123190D01*
X669283Y121920D02*
X674361D01*
X676900Y123190D02*
Y130808D01*
X680709D01*
X681979Y129538D01*
Y126999D01*
X680709Y125729D01*
X676900D01*
X684518Y130808D02*
X687057D01*
X685787D01*
Y123190D01*
X684518D01*
X687057D01*
X690866D02*
Y130808D01*
X695944Y123190D01*
Y130808D01*
X614683Y466090D02*
X622300D01*
Y471168D01*
Y473708D02*
Y476247D01*
Y474977D01*
X614683D01*
X615952Y473708D01*
X614683Y480056D02*
Y485134D01*
X615952D01*
X621030Y480056D01*
X622300D01*
X614683Y487673D02*
X622300D01*
Y491482D01*
X621030Y492751D01*
X619761D01*
X618491Y491482D01*
Y487673D01*
Y491482D01*
X617222Y492751D01*
X615952D01*
X614683Y491482D01*
Y487673D01*
X589282Y466090D02*
X596900D01*
Y471168D01*
Y473708D02*
Y476247D01*
Y474977D01*
X589282D01*
X590552Y473708D01*
Y480056D02*
X589282Y481325D01*
Y483864D01*
X590552Y485134D01*
X591822D01*
X593091Y483864D01*
X594361Y485134D01*
X595630D01*
X596900Y483864D01*
Y481325D01*
X595630Y480056D01*
X594361D01*
X593091Y481325D01*
X591822Y480056D01*
X590552D01*
X593091Y481325D02*
Y483864D01*
X589282Y487673D02*
X596900D01*
Y491482D01*
X595630Y492751D01*
X594361D01*
X593091Y491482D01*
Y487673D01*
Y491482D01*
X591822Y492751D01*
X590552D01*
X589282Y491482D01*
Y487673D01*
X563882Y464820D02*
X571500D01*
Y469898D01*
Y477516D02*
Y472438D01*
X566422Y477516D01*
X565152D01*
X563882Y476246D01*
Y473707D01*
X565152Y472438D01*
Y480055D02*
X563882Y481325D01*
Y483864D01*
X565152Y485133D01*
X566422D01*
X567691Y483864D01*
Y482594D01*
Y483864D01*
X568961Y485133D01*
X570230D01*
X571500Y483864D01*
Y481325D01*
X570230Y480055D01*
X563882Y487673D02*
X571500D01*
Y491481D01*
X570230Y492751D01*
X568961D01*
X567691Y491481D01*
Y487673D01*
Y491481D01*
X566422Y492751D01*
X565152D01*
X563882Y491481D01*
Y487673D01*
Y562610D02*
X571500D01*
Y567688D01*
Y575306D02*
Y570228D01*
X566422Y575306D01*
X565152D01*
X563882Y574036D01*
Y571497D01*
X565152Y570228D01*
Y577845D02*
X563882Y579115D01*
Y581654D01*
X565152Y582923D01*
X566422D01*
X567691Y581654D01*
Y580384D01*
Y581654D01*
X568961Y582923D01*
X570230D01*
X571500Y581654D01*
Y579115D01*
X570230Y577845D01*
X571500Y585463D02*
X566422D01*
X563882Y588002D01*
X566422Y590541D01*
X571500D01*
X567691D01*
Y585463D01*
X589282Y562610D02*
X596900D01*
Y567688D01*
Y570228D02*
Y572767D01*
Y571497D01*
X589282D01*
X590552Y570228D01*
Y576576D02*
X589282Y577845D01*
Y580384D01*
X590552Y581654D01*
X591822D01*
X593091Y580384D01*
X594361Y581654D01*
X595630D01*
X596900Y580384D01*
Y577845D01*
X595630Y576576D01*
X594361D01*
X593091Y577845D01*
X591822Y576576D01*
X590552D01*
X593091Y577845D02*
Y580384D01*
X596900Y584193D02*
X591822D01*
X589282Y586732D01*
X591822Y589271D01*
X596900D01*
X593091D01*
Y584193D01*
X614683Y562610D02*
X622300D01*
Y567688D01*
Y570228D02*
Y572767D01*
Y571497D01*
X614683D01*
X615952Y570228D01*
X614683Y576576D02*
Y581654D01*
X615952D01*
X621030Y576576D01*
X622300D01*
Y584193D02*
X617222D01*
X614683Y586732D01*
X617222Y589271D01*
X622300D01*
X618491D01*
Y584193D01*
X640082Y466090D02*
X647700D01*
Y471168D01*
Y473708D02*
Y476247D01*
Y474977D01*
X640082D01*
X641352Y473708D01*
X647700Y485134D02*
Y480056D01*
X642622Y485134D01*
X641352D01*
X640082Y483864D01*
Y481325D01*
X641352Y480056D01*
X640082Y487673D02*
X647700D01*
Y491482D01*
X646430Y492751D01*
X645161D01*
X643891Y491482D01*
Y487673D01*
Y491482D01*
X642622Y492751D01*
X641352D01*
X640082Y491482D01*
Y487673D01*
X665482Y466090D02*
X673100D01*
Y471168D01*
Y473708D02*
Y476247D01*
Y474977D01*
X665482D01*
X666752Y473708D01*
Y480056D02*
X665482Y481325D01*
Y483864D01*
X666752Y485134D01*
X671830D01*
X673100Y483864D01*
Y481325D01*
X671830Y480056D01*
X666752D01*
X665482Y487673D02*
X673100D01*
Y491482D01*
X671830Y492751D01*
X670561D01*
X669291Y491482D01*
Y487673D01*
Y491482D01*
X668022Y492751D01*
X666752D01*
X665482Y491482D01*
Y487673D01*
X690882Y472440D02*
X698500D01*
Y477518D01*
X692152Y480057D02*
X690882Y481327D01*
Y483866D01*
X692152Y485136D01*
X693422D01*
X694691Y483866D01*
X695961Y485136D01*
X697230D01*
X698500Y483866D01*
Y481327D01*
X697230Y480057D01*
X695961D01*
X694691Y481327D01*
X693422Y480057D01*
X692152D01*
X694691Y481327D02*
Y483866D01*
X690882Y487675D02*
X698500D01*
Y491484D01*
X697230Y492753D01*
X695961D01*
X694691Y491484D01*
Y487675D01*
Y491484D01*
X693422Y492753D01*
X692152D01*
X690882Y491484D01*
Y487675D01*
X716283Y472440D02*
X723900D01*
Y477518D01*
X716283Y485136D02*
Y480057D01*
X720091D01*
X718822Y482597D01*
Y483866D01*
X720091Y485136D01*
X722630D01*
X723900Y483866D01*
Y481327D01*
X722630Y480057D01*
X716283Y487675D02*
X723900D01*
Y491484D01*
X722630Y492753D01*
X721361D01*
X720091Y491484D01*
Y487675D01*
Y491484D01*
X718822Y492753D01*
X717552D01*
X716283Y491484D01*
Y487675D01*
X741683Y562610D02*
X749300D01*
Y567688D01*
Y574036D02*
X741683D01*
X745491Y570228D01*
Y575306D01*
X749300Y577845D02*
X744222D01*
X741683Y580384D01*
X744222Y582923D01*
X749300D01*
X745491D01*
Y577845D01*
X640082Y562610D02*
X647700D01*
Y567688D01*
Y570228D02*
Y572767D01*
Y571497D01*
X640082D01*
X641352Y570228D01*
X647700Y581654D02*
Y576576D01*
X642622Y581654D01*
X641352D01*
X640082Y580384D01*
Y577845D01*
X641352Y576576D01*
X647700Y584193D02*
X642622D01*
X640082Y586732D01*
X642622Y589271D01*
X647700D01*
X643891D01*
Y584193D01*
X664212Y562610D02*
X671830D01*
Y567688D01*
Y570228D02*
Y572767D01*
Y571497D01*
X664212D01*
X665482Y570228D01*
Y576576D02*
X664212Y577845D01*
Y580384D01*
X665482Y581654D01*
X670560D01*
X671830Y580384D01*
Y577845D01*
X670560Y576576D01*
X665482D01*
X671830Y584193D02*
X666752D01*
X664212Y586732D01*
X666752Y589271D01*
X671830D01*
X668021D01*
Y584193D01*
X690882Y562610D02*
X698500D01*
Y567688D01*
X692152Y570228D02*
X690882Y571497D01*
Y574036D01*
X692152Y575306D01*
X693422D01*
X694691Y574036D01*
X695961Y575306D01*
X697230D01*
X698500Y574036D01*
Y571497D01*
X697230Y570228D01*
X695961D01*
X694691Y571497D01*
X693422Y570228D01*
X692152D01*
X694691Y571497D02*
Y574036D01*
X698500Y577845D02*
X693422D01*
X690882Y580384D01*
X693422Y582923D01*
X698500D01*
X694691D01*
Y577845D01*
X716283Y562610D02*
X723900D01*
Y567688D01*
X716283Y575306D02*
Y570228D01*
X720091D01*
X718822Y572767D01*
Y574036D01*
X720091Y575306D01*
X722630D01*
X723900Y574036D01*
Y571497D01*
X722630Y570228D01*
X723900Y577845D02*
X718822D01*
X716283Y580384D01*
X718822Y582923D01*
X723900D01*
X720091D01*
Y577845D01*
X795021Y560070D02*
Y565148D01*
X792482Y562609D02*
X797560D01*
X791212Y572766D02*
Y567687D01*
X795021D01*
X793752Y570227D01*
Y571496D01*
X795021Y572766D01*
X797560D01*
X798830Y571496D01*
Y568957D01*
X797560Y567687D01*
X791212Y575305D02*
X796291D01*
X798830Y577844D01*
X796291Y580383D01*
X791212D01*
X770891Y560070D02*
Y565148D01*
X768352Y562609D02*
X773430D01*
X768352Y567687D02*
X767083Y568957D01*
Y571496D01*
X768352Y572766D01*
X769622D01*
X770891Y571496D01*
Y570227D01*
Y571496D01*
X772161Y572766D01*
X773430D01*
X774700Y571496D01*
Y568957D01*
X773430Y567687D01*
X767083Y575305D02*
X772161D01*
X774700Y577844D01*
X772161Y580383D01*
X767083D01*
X768352Y582923D02*
X767083Y584192D01*
Y586731D01*
X768352Y588001D01*
X769622D01*
X770891Y586731D01*
Y585462D01*
Y586731D01*
X772161Y588001D01*
X773430D01*
X774700Y586731D01*
Y584192D01*
X773430Y582923D01*
X740413Y472440D02*
X748030D01*
Y477518D01*
Y483866D02*
X740413D01*
X744221Y480057D01*
Y485136D01*
X740413Y487675D02*
X748030D01*
Y491484D01*
X746760Y492753D01*
X745491D01*
X744221Y491484D01*
Y487675D01*
Y491484D01*
X742952Y492753D01*
X741682D01*
X740413Y491484D01*
Y487675D01*
X539752Y567688D02*
X538483Y566419D01*
Y563880D01*
X539752Y562610D01*
X544830D01*
X546100Y563880D01*
Y566419D01*
X544830Y567688D01*
X542291D01*
Y565149D01*
X546100Y570228D02*
X538483D01*
X546100Y575306D01*
X538483D01*
Y577845D02*
X546100D01*
Y581654D01*
X544830Y582923D01*
X539752D01*
X538483Y581654D01*
Y577845D01*
X514352Y567688D02*
X513083Y566419D01*
Y563880D01*
X514352Y562610D01*
X519430D01*
X520700Y563880D01*
Y566419D01*
X519430Y567688D01*
X516891D01*
Y565149D01*
X520700Y570228D02*
X513083D01*
X520700Y575306D01*
X513083D01*
Y577845D02*
X520700D01*
Y581654D01*
X519430Y582923D01*
X514352D01*
X513083Y581654D01*
Y577845D01*
X539752Y477518D02*
X538483Y476249D01*
Y473710D01*
X539752Y472440D01*
X544830D01*
X546100Y473710D01*
Y476249D01*
X544830Y477518D01*
X542291D01*
Y474979D01*
X546100Y480057D02*
X538483D01*
X546100Y485136D01*
X538483D01*
Y487675D02*
X546100D01*
Y491484D01*
X544830Y492753D01*
X539752D01*
X538483Y491484D01*
Y487675D01*
X514352Y477518D02*
X513083Y476249D01*
Y473710D01*
X514352Y472440D01*
X519430D01*
X520700Y473710D01*
Y476249D01*
X519430Y477518D01*
X516891D01*
Y474979D01*
X520700Y480057D02*
X513083D01*
X520700Y485136D01*
X513083D01*
Y487675D02*
X520700D01*
Y491484D01*
X519430Y492753D01*
X514352D01*
X513083Y491484D01*
Y487675D01*
X209552Y411480D02*
Y418251D01*
X206166Y414866D02*
X212937D01*
X238762Y412750D02*
Y419521D01*
X235376Y416136D02*
X242147D01*
X468632Y276860D02*
Y283631D01*
X465246Y280246D02*
X472017D01*
X781052Y259080D02*
Y265851D01*
X777666Y262466D02*
X784437D01*
X482602Y15240D02*
Y22011D01*
X479216Y18626D02*
X485987D01*
X454662Y15240D02*
Y22011D01*
X451276Y18626D02*
X458047D01*
X82552Y316230D02*
X88900D01*
X90170Y317500D01*
Y320039D01*
X88900Y321308D01*
X82552D01*
X83822Y328926D02*
X82552Y327656D01*
Y325117D01*
X83822Y323848D01*
X85092D01*
X86361Y325117D01*
Y327656D01*
X87631Y328926D01*
X88900D01*
X90170Y327656D01*
Y325117D01*
X88900Y323848D01*
X82552Y331465D02*
X90170D01*
Y335274D01*
X88900Y336543D01*
X87631D01*
X86361Y335274D01*
Y331465D01*
Y335274D01*
X85092Y336543D01*
X83822D01*
X82552Y335274D01*
Y331465D01*
X91440Y339083D02*
Y344161D01*
X82552Y346700D02*
X90170D01*
Y350509D01*
X88900Y351778D01*
X87631D01*
X86361Y350509D01*
Y346700D01*
Y350509D01*
X85092Y351778D01*
X83822D01*
X82552Y350509D01*
Y346700D01*
Y354318D02*
X88900D01*
X90170Y355587D01*
Y358126D01*
X88900Y359396D01*
X82552D01*
X83822Y367014D02*
X82552Y365744D01*
Y363205D01*
X83822Y361935D01*
X85092D01*
X86361Y363205D01*
Y365744D01*
X87631Y367014D01*
X88900D01*
X90170Y365744D01*
Y363205D01*
X88900Y361935D01*
X538480Y153667D02*
Y148589D01*
X541019Y146050D01*
X543558Y148589D01*
Y153667D01*
X546097Y146050D02*
Y153667D01*
X549906D01*
X551176Y152398D01*
Y149859D01*
X549906Y148589D01*
X546097D01*
X548637D02*
X551176Y146050D01*
X558793Y153667D02*
X553715D01*
Y146050D01*
X558793D01*
X553715Y149859D02*
X556254D01*
X566411Y153667D02*
X561333D01*
Y149859D01*
X563872D01*
X561333D01*
Y146050D01*
X124460Y464819D02*
X129538D01*
X126999Y467358D02*
Y462280D01*
X137156Y468628D02*
X132078D01*
Y464819D01*
X134617Y466088D01*
X135886D01*
X137156Y464819D01*
Y462280D01*
X135886Y461010D01*
X133347D01*
X132078Y462280D01*
X139695Y468628D02*
Y463549D01*
X142234Y461010D01*
X144773Y463549D01*
Y468628D01*
X120650Y515619D02*
X125728D01*
X123189Y518158D02*
Y513080D01*
X128267Y518158D02*
X129537Y519427D01*
X132076D01*
X133346Y518158D01*
Y516888D01*
X132076Y515619D01*
X130807D01*
X132076D01*
X133346Y514349D01*
Y513080D01*
X132076Y511810D01*
X129537D01*
X128267Y513080D01*
X135885Y519427D02*
Y514349D01*
X138424Y511810D01*
X140963Y514349D01*
Y519427D01*
X143503Y518158D02*
X144772Y519427D01*
X147311D01*
X148581Y518158D01*
Y516888D01*
X147311Y515619D01*
X146042D01*
X147311D01*
X148581Y514349D01*
Y513080D01*
X147311Y511810D01*
X144772D01*
X143503Y513080D01*
X307340Y462279D02*
X312418D01*
X309879Y464818D02*
Y459740D01*
X314958Y458470D02*
X317497D01*
X316227D01*
Y466087D01*
X314958Y464818D01*
X321306Y466087D02*
Y461009D01*
X323845Y458470D01*
X326384Y461009D01*
Y466087D01*
X334001Y458470D02*
X328923D01*
X334001Y463548D01*
Y464818D01*
X332732Y466087D01*
X330193D01*
X328923Y464818D01*
X99060Y252730D02*
X91442D01*
Y256539D01*
X92712Y257808D01*
X95251D01*
X96521Y256539D01*
Y252730D01*
X92712Y265426D02*
X91442Y264156D01*
Y261617D01*
X92712Y260347D01*
X97790D01*
X99060Y261617D01*
Y264156D01*
X97790Y265426D01*
X95251D01*
Y262887D01*
X99060Y267965D02*
X91442D01*
X99060Y273043D01*
X91442D01*
Y275583D02*
X99060D01*
Y279391D01*
X97790Y280661D01*
X92712D01*
X91442Y279391D01*
Y275583D01*
X126998Y172718D02*
X125729Y173988D01*
X123190D01*
X121920Y172718D01*
Y167640D01*
X123190Y166370D01*
X125729D01*
X126998Y167640D01*
Y170179D01*
X124459D01*
X129537Y166370D02*
Y173988D01*
X134616Y166370D01*
Y173988D01*
X137155D02*
Y166370D01*
X140964D01*
X142233Y167640D01*
Y172718D01*
X140964Y173988D01*
X137155D01*
X349250Y109220D02*
Y114298D01*
X351789Y116838D01*
X354328Y114298D01*
Y109220D01*
Y113029D01*
X349250D01*
X361946Y115568D02*
X360676Y116838D01*
X358137D01*
X356867Y115568D01*
Y110490D01*
X358137Y109220D01*
X360676D01*
X361946Y110490D01*
Y113029D01*
X359407D01*
X364485Y109220D02*
Y116838D01*
X369563Y109220D01*
Y116838D01*
X372103D02*
Y109220D01*
X375911D01*
X377181Y110490D01*
Y115568D01*
X375911Y116838D01*
X372103D01*
X807720Y193039D02*
X812798D01*
X810259Y195578D02*
Y190500D01*
X815338Y189230D02*
X817877D01*
X816607D01*
Y196847D01*
X815338Y195578D01*
X821685Y196847D02*
Y191769D01*
X824225Y189230D01*
X826764Y191769D01*
Y196847D01*
X834381Y189230D02*
X829303D01*
X834381Y194308D01*
Y195578D01*
X833112Y196847D01*
X830573D01*
X829303Y195578D01*
X806450Y354329D02*
X811528D01*
X808989Y356868D02*
Y351790D01*
X814068Y356868D02*
X815337Y358138D01*
X817876D01*
X819146Y356868D01*
Y355598D01*
X817876Y354329D01*
X816607D01*
X817876D01*
X819146Y353059D01*
Y351790D01*
X817876Y350520D01*
X815337D01*
X814068Y351790D01*
X821685Y358138D02*
Y353059D01*
X824224Y350520D01*
X826763Y353059D01*
Y358138D01*
X829303Y356868D02*
X830572Y358138D01*
X833111D01*
X834381Y356868D01*
Y355598D01*
X833111Y354329D01*
X831842D01*
X833111D01*
X834381Y353059D01*
Y351790D01*
X833111Y350520D01*
X830572D01*
X829303Y351790D01*
X689610Y100329D02*
X694688D01*
X692149Y102868D02*
Y97790D01*
X697227Y102868D02*
X698497Y104137D01*
X701036D01*
X702306Y102868D01*
Y101598D01*
X701036Y100329D01*
X699767D01*
X701036D01*
X702306Y99059D01*
Y97790D01*
X701036Y96520D01*
X698497D01*
X697227Y97790D01*
X704845Y104137D02*
Y99059D01*
X707384Y96520D01*
X709923Y99059D01*
Y104137D01*
X712463Y102868D02*
X713732Y104137D01*
X716271D01*
X717541Y102868D01*
Y101598D01*
X716271Y100329D01*
X715002D01*
X716271D01*
X717541Y99059D01*
Y97790D01*
X716271Y96520D01*
X713732D01*
X712463Y97790D01*
X796291Y472440D02*
Y477518D01*
X793752Y474979D02*
X798830D01*
X792483Y485136D02*
Y480057D01*
X796291D01*
X795022Y482597D01*
Y483866D01*
X796291Y485136D01*
X798830D01*
X800100Y483866D01*
Y481327D01*
X798830Y480057D01*
X792483Y487675D02*
X797561D01*
X800100Y490214D01*
X797561Y492753D01*
X792483D01*
X769621Y464820D02*
Y469898D01*
X767082Y467359D02*
X772160D01*
X767082Y472438D02*
X765813Y473707D01*
Y476246D01*
X767082Y477516D01*
X768352D01*
X769621Y476246D01*
Y474977D01*
Y476246D01*
X770891Y477516D01*
X772160D01*
X773430Y476246D01*
Y473707D01*
X772160Y472438D01*
X765813Y480055D02*
X770891D01*
X773430Y482594D01*
X770891Y485133D01*
X765813D01*
X767082Y487673D02*
X765813Y488942D01*
Y491481D01*
X767082Y492751D01*
X768352D01*
X769621Y491481D01*
Y490212D01*
Y491481D01*
X770891Y492751D01*
X772160D01*
X773430Y491481D01*
Y488942D01*
X772160Y487673D01*
X727710Y440689D02*
X732788D01*
X730249Y443228D02*
Y438150D01*
X735328Y443228D02*
X736597Y444497D01*
X739136D01*
X740406Y443228D01*
Y441958D01*
X739136Y440689D01*
X737867D01*
X739136D01*
X740406Y439419D01*
Y438150D01*
X739136Y436880D01*
X736597D01*
X735328Y438150D01*
X742945Y444497D02*
Y439419D01*
X745484Y436880D01*
X748023Y439419D01*
Y444497D01*
X750563Y443228D02*
X751832Y444497D01*
X754371D01*
X755641Y443228D01*
Y441958D01*
X754371Y440689D01*
X753102D01*
X754371D01*
X755641Y439419D01*
Y438150D01*
X754371Y436880D01*
X751832D01*
X750563Y438150D01*
X364492Y29210D02*
X372110D01*
Y33019D01*
X370840Y34288D01*
X365762D01*
X364492Y33019D01*
Y29210D01*
X372110Y36827D02*
X367032D01*
X364492Y39367D01*
X367032Y41906D01*
X372110D01*
X368301D01*
Y36827D01*
X365762Y49523D02*
X364492Y48254D01*
Y45715D01*
X365762Y44445D01*
X370840D01*
X372110Y45715D01*
Y48254D01*
X370840Y49523D01*
X373380Y52063D02*
Y57141D01*
X364492Y63489D02*
Y60950D01*
X365762Y59680D01*
X370840D01*
X372110Y60950D01*
Y63489D01*
X370840Y64759D01*
X365762D01*
X364492Y63489D01*
Y67298D02*
X370840D01*
X372110Y68567D01*
Y71107D01*
X370840Y72376D01*
X364492D01*
Y74915D02*
Y79994D01*
Y77454D01*
X372110D01*
D46*
X306832Y195213D02*
Y200292D01*
X309371Y202831D01*
X311910Y200292D01*
Y195213D01*
Y199022D01*
X306832D01*
X316989Y192674D02*
X318258D01*
X319528Y193944D01*
Y200292D01*
X315719D01*
X314450Y199022D01*
Y196483D01*
X315719Y195213D01*
X319528D01*
X322067Y200292D02*
Y196483D01*
X323337Y195213D01*
X327145D01*
Y200292D01*
X329685Y195213D02*
X333493D01*
X334763Y196483D01*
X333493Y197752D01*
X330954D01*
X329685Y199022D01*
X330954Y200292D01*
X334763D01*
X338572Y201561D02*
Y200292D01*
X337302D01*
X339841D01*
X338572D01*
Y196483D01*
X339841Y195213D01*
X343650D02*
X346189D01*
X344920D01*
Y200292D01*
X343650D01*
X349998Y195213D02*
Y200292D01*
X353807D01*
X355076Y199022D01*
Y195213D01*
X365233Y202831D02*
Y195213D01*
X369042D01*
X370312Y196483D01*
Y201561D01*
X369042Y202831D01*
X365233D01*
X372851Y195213D02*
X375390D01*
X374120D01*
Y200292D01*
X372851D01*
X380468D02*
X383007D01*
X384277Y199022D01*
Y195213D01*
X380468D01*
X379199Y196483D01*
X380468Y197752D01*
X384277D01*
X386816Y200292D02*
X391894D01*
X386816Y195213D01*
X391894D01*
X402051D02*
Y200292D01*
X404590Y202831D01*
X407130Y200292D01*
Y195213D01*
Y199022D01*
X402051D01*
X409669Y195213D02*
Y200292D01*
X413478D01*
X414747Y199022D01*
Y195213D01*
X418556Y201561D02*
Y200292D01*
X417286D01*
X419825D01*
X418556D01*
Y196483D01*
X419825Y195213D01*
X423634Y200292D02*
Y196483D01*
X424904Y195213D01*
X428713D01*
Y200292D01*
X431252Y195213D02*
Y200292D01*
X435061D01*
X436330Y199022D01*
Y195213D01*
X440139Y200292D02*
X442678D01*
X443948Y199022D01*
Y195213D01*
X440139D01*
X438869Y196483D01*
X440139Y197752D01*
X443948D01*
X320798Y178656D02*
Y183734D01*
X323337Y186274D01*
X325876Y183734D01*
Y178656D01*
Y182465D01*
X320798D01*
X328415Y178656D02*
Y183734D01*
X332224D01*
X333493Y182465D01*
Y178656D01*
X341111Y186274D02*
Y178656D01*
X337302D01*
X336032Y179926D01*
Y182465D01*
X337302Y183734D01*
X341111D01*
X343650D02*
Y178656D01*
Y181195D01*
X344920Y182465D01*
X346189Y183734D01*
X347459D01*
X355076Y178656D02*
X352537D01*
X351268Y179926D01*
Y182465D01*
X352537Y183734D01*
X355076D01*
X356346Y182465D01*
Y181195D01*
X351268D01*
X358885Y178656D02*
X362694D01*
X363964Y179926D01*
X362694Y181195D01*
X360155D01*
X358885Y182465D01*
X360155Y183734D01*
X363964D01*
X374120Y186274D02*
Y178656D01*
Y182465D01*
X379199D01*
Y186274D01*
Y178656D01*
X383007D02*
X385546D01*
X386816Y179926D01*
Y182465D01*
X385546Y183734D01*
X383007D01*
X381738Y182465D01*
Y179926D01*
X383007Y178656D01*
X389355Y176117D02*
X390625D01*
X391894Y177386D01*
Y183734D01*
X396973Y178656D02*
Y183734D01*
X400782D01*
X402051Y182465D01*
Y178656D01*
X405860Y183734D02*
X408399D01*
X409669Y182465D01*
Y178656D01*
X405860D01*
X404590Y179926D01*
X405860Y181195D01*
X409669D01*
X417286Y186274D02*
Y178656D01*
X413478D01*
X412208Y179926D01*
Y182465D01*
X413478Y183734D01*
X417286D01*
X423634Y178656D02*
X421095D01*
X419825Y179926D01*
Y182465D01*
X421095Y183734D01*
X423634D01*
X424904Y182465D01*
Y181195D01*
X419825D01*
X427443Y178656D02*
X429982D01*
X428713D01*
Y186274D01*
X427443D01*
X317624Y169717D02*
Y162099D01*
X321432D01*
X322702Y163369D01*
Y164638D01*
X321432Y165908D01*
X317624D01*
X321432D01*
X322702Y167177D01*
Y168447D01*
X321432Y169717D01*
X317624D01*
X329050Y162099D02*
X326511D01*
X325241Y163369D01*
Y165908D01*
X326511Y167177D01*
X329050D01*
X330319Y165908D01*
Y164638D01*
X325241D01*
X332859Y162099D02*
Y167177D01*
X336667D01*
X337937Y165908D01*
Y162099D01*
X340476Y159560D02*
X341746D01*
X343015Y160829D01*
Y167177D01*
X349363D02*
X351902D01*
X353172Y165908D01*
Y162099D01*
X349363D01*
X348094Y163369D01*
X349363Y164638D01*
X353172D01*
X355711Y162099D02*
Y167177D01*
X356981D01*
X358250Y165908D01*
Y162099D01*
Y165908D01*
X359520Y167177D01*
X360789Y165908D01*
Y162099D01*
X363329D02*
X365868D01*
X364598D01*
Y167177D01*
X363329D01*
X369677Y162099D02*
Y167177D01*
X373485D01*
X374755Y165908D01*
Y162099D01*
X389990Y168447D02*
X388721Y169717D01*
X386181D01*
X384912Y168447D01*
Y167177D01*
X386181Y165908D01*
X388721D01*
X389990Y164638D01*
Y163369D01*
X388721Y162099D01*
X386181D01*
X384912Y163369D01*
X393799Y167177D02*
X396338D01*
X397608Y165908D01*
Y162099D01*
X393799D01*
X392529Y163369D01*
X393799Y164638D01*
X397608D01*
X400147Y162099D02*
X402686D01*
X401416D01*
Y169717D01*
X400147D01*
X407764Y167177D02*
X410303D01*
X411573Y165908D01*
Y162099D01*
X407764D01*
X406495Y163369D01*
X407764Y164638D01*
X411573D01*
X414112Y167177D02*
X419191D01*
X414112Y162099D01*
X419191D01*
X422999Y167177D02*
X425539D01*
X426808Y165908D01*
Y162099D01*
X422999D01*
X421730Y163369D01*
X422999Y164638D01*
X426808D01*
X429347Y167177D02*
Y162099D01*
Y164638D01*
X430617Y165908D01*
X431886Y167177D01*
X433156D01*
X312545Y153160D02*
Y145542D01*
X317624D01*
X323971D02*
X321432D01*
X320163Y146812D01*
Y149351D01*
X321432Y150620D01*
X323971D01*
X325241Y149351D01*
Y148081D01*
X320163D01*
X329050Y150620D02*
X331589D01*
X332859Y149351D01*
Y145542D01*
X329050D01*
X327780Y146812D01*
X329050Y148081D01*
X332859D01*
X335398Y145542D02*
Y150620D01*
X339207D01*
X340476Y149351D01*
Y145542D01*
X348094Y153160D02*
Y145542D01*
X344285D01*
X343015Y146812D01*
Y149351D01*
X344285Y150620D01*
X348094D01*
X350633D02*
Y145542D01*
Y148081D01*
X351902Y149351D01*
X353172Y150620D01*
X354442D01*
X359520Y145542D02*
X362059D01*
X363329Y146812D01*
Y149351D01*
X362059Y150620D01*
X359520D01*
X358250Y149351D01*
Y146812D01*
X359520Y145542D01*
X373485Y153160D02*
Y145542D01*
X377294D01*
X378564Y146812D01*
Y148081D01*
X377294Y149351D01*
X373485D01*
X377294D01*
X378564Y150620D01*
Y151890D01*
X377294Y153160D01*
X373485D01*
X382373Y145542D02*
X384912D01*
X386181Y146812D01*
Y149351D01*
X384912Y150620D01*
X382373D01*
X381103Y149351D01*
Y146812D01*
X382373Y145542D01*
X389990Y151890D02*
Y150620D01*
X388721D01*
X391260D01*
X389990D01*
Y146812D01*
X391260Y145542D01*
X396338Y151890D02*
Y150620D01*
X395069D01*
X397608D01*
X396338D01*
Y146812D01*
X397608Y145542D01*
X401416D02*
X403956D01*
X402686D01*
Y150620D01*
X401416D01*
X407764Y145542D02*
Y150620D01*
X411573D01*
X412843Y149351D01*
Y145542D01*
X419191D02*
X416651D01*
X415382Y146812D01*
Y149351D01*
X416651Y150620D01*
X419191D01*
X420460Y149351D01*
Y148081D01*
X415382D01*
X422999Y145542D02*
X425539D01*
X424269D01*
Y153160D01*
X422999D01*
X429347Y145542D02*
X431886D01*
X430617D01*
Y153160D01*
X429347D01*
X435695Y145542D02*
X438234D01*
X436965D01*
Y150620D01*
X435695D01*
D47*
X269880Y102150D02*
X349880D01*
X264880D02*
X269880D01*
X264880Y12150D02*
Y102150D01*
Y12150D02*
X354880D01*
Y102150D01*
X349880D02*
X354880D01*
X757493Y99610D02*
X837493D01*
X752493D02*
X757493D01*
X752493Y9610D02*
Y99610D01*
Y9610D02*
X842493D01*
Y99610D01*
X837493D02*
X842493D01*
X643250Y99916D02*
X648250D01*
Y9916D02*
Y99916D01*
X558250Y9916D02*
X648250D01*
X558250D02*
Y99916D01*
X563250D01*
X643250D01*
X600060Y154830D02*
Y172830D01*
X614060Y154830D02*
Y172830D01*
X608220Y142890D02*
X626220D01*
X608220Y128890D02*
X626220D01*
X620380Y154830D02*
Y172830D01*
X634380Y154830D02*
Y172830D01*
X706770Y43570D02*
Y60570D01*
X692770Y43570D02*
Y60570D01*
X654560Y43570D02*
Y60570D01*
X686560Y43570D02*
Y60570D01*
X347580Y495700D02*
Y545700D01*
X297580Y495700D02*
Y545700D01*
Y533700D02*
X347580D01*
X676260Y425840D02*
Y442840D01*
X690260Y425840D02*
Y442840D01*
X501650Y552450D02*
X811530D01*
X501650Y501650D02*
X811530D01*
X501650D02*
Y552450D01*
X811530Y501650D02*
Y552450D01*
X388100Y384290D02*
Y446290D01*
Y384290D02*
X450100D01*
Y446290D01*
X388100D02*
X450100D01*
X489600Y387740D02*
Y404740D01*
X475600Y387740D02*
Y404740D01*
X229200Y112080D02*
Y152080D01*
X177200Y112080D02*
Y152080D01*
X189880Y53230D02*
Y71230D01*
X175880Y53230D02*
Y71230D01*
X479370Y346750D02*
X488370D01*
X479370Y342750D02*
Y355750D01*
X488370Y342750D02*
Y355750D01*
X475600Y425340D02*
Y443340D01*
X489600Y425340D02*
Y443340D01*
X478170Y246710D02*
X489570D01*
X478170Y238610D02*
Y251610D01*
X489570Y238610D02*
Y251610D01*
X490870Y201820D02*
Y219820D01*
X476870Y201820D02*
Y219820D01*
X876950Y426610D02*
Y444610D01*
X862950Y426610D02*
Y444610D01*
X876950Y523130D02*
Y541130D01*
X862950Y523130D02*
Y541130D01*
X876950Y561730D02*
Y578730D01*
X862950Y561730D02*
Y578730D01*
X876950Y156600D02*
Y173600D01*
X862950Y156600D02*
Y173600D01*
X876950Y61350D02*
Y78350D01*
X862950Y61350D02*
Y78350D01*
X876950Y22750D02*
Y40750D01*
X862950Y22750D02*
Y40750D01*
X438580Y536810D02*
Y550310D01*
X460580Y536810D02*
Y550310D01*
X438580Y492360D02*
Y505860D01*
X460580Y492360D02*
Y505860D01*
X386700Y534560D02*
Y552560D01*
X400700Y534560D02*
Y552560D01*
X362570Y534560D02*
Y552560D01*
X376570Y534560D02*
Y552560D01*
X413370Y534560D02*
Y552560D01*
X427370Y534560D02*
Y552560D01*
X413370Y490110D02*
Y508110D01*
X427370Y490110D02*
Y508110D01*
X386700Y490110D02*
Y508110D01*
X400700Y490110D02*
Y508110D01*
X376570Y490110D02*
Y508110D01*
X362570Y490110D02*
Y508110D01*
X902450Y582180D02*
X964450D01*
Y520180D02*
Y582180D01*
X902450Y520180D02*
X964450D01*
X902450D02*
Y582180D01*
Y486930D02*
X964450D01*
Y424930D02*
Y486930D01*
X902450Y424930D02*
X964450D01*
X902450D02*
Y486930D01*
Y177050D02*
X964450D01*
Y115050D02*
Y177050D01*
X902450Y115050D02*
X964450D01*
X902450D02*
Y177050D01*
Y81800D02*
X964450D01*
Y19800D02*
Y81800D01*
X902450Y19800D02*
X964450D01*
X902450D02*
Y81800D01*
X122740Y345550D02*
Y350550D01*
Y345550D02*
X125240Y348050D01*
X122740Y350550D02*
X125240Y348050D01*
X125240D01*
X157240Y333550D02*
Y339550D01*
X140740Y354550D02*
X143740D01*
X140740Y319050D02*
X143740D01*
X127240Y333550D02*
Y339550D01*
X606410Y425840D02*
Y442840D01*
X620410Y425840D02*
Y442840D01*
X522620Y345830D02*
Y362830D01*
X508620Y345830D02*
Y362830D01*
X675020Y155330D02*
Y172330D01*
X661020Y155330D02*
Y172330D01*
X802020Y188350D02*
Y205350D01*
X788020Y188350D02*
Y205350D01*
X164450Y270900D02*
Y287900D01*
X178450Y270900D02*
Y287900D01*
X348630Y267090D02*
Y284090D01*
X334630Y267090D02*
Y284090D01*
X228710Y428500D02*
Y460500D01*
X210710Y428500D02*
Y460500D01*
X197500Y423300D02*
Y440300D01*
X183500Y423300D02*
Y440300D01*
X286400Y423300D02*
Y440300D01*
X272400Y423300D02*
Y440300D01*
X259190Y428500D02*
Y460500D01*
X241190Y428500D02*
Y460500D01*
X190890Y372730D02*
X207890D01*
X190890Y386730D02*
X207890D01*
X279790Y372730D02*
X296790D01*
X279790Y386730D02*
X296790D01*
X349900Y340750D02*
Y357750D01*
X335900Y340750D02*
Y357750D01*
X118760Y328050D02*
Y345050D01*
X104760Y328050D02*
Y345050D01*
X178450Y328050D02*
Y345050D01*
X164450Y328050D02*
Y345050D01*
X62850Y53730D02*
Y70730D01*
X76850Y53730D02*
Y70730D01*
X876950Y465210D02*
Y482210D01*
X862950Y465210D02*
Y482210D01*
X18400Y416950D02*
Y433950D01*
X32400Y416950D02*
Y433950D01*
X103490Y535060D02*
Y552060D01*
X117490Y535060D02*
Y552060D01*
X183500Y535060D02*
Y552060D01*
X197500Y535060D02*
Y552060D01*
X272400Y535060D02*
Y552060D01*
X286400Y535060D02*
Y552060D01*
X32400Y535060D02*
Y552060D01*
X18400Y535060D02*
Y552060D01*
X7030Y257220D02*
Y342220D01*
X74530D01*
Y257220D02*
Y342220D01*
X7030Y257220D02*
X74530D01*
X949020Y217820D02*
Y229220D01*
X940920D02*
X953920D01*
X940920Y217820D02*
X953920D01*
X949020Y240317D02*
Y251717D01*
X940920D02*
X953920D01*
X940920Y240317D02*
X953920D01*
X949020Y262814D02*
Y274214D01*
X940920D02*
X953920D01*
X940920Y262814D02*
X953920D01*
X949020Y285311D02*
Y296711D01*
X940920D02*
X953920D01*
X940920Y285311D02*
X953920D01*
X949020Y307809D02*
Y319209D01*
X940920D02*
X953920D01*
X940920Y307809D02*
X953920D01*
X949020Y330306D02*
Y341706D01*
X940920D02*
X953920D01*
X940920Y330306D02*
X953920D01*
X949020Y352803D02*
Y364203D01*
X940920D02*
X953920D01*
X940920Y352803D02*
X953920D01*
X949020Y374157D02*
Y385558D01*
X940920D02*
X953920D01*
X940920Y374157D02*
X953920D01*
X70820Y435500D02*
X97820D01*
X69820Y421500D02*
Y467500D01*
X97820Y421500D02*
Y467500D01*
X45100Y463880D02*
X56500D01*
X45100Y455780D02*
Y468780D01*
X56500Y455780D02*
Y468780D01*
X158130Y541960D02*
X169530D01*
Y537060D02*
Y550060D01*
X158130Y537060D02*
Y550060D01*
X273400Y454280D02*
Y470280D01*
X285400Y454280D02*
Y470280D01*
X184500Y455550D02*
Y471550D01*
X196500Y455550D02*
Y471550D01*
X31400Y454280D02*
Y470280D01*
X19400Y454280D02*
Y470280D01*
X476600Y99950D02*
Y115950D01*
X488600Y99950D02*
Y115950D01*
X95850Y112080D02*
Y152080D01*
X43850Y112080D02*
Y152080D01*
X258450Y535060D02*
Y561060D01*
X211450Y535060D02*
Y561060D01*
Y535060D02*
X213450D01*
X211450Y561060D02*
X224450D01*
X244950D02*
X258450D01*
X256450Y535060D02*
X258450D01*
X92080D02*
Y561060D01*
X45080Y535060D02*
Y561060D01*
Y535060D02*
X47080D01*
X45080Y561060D02*
X58080D01*
X78580D02*
X92080D01*
X90080Y535060D02*
X92080D01*
X381000Y311150D02*
X431800D01*
X381000Y336550D02*
X431800D01*
X381000Y311150D02*
Y336550D01*
X431800Y311150D02*
Y336550D01*
X658470Y447340D02*
X663470D01*
Y442340D02*
Y447340D01*
X634470D02*
X639470D01*
X634470Y442340D02*
Y447340D01*
Y421340D02*
X639470D01*
X634470D02*
Y426340D01*
X662970Y421340D02*
Y426340D01*
X657970Y421340D02*
X662970D01*
X118760Y270400D02*
Y288400D01*
X104760Y270400D02*
Y288400D01*
X134605Y270400D02*
Y288400D01*
X148605Y270400D02*
Y288400D01*
X36210Y53230D02*
Y71230D01*
X22210Y53230D02*
Y71230D01*
X42530Y53230D02*
Y71230D01*
X56530Y53230D02*
Y71230D01*
X117490Y53230D02*
Y71230D01*
X103490Y53230D02*
Y71230D01*
X97170Y53230D02*
Y71230D01*
X83170Y53230D02*
Y71230D01*
X900320Y230520D02*
X918320D01*
X900320Y216520D02*
X918320D01*
X900320Y253017D02*
X918320D01*
X900320Y239017D02*
X918320D01*
X900320Y275514D02*
X918320D01*
X900320Y261514D02*
X918320D01*
X900320Y298011D02*
X918320D01*
X900320Y284011D02*
X918320D01*
X876950Y118000D02*
Y136000D01*
X862950Y118000D02*
Y136000D01*
X900320Y320509D02*
X918320D01*
X900320Y306509D02*
X918320D01*
X900320Y343006D02*
X918320D01*
X900320Y329006D02*
X918320D01*
X900320Y365503D02*
X918320D01*
X900320Y351503D02*
X918320D01*
X900320Y385558D02*
X918320D01*
X900320Y371557D02*
X918320D01*
X57800Y416450D02*
Y434450D01*
X43800Y416450D02*
Y434450D01*
X144160Y534560D02*
Y552560D01*
X130160Y534560D02*
Y552560D01*
X308843Y261950D02*
Y348450D01*
X219343D02*
X308843D01*
X208843Y337950D02*
X219343Y348450D01*
X208843Y260450D02*
Y337950D01*
Y248450D02*
Y260450D01*
Y248450D02*
X296343D01*
X295844D02*
X308843D01*
Y261950D01*
X737470Y152190D02*
Y170190D01*
X750970Y152290D02*
Y170290D01*
X737470Y166290D02*
X750920D01*
X802020Y322970D02*
Y339970D01*
X788020Y322970D02*
Y339970D01*
X640733Y155330D02*
Y172330D01*
X654733Y155330D02*
Y172330D01*
X522620Y202320D02*
Y219320D01*
X508620Y202320D02*
Y219320D01*
Y309000D02*
Y326000D01*
X522620Y309000D02*
Y326000D01*
X508469Y272940D02*
Y290940D01*
X522469Y272940D02*
Y290940D01*
X492870Y284990D02*
Y316990D01*
X474870Y284990D02*
Y316990D01*
X803981Y267210D02*
Y299210D01*
X785981Y267210D02*
Y299210D01*
X813420Y293760D02*
Y310760D01*
X827420Y293760D02*
Y310760D01*
Y255160D02*
Y273160D01*
X813420Y255160D02*
Y273160D01*
X724550Y425840D02*
Y442840D01*
X710550Y425840D02*
Y442840D01*
X508620Y236610D02*
Y253610D01*
X522620Y236610D02*
Y253610D01*
X210200Y53230D02*
Y71230D01*
X196200Y53230D02*
Y71230D01*
X216520Y53230D02*
Y71230D01*
X230520Y53230D02*
Y71230D01*
X169560Y53730D02*
Y70730D01*
X155560Y53730D02*
Y70730D01*
X250840Y53230D02*
Y71230D01*
X236840Y53230D02*
Y71230D01*
X419100Y234950D02*
X431800D01*
X381000D02*
X393700D01*
X381000Y285750D02*
X431800D01*
X393700Y234950D02*
X419100D01*
X431800D02*
Y285750D01*
X381000Y234950D02*
Y285750D01*
X550560Y42300D02*
Y59300D01*
X536560Y42300D02*
Y59300D01*
X522620Y42800D02*
X531620D01*
Y57800D01*
X499620Y42800D02*
X508620D01*
X499620D02*
Y57800D01*
X512620D02*
X518620D01*
X491600Y34800D02*
Y66800D01*
X473600Y34800D02*
Y66800D01*
X414100Y40800D02*
X424100D01*
X403100Y42800D02*
Y58800D01*
Y60700D01*
X403200Y60800D01*
X405200D01*
X403100Y40800D02*
Y42800D01*
Y40800D02*
X405200D01*
X433100D02*
X435200D01*
Y42800D01*
X433100Y60800D02*
X435100D01*
X435200Y60700D01*
Y58800D02*
Y60700D01*
Y42800D02*
Y58800D01*
X463660Y34800D02*
Y66800D01*
X445660Y34800D02*
Y66800D01*
X461660Y99450D02*
Y116450D01*
X447660Y99450D02*
Y116450D01*
X404100Y92950D02*
Y122950D01*
X434100Y92950D02*
Y122950D01*
X45340Y248570D02*
X61340D01*
X45340Y236570D02*
X61340D01*
X382890Y98950D02*
Y116950D01*
X396890Y98950D02*
Y116950D01*
X382890Y41800D02*
Y59800D01*
X396890Y41800D02*
Y59800D01*
X733410Y43070D02*
Y61070D01*
X747410Y43070D02*
Y61070D01*
X727090Y43070D02*
Y61070D01*
X713090Y43070D02*
Y61070D01*
X0Y0D02*
Y600000D01*
X1000000D01*
Y0D02*
Y600000D01*
X0Y0D02*
X1000000D01*
D56*
X28321Y229667D02*
X32207D01*
X26492Y229438D02*
X33807D01*
X25349Y229210D02*
X34950D01*
X24435Y228981D02*
X35865D01*
X23749Y228752D02*
X36779D01*
X23063Y228524D02*
X29007D01*
X31293D02*
X37465D01*
X22606Y228295D02*
X27178D01*
X33350D02*
X37922D01*
X21920Y228067D02*
X26035D01*
X34493D02*
X38608D01*
X21463Y227838D02*
X25121D01*
X35408D02*
X39065D01*
X21006Y227609D02*
X24206D01*
X36322D02*
X39522D01*
X20549Y227381D02*
X23520D01*
X37008D02*
X39980D01*
X20091Y227152D02*
X23063D01*
X37465D02*
X40437D01*
X19634Y226924D02*
X22377D01*
X38151D02*
X40894D01*
X19177Y226695D02*
X21920D01*
X38608D02*
X41123D01*
X18948Y226466D02*
X21463D01*
X28778D02*
X31750D01*
X39065D02*
X41580D01*
X18491Y226238D02*
X21006D01*
X26949D02*
X33579D01*
X39522D02*
X42037D01*
X18263Y226009D02*
X20549D01*
X26035D02*
X34493D01*
X39980D02*
X42266D01*
X17805Y225781D02*
X20091D01*
X25121D02*
X35408D01*
X40208D02*
X42494D01*
X17577Y225552D02*
X19863D01*
X24435D02*
X36093D01*
X40665D02*
X42951D01*
X17348Y225323D02*
X19406D01*
X23749D02*
X29693D01*
X30836D02*
X36779D01*
X41123D02*
X43180D01*
X16891Y225095D02*
X19177D01*
X23292D02*
X27407D01*
X32893D02*
X37236D01*
X41351D02*
X43409D01*
X16662Y224866D02*
X18720D01*
X22606D02*
X26492D01*
X34036D02*
X37922D01*
X41808D02*
X43866D01*
X16434Y224638D02*
X18491D01*
X22149D02*
X25578D01*
X34950D02*
X38379D01*
X42037D02*
X44094D01*
X16205Y224409D02*
X18263D01*
X21692D02*
X24892D01*
X35636D02*
X38837D01*
X42266D02*
X44323D01*
X15977Y224180D02*
X17805D01*
X21463D02*
X24206D01*
X36322D02*
X39065D01*
X42494D02*
X44552D01*
X15748Y223952D02*
X17577D01*
X21006D02*
X23749D01*
X36779D02*
X39522D01*
X42951D02*
X44780D01*
X15519Y223723D02*
X17348D01*
X20549D02*
X23292D01*
X37236D02*
X39980D01*
X43180D02*
X45009D01*
X15291Y223495D02*
X17120D01*
X20320D02*
X22835D01*
X37694D02*
X40208D01*
X43409D02*
X45237D01*
X15062Y223266D02*
X16891D01*
X19863D02*
X22377D01*
X38151D02*
X40665D01*
X43637D02*
X45466D01*
X14834Y223037D02*
X16662D01*
X19634D02*
X21920D01*
X38608D02*
X40894D01*
X43866D02*
X45695D01*
X14605Y222809D02*
X16434D01*
X19406D02*
X21463D01*
X39065D02*
X41123D01*
X44094D02*
X45923D01*
X14376Y222580D02*
X16205D01*
X18948D02*
X21234D01*
X39294D02*
X41580D01*
X44323D02*
X46152D01*
X14148Y222352D02*
X15977D01*
X18720D02*
X20777D01*
X39751D02*
X41808D01*
X44552D02*
X46380D01*
X13919Y222123D02*
X15748D01*
X18491D02*
X20549D01*
X39980D02*
X42037D01*
X44780D02*
X46609D01*
X13919Y221894D02*
X15519D01*
X18263D02*
X20091D01*
X40208D02*
X42266D01*
X45009D02*
X46609D01*
X13691Y221666D02*
X15291D01*
X18034D02*
X19863D01*
X40665D02*
X42494D01*
X45237D02*
X46838D01*
X13462Y221437D02*
X15062D01*
X17805D02*
X19634D01*
X40894D02*
X42723D01*
X45466D02*
X47066D01*
X13233Y221209D02*
X14834D01*
X17577D02*
X19406D01*
X41123D02*
X42951D01*
X45695D02*
X47295D01*
X13233Y220980D02*
X14605D01*
X17348D02*
X19177D01*
X41351D02*
X43180D01*
X45695D02*
X47295D01*
X13005Y220751D02*
X14605D01*
X17120D02*
X18948D01*
X41580D02*
X43409D01*
X45923D02*
X47523D01*
X12776Y220523D02*
X14376D01*
X16891D02*
X18720D01*
X41808D02*
X43637D01*
X46152D02*
X47752D01*
X12548Y220294D02*
X14148D01*
X16662D02*
X18491D01*
X42037D02*
X43866D01*
X46380D02*
X47752D01*
X12548Y220066D02*
X13919D01*
X16434D02*
X18263D01*
X42266D02*
X44094D01*
X46380D02*
X47981D01*
X12319Y219837D02*
X13919D01*
X16205D02*
X18034D01*
X42494D02*
X44094D01*
X46609D02*
X48209D01*
X12319Y219608D02*
X13691D01*
X16205D02*
X17805D01*
X42723D02*
X44323D01*
X46838D02*
X48209D01*
X12090Y219380D02*
X13462D01*
X15977D02*
X17577D01*
X42951D02*
X44552D01*
X46838D02*
X48438D01*
X11862Y219151D02*
X13462D01*
X15748D02*
X17348D01*
X43180D02*
X44780D01*
X47066D02*
X48438D01*
X101930D02*
X106045D01*
X149250D02*
X153594D01*
X11862Y218923D02*
X13233D01*
X15519D02*
X17120D01*
X43409D02*
X44780D01*
X47295D02*
X48666D01*
X100787D02*
X107188D01*
X148336D02*
X154508D01*
X176682D02*
X177597D01*
X11633Y218694D02*
X13233D01*
X15519D02*
X17120D01*
X21234D02*
X24892D01*
X28550D02*
X31750D01*
X35408D02*
X38837D01*
X43409D02*
X45009D01*
X47295D02*
X48895D01*
X58953D02*
X62382D01*
X71526D02*
X75184D01*
X77699D02*
X93701D01*
X100101D02*
X107874D01*
X123647D02*
X135306D01*
X147650D02*
X155194D01*
X167996D02*
X170967D01*
X172339D02*
X173253D01*
X175997D02*
X178283D01*
X179654D02*
X180569D01*
X182626D02*
X183540D01*
X184226D02*
X185141D01*
X186741D02*
X190398D01*
X191313D02*
X192227D01*
X194056D02*
X196799D01*
X11633Y218465D02*
X13005D01*
X15291D02*
X16891D01*
X21234D02*
X24892D01*
X28550D02*
X31750D01*
X35408D02*
X38837D01*
X43637D02*
X45237D01*
X47523D02*
X48895D01*
X58953D02*
X62382D01*
X71526D02*
X75184D01*
X77699D02*
X93701D01*
X99644D02*
X108331D01*
X123647D02*
X135992D01*
X146964D02*
X155880D01*
X167996D02*
X170967D01*
X172110D02*
X173482D01*
X175768D02*
X178740D01*
X179654D02*
X180569D01*
X182626D02*
X183540D01*
X184226D02*
X185141D01*
X186741D02*
X190398D01*
X191084D02*
X192456D01*
X194056D02*
X197256D01*
X11405Y218237D02*
X12776D01*
X15062D02*
X16662D01*
X21234D02*
X24892D01*
X28550D02*
X31750D01*
X35408D02*
X38837D01*
X43866D02*
X45237D01*
X47523D02*
X49124D01*
X58953D02*
X62382D01*
X71526D02*
X75184D01*
X77699D02*
X93701D01*
X99187D02*
X108788D01*
X123647D02*
X136677D01*
X146507D02*
X156108D01*
X167996D02*
X170967D01*
X172110D02*
X173482D01*
X175539D02*
X178968D01*
X179654D02*
X180569D01*
X182626D02*
X183540D01*
X184226D02*
X185141D01*
X186741D02*
X190398D01*
X191084D02*
X192456D01*
X194056D02*
X197485D01*
X11405Y218008D02*
X12776D01*
X15062D02*
X16434D01*
X21234D02*
X24892D01*
X28550D02*
X31750D01*
X35408D02*
X38837D01*
X43866D02*
X45466D01*
X47752D02*
X49124D01*
X58953D02*
X62382D01*
X71526D02*
X75184D01*
X77699D02*
X93701D01*
X98730D02*
X109245D01*
X123647D02*
X137135D01*
X146279D02*
X156566D01*
X167996D02*
X168681D01*
X172110D02*
X173482D01*
X175311D02*
X176454D01*
X177825D02*
X178968D01*
X179654D02*
X180569D01*
X182626D02*
X183540D01*
X184226D02*
X185141D01*
X188112D02*
X189027D01*
X191084D02*
X192456D01*
X194056D02*
X194970D01*
X196342D02*
X197714D01*
X11176Y217780D02*
X12548D01*
X14834D02*
X16434D01*
X21234D02*
X24892D01*
X28550D02*
X31750D01*
X35179D02*
X38837D01*
X44094D02*
X45695D01*
X47981D02*
X49352D01*
X58953D02*
X62382D01*
X71526D02*
X75184D01*
X77699D02*
X93701D01*
X98501D02*
X109474D01*
X123647D02*
X137363D01*
X145821D02*
X157023D01*
X167996D02*
X168681D01*
X171882D02*
X173711D01*
X175311D02*
X176225D01*
X178054D02*
X179197D01*
X179654D02*
X180569D01*
X182626D02*
X183540D01*
X184226D02*
X185141D01*
X188112D02*
X189027D01*
X190856D02*
X192684D01*
X194056D02*
X194970D01*
X196799D02*
X197942D01*
X11176Y217551D02*
X12548D01*
X14834D02*
X16205D01*
X21463D02*
X25121D01*
X28550D02*
X31750D01*
X35179D02*
X38837D01*
X44323D02*
X45695D01*
X47981D02*
X49352D01*
X58953D02*
X62382D01*
X71526D02*
X75184D01*
X77699D02*
X93701D01*
X98273D02*
X109703D01*
X123647D02*
X137592D01*
X145593D02*
X157251D01*
X167996D02*
X168681D01*
X171882D02*
X173711D01*
X175082D02*
X175997D01*
X178283D02*
X179197D01*
X179654D02*
X180569D01*
X182626D02*
X183540D01*
X184226D02*
X185141D01*
X188112D02*
X189027D01*
X190856D02*
X192684D01*
X194056D02*
X194970D01*
X197028D02*
X197942D01*
X10947Y217322D02*
X12319D01*
X14605D02*
X15977D01*
X21463D02*
X25121D01*
X28550D02*
X31750D01*
X35179D02*
X38837D01*
X44323D02*
X45923D01*
X48209D02*
X49581D01*
X58953D02*
X62382D01*
X71526D02*
X75184D01*
X77699D02*
X93701D01*
X97815D02*
X109931D01*
X123647D02*
X137820D01*
X145364D02*
X157480D01*
X167996D02*
X168681D01*
X171653D02*
X172568D01*
X173025D02*
X173939D01*
X175082D02*
X175997D01*
X178283D02*
X179197D01*
X179654D02*
X180569D01*
X182626D02*
X183540D01*
X184226D02*
X185141D01*
X188112D02*
X189027D01*
X190627D02*
X191541D01*
X191999D02*
X192913D01*
X194056D02*
X194970D01*
X197028D02*
X197942D01*
X10947Y217094D02*
X12319D01*
X14605D02*
X15977D01*
X21463D02*
X25121D01*
X28550D02*
X31750D01*
X35179D02*
X38837D01*
X44552D02*
X45923D01*
X48209D02*
X49581D01*
X58953D02*
X62382D01*
X71526D02*
X75184D01*
X77699D02*
X93701D01*
X97587D02*
X110160D01*
X123647D02*
X138049D01*
X145136D02*
X157709D01*
X167996D02*
X168681D01*
X171653D02*
X172568D01*
X173025D02*
X173939D01*
X175082D02*
X175768D01*
X179654D02*
X180569D01*
X182626D02*
X183540D01*
X184226D02*
X185141D01*
X188112D02*
X189027D01*
X190627D02*
X191541D01*
X191999D02*
X192913D01*
X194056D02*
X194970D01*
X197256D02*
X197942D01*
X10719Y216865D02*
X12090D01*
X14376D02*
X15748D01*
X21463D02*
X25121D01*
X28550D02*
X31750D01*
X34950D02*
X38837D01*
X44780D02*
X46152D01*
X48209D02*
X49581D01*
X58953D02*
X62382D01*
X71526D02*
X75184D01*
X77699D02*
X93701D01*
X97587D02*
X110388D01*
X123647D02*
X138278D01*
X144907D02*
X157937D01*
X167996D02*
X170739D01*
X171653D02*
X172568D01*
X173025D02*
X173939D01*
X175082D02*
X175768D01*
X179654D02*
X180569D01*
X182626D02*
X183540D01*
X184226D02*
X185141D01*
X188112D02*
X189027D01*
X190627D02*
X191313D01*
X191999D02*
X192913D01*
X194056D02*
X194970D01*
X197256D02*
X197942D01*
X10719Y216637D02*
X12090D01*
X14376D02*
X15748D01*
X21463D02*
X25349D01*
X28550D02*
X31750D01*
X34950D02*
X38837D01*
X44780D02*
X46152D01*
X48438D02*
X49809D01*
X58953D02*
X62382D01*
X71526D02*
X75184D01*
X77699D02*
X93701D01*
X97358D02*
X110617D01*
X123647D02*
X138506D01*
X144678D02*
X158166D01*
X167996D02*
X170739D01*
X171425D02*
X172339D01*
X173253D02*
X174168D01*
X175082D02*
X175768D01*
X179654D02*
X180569D01*
X182626D02*
X183540D01*
X184226D02*
X185141D01*
X188112D02*
X189027D01*
X190398D02*
X191313D01*
X192227D02*
X193142D01*
X194056D02*
X194970D01*
X197256D02*
X198171D01*
X10719Y216408D02*
X12090D01*
X14148D02*
X15519D01*
X21463D02*
X25349D01*
X28550D02*
X31750D01*
X34950D02*
X38837D01*
X45009D02*
X46380D01*
X48438D02*
X49809D01*
X58953D02*
X62382D01*
X71526D02*
X75184D01*
X77699D02*
X93701D01*
X97130D02*
X110846D01*
X123647D02*
X138506D01*
X144678D02*
X158166D01*
X167996D02*
X170739D01*
X171425D02*
X172339D01*
X173253D02*
X174168D01*
X175082D02*
X175768D01*
X179654D02*
X180569D01*
X182626D02*
X183540D01*
X184226D02*
X185141D01*
X188112D02*
X189027D01*
X190398D02*
X191313D01*
X192227D02*
X193142D01*
X194056D02*
X194970D01*
X197256D02*
X198171D01*
X10490Y216179D02*
X11862D01*
X14148D02*
X15519D01*
X21692D02*
X25578D01*
X28550D02*
X31750D01*
X34722D02*
X38608D01*
X45009D02*
X46380D01*
X48666D02*
X50038D01*
X58953D02*
X62382D01*
X71526D02*
X75184D01*
X77699D02*
X93701D01*
X96901D02*
X111074D01*
X123647D02*
X138735D01*
X144450D02*
X158394D01*
X167996D02*
X168681D01*
X171425D02*
X174396D01*
X175082D02*
X175768D01*
X179654D02*
X180569D01*
X182626D02*
X183540D01*
X184226D02*
X185141D01*
X188112D02*
X189027D01*
X190170D02*
X193142D01*
X194056D02*
X194970D01*
X197256D02*
X197942D01*
X10490Y215951D02*
X11862D01*
X13919D02*
X15291D01*
X21692D02*
X25578D01*
X28550D02*
X31750D01*
X34493D02*
X38608D01*
X45237D02*
X46609D01*
X48666D02*
X50038D01*
X58953D02*
X62382D01*
X71526D02*
X75184D01*
X77699D02*
X93701D01*
X96901D02*
X102387D01*
X105588D02*
X111074D01*
X123647D02*
X138735D01*
X144221D02*
X149936D01*
X152908D02*
X158623D01*
X167996D02*
X168681D01*
X171196D02*
X174396D01*
X175082D02*
X175768D01*
X178283D02*
X179197D01*
X179654D02*
X180569D01*
X182626D02*
X183540D01*
X184226D02*
X185141D01*
X188112D02*
X189027D01*
X190170D02*
X193370D01*
X194056D02*
X194970D01*
X197256D02*
X197942D01*
X10490Y215722D02*
X11633D01*
X13919D02*
X15291D01*
X21692D02*
X25806D01*
X28550D02*
X31750D01*
X34493D02*
X38608D01*
X45237D02*
X46609D01*
X48895D02*
X50038D01*
X58953D02*
X62382D01*
X71526D02*
X75184D01*
X77699D02*
X93701D01*
X96672D02*
X101702D01*
X106274D02*
X111303D01*
X123647D02*
X127305D01*
X133934D02*
X138963D01*
X144221D02*
X149250D01*
X153594D02*
X158623D01*
X167996D02*
X168681D01*
X171196D02*
X174396D01*
X175082D02*
X175997D01*
X178283D02*
X179197D01*
X179654D02*
X180569D01*
X182626D02*
X183540D01*
X184226D02*
X185141D01*
X188112D02*
X189027D01*
X190170D02*
X193370D01*
X194056D02*
X194970D01*
X197028D02*
X197942D01*
X10262Y215494D02*
X11633D01*
X13691D02*
X15062D01*
X21692D02*
X26035D01*
X28550D02*
X31750D01*
X34265D02*
X38379D01*
X45466D02*
X46838D01*
X48895D02*
X50267D01*
X58953D02*
X62382D01*
X71526D02*
X75184D01*
X83871D02*
X87528D01*
X96672D02*
X101244D01*
X106731D02*
X111303D01*
X123647D02*
X127305D01*
X134391D02*
X138963D01*
X143993D02*
X148793D01*
X154051D02*
X158852D01*
X167996D02*
X168681D01*
X170967D02*
X171882D01*
X173711D02*
X174625D01*
X175082D02*
X175997D01*
X178283D02*
X179197D01*
X179654D02*
X180569D01*
X182626D02*
X183540D01*
X184226D02*
X185141D01*
X188112D02*
X189027D01*
X189941D02*
X190856D01*
X192684D02*
X193599D01*
X194056D02*
X194970D01*
X197028D02*
X197942D01*
X10262Y215265D02*
X11633D01*
X13691D02*
X15062D01*
X21920D02*
X26035D01*
X28550D02*
X31750D01*
X34036D02*
X38379D01*
X45466D02*
X46838D01*
X48895D02*
X50267D01*
X58953D02*
X62382D01*
X71526D02*
X75184D01*
X83871D02*
X87528D01*
X96444D02*
X101016D01*
X106959D02*
X111531D01*
X123647D02*
X127305D01*
X134620D02*
X138963D01*
X143993D02*
X148336D01*
X154508D02*
X158852D01*
X167996D02*
X168681D01*
X170967D02*
X171882D01*
X173711D02*
X174625D01*
X175082D02*
X176225D01*
X178054D02*
X178968D01*
X179654D02*
X180569D01*
X182397D02*
X183540D01*
X184226D02*
X185141D01*
X188112D02*
X189027D01*
X189941D02*
X190856D01*
X192684D02*
X193599D01*
X194056D02*
X194970D01*
X196799D02*
X197942D01*
X10262Y215036D02*
X11405D01*
X13462D02*
X14834D01*
X21920D02*
X26264D01*
X28550D02*
X31750D01*
X33807D02*
X38379D01*
X45695D02*
X46838D01*
X49124D02*
X50267D01*
X58953D02*
X62382D01*
X71526D02*
X75184D01*
X83871D02*
X87528D01*
X96444D02*
X100787D01*
X107188D02*
X111531D01*
X123647D02*
X127305D01*
X134849D02*
X138963D01*
X143764D02*
X148107D01*
X154737D02*
X159080D01*
X167996D02*
X168681D01*
X170967D02*
X171882D01*
X173711D02*
X174625D01*
X175311D02*
X176454D01*
X177825D02*
X178968D01*
X179883D02*
X180797D01*
X182397D02*
X183312D01*
X184226D02*
X185141D01*
X188112D02*
X189027D01*
X189941D02*
X190856D01*
X192684D02*
X193599D01*
X194056D02*
X194970D01*
X196342D02*
X197714D01*
X10033Y214808D02*
X11405D01*
X13462D02*
X14834D01*
X22149D02*
X26492D01*
X28550D02*
X31750D01*
X33579D02*
X38151D01*
X45695D02*
X47066D01*
X49124D02*
X50495D01*
X58953D02*
X62382D01*
X71526D02*
X75184D01*
X83871D02*
X87528D01*
X96215D02*
X100559D01*
X107417D02*
X111531D01*
X123647D02*
X127305D01*
X135077D02*
X138963D01*
X143764D02*
X147879D01*
X154965D02*
X159080D01*
X167996D02*
X168681D01*
X170739D02*
X171653D01*
X173939D02*
X174854D01*
X175311D02*
X176911D01*
X177368D02*
X178740D01*
X179883D02*
X181483D01*
X181712D02*
X183312D01*
X184226D02*
X187427D01*
X188112D02*
X189027D01*
X189713D02*
X190627D01*
X192913D02*
X193827D01*
X194056D02*
X197485D01*
X10033Y214579D02*
X11405D01*
X13462D02*
X14834D01*
X22149D02*
X26949D01*
X28550D02*
X31750D01*
X33350D02*
X38151D01*
X45695D02*
X47066D01*
X49124D02*
X50495D01*
X58953D02*
X62382D01*
X71526D02*
X75184D01*
X83871D02*
X87528D01*
X96215D02*
X100330D01*
X107645D02*
X111760D01*
X123647D02*
X127305D01*
X135306D02*
X139192D01*
X143764D02*
X147650D01*
X154965D02*
X159080D01*
X167996D02*
X168681D01*
X170739D02*
X171653D01*
X173939D02*
X174854D01*
X175539D02*
X178740D01*
X180111D02*
X183083D01*
X184226D02*
X187427D01*
X188112D02*
X189027D01*
X189713D02*
X190627D01*
X192913D02*
X193827D01*
X194056D02*
X197256D01*
X10033Y214351D02*
X11176D01*
X13233D02*
X14605D01*
X22377D02*
X27178D01*
X28550D02*
X31750D01*
X33122D02*
X37922D01*
X45923D02*
X47066D01*
X49352D02*
X50495D01*
X58953D02*
X62382D01*
X71526D02*
X75184D01*
X83871D02*
X87528D01*
X96215D02*
X100101D01*
X107874D02*
X111760D01*
X123647D02*
X127305D01*
X135306D02*
X139192D01*
X143535D02*
X147650D01*
X155194D02*
X159309D01*
X167996D02*
X168681D01*
X170510D02*
X171425D01*
X173939D02*
X175082D01*
X175997D02*
X178283D01*
X180340D02*
X182855D01*
X184226D02*
X187427D01*
X188112D02*
X189027D01*
X189484D02*
X190398D01*
X192913D02*
X197028D01*
X9804Y214122D02*
X11176D01*
X13233D02*
X14605D01*
X22377D02*
X27407D01*
X28550D02*
X31750D01*
X32664D02*
X37922D01*
X45923D02*
X47295D01*
X49352D02*
X50495D01*
X58953D02*
X62382D01*
X71526D02*
X75184D01*
X83871D02*
X87528D01*
X96215D02*
X100101D01*
X107874D02*
X111760D01*
X123647D02*
X127305D01*
X135306D02*
X139192D01*
X143535D02*
X147422D01*
X155423D02*
X159309D01*
X176454D02*
X177825D01*
X180797D02*
X182397D01*
X9804Y213893D02*
X11176D01*
X13233D02*
X14376D01*
X22606D02*
X27864D01*
X28550D02*
X31750D01*
X32207D02*
X37694D01*
X45923D02*
X47295D01*
X49352D02*
X50724D01*
X58953D02*
X62382D01*
X71526D02*
X75184D01*
X83871D02*
X87528D01*
X95987D02*
X99873D01*
X108102D02*
X111989D01*
X123647D02*
X127305D01*
X135534D02*
X139192D01*
X143535D02*
X147422D01*
X155423D02*
X159309D01*
X9804Y213665D02*
X10947D01*
X13005D02*
X14376D01*
X22835D02*
X37465D01*
X46152D02*
X47295D01*
X49352D02*
X50724D01*
X58953D02*
X62382D01*
X71526D02*
X75184D01*
X83871D02*
X87528D01*
X95987D02*
X99873D01*
X108102D02*
X111989D01*
X123647D02*
X127305D01*
X135534D02*
X139192D01*
X143535D02*
X147193D01*
X155423D02*
X159309D01*
X9804Y213436D02*
X10947D01*
X13005D02*
X14376D01*
X22835D02*
X37465D01*
X46152D02*
X47523D01*
X49581D02*
X50724D01*
X58953D02*
X62382D01*
X71526D02*
X75184D01*
X83871D02*
X87528D01*
X95987D02*
X99873D01*
X108102D02*
X111989D01*
X123647D02*
X127305D01*
X135534D02*
X139192D01*
X143307D02*
X147193D01*
X155651D02*
X159309D01*
X9576Y213208D02*
X10947D01*
X13005D02*
X14376D01*
X23063D02*
X37236D01*
X46152D02*
X47523D01*
X49581D02*
X50724D01*
X58953D02*
X62382D01*
X71526D02*
X75184D01*
X83871D02*
X87528D01*
X95987D02*
X99644D01*
X108331D02*
X111989D01*
X123647D02*
X127305D01*
X135534D02*
X139192D01*
X143307D02*
X147193D01*
X155651D02*
X159537D01*
X9576Y212979D02*
X10947D01*
X13005D02*
X14148D01*
X23292D02*
X37008D01*
X46380D02*
X47523D01*
X49581D02*
X50952D01*
X58953D02*
X62382D01*
X71526D02*
X75184D01*
X83871D02*
X87528D01*
X95987D02*
X99644D01*
X108331D02*
X111989D01*
X123647D02*
X127305D01*
X135534D02*
X138963D01*
X143307D02*
X147193D01*
X155651D02*
X159537D01*
X9576Y212750D02*
X10719D01*
X12776D02*
X14148D01*
X23520D02*
X36779D01*
X46380D02*
X47523D01*
X49581D02*
X50952D01*
X58953D02*
X62382D01*
X71526D02*
X75184D01*
X83871D02*
X87528D01*
X95987D02*
X99644D01*
X108331D02*
X111989D01*
X123647D02*
X127305D01*
X135306D02*
X138963D01*
X143307D02*
X146964D01*
X155651D02*
X159537D01*
X9576Y212522D02*
X10719D01*
X12776D02*
X14148D01*
X23520D02*
X36551D01*
X46380D02*
X47752D01*
X49809D02*
X50952D01*
X58953D02*
X62382D01*
X71526D02*
X75184D01*
X83871D02*
X87528D01*
X95987D02*
X99644D01*
X108331D02*
X111989D01*
X123647D02*
X127305D01*
X135306D02*
X138963D01*
X143307D02*
X146964D01*
X155880D02*
X159537D01*
X9576Y212293D02*
X10719D01*
X12776D02*
X13919D01*
X23749D02*
X36322D01*
X46380D02*
X47752D01*
X49809D02*
X50952D01*
X58953D02*
X62382D01*
X71526D02*
X75184D01*
X83871D02*
X87528D01*
X95758D02*
X99644D01*
X108331D02*
X111989D01*
X123647D02*
X127305D01*
X135306D02*
X138963D01*
X143307D02*
X146964D01*
X155880D02*
X159537D01*
X9576Y212065D02*
X10719D01*
X12776D02*
X13919D01*
X23978D02*
X36093D01*
X46609D02*
X47752D01*
X49809D02*
X50952D01*
X58953D02*
X62382D01*
X71526D02*
X75184D01*
X83871D02*
X87528D01*
X95758D02*
X99644D01*
X108331D02*
X111989D01*
X123647D02*
X127305D01*
X135077D02*
X138735D01*
X143307D02*
X146964D01*
X155880D02*
X159537D01*
X9347Y211836D02*
X10719D01*
X12776D02*
X13919D01*
X24435D02*
X35865D01*
X46609D02*
X47752D01*
X49809D02*
X51181D01*
X58953D02*
X62382D01*
X71526D02*
X75184D01*
X83871D02*
X87528D01*
X95758D02*
X99644D01*
X108331D02*
X111989D01*
X123647D02*
X127305D01*
X135077D02*
X138735D01*
X143307D02*
X146964D01*
X155880D02*
X159537D01*
X9347Y211607D02*
X10719D01*
X12548D02*
X13919D01*
X24663D02*
X35636D01*
X46609D02*
X47752D01*
X49809D02*
X51181D01*
X58953D02*
X62382D01*
X71526D02*
X75184D01*
X83871D02*
X87528D01*
X95758D02*
X99416D01*
X108331D02*
X111989D01*
X123647D02*
X127305D01*
X134849D02*
X138506D01*
X143307D02*
X146964D01*
X155880D02*
X159537D01*
X9347Y211379D02*
X10490D01*
X12548D02*
X13919D01*
X24892D02*
X35408D01*
X46609D02*
X47981D01*
X49809D02*
X51181D01*
X58953D02*
X62382D01*
X71526D02*
X75184D01*
X83871D02*
X87528D01*
X95758D02*
X99416D01*
X108331D02*
X111989D01*
X123647D02*
X127305D01*
X134620D02*
X138506D01*
X143307D02*
X146964D01*
X155880D02*
X159537D01*
X177368D02*
X178740D01*
X183540D02*
X185141D01*
X9347Y211150D02*
X10490D01*
X12548D02*
X13919D01*
X25349D02*
X34950D01*
X46609D02*
X47981D01*
X50038D02*
X51181D01*
X58953D02*
X62382D01*
X71526D02*
X75184D01*
X83871D02*
X87528D01*
X95758D02*
X99416D01*
X108331D02*
X111989D01*
X123647D02*
X127305D01*
X134391D02*
X138278D01*
X143307D02*
X146964D01*
X155880D02*
X159537D01*
X167996D02*
X170967D01*
X172110D02*
X175539D01*
X176682D02*
X179426D01*
X180797D02*
X181483D01*
X183083D02*
X185598D01*
X187198D02*
X188112D01*
X190170D02*
X190856D01*
X192684D02*
X193827D01*
X195656D02*
X196571D01*
X9347Y210922D02*
X10490D01*
X12548D02*
X13691D01*
X25578D02*
X34493D01*
X46609D02*
X47981D01*
X50038D02*
X51181D01*
X58953D02*
X62382D01*
X71526D02*
X75184D01*
X83871D02*
X87528D01*
X95758D02*
X99416D01*
X108331D02*
X111989D01*
X123647D02*
X127305D01*
X133934D02*
X138049D01*
X143307D02*
X146964D01*
X155880D02*
X159537D01*
X167996D02*
X171425D01*
X172110D02*
X175539D01*
X176454D02*
X179654D01*
X180797D02*
X181483D01*
X182855D02*
X185826D01*
X187198D02*
X188341D01*
X190170D02*
X190856D01*
X192684D02*
X193827D01*
X195656D02*
X196571D01*
X9347Y210693D02*
X10490D01*
X12548D02*
X13691D01*
X26035D02*
X34265D01*
X46838D02*
X47981D01*
X50038D02*
X51181D01*
X58953D02*
X62382D01*
X71526D02*
X75184D01*
X83871D02*
X87528D01*
X95758D02*
X99416D01*
X108560D02*
X111989D01*
X123647D02*
X137820D01*
X143307D02*
X146964D01*
X155880D02*
X159537D01*
X167996D02*
X171425D01*
X172110D02*
X175539D01*
X176225D02*
X177825D01*
X178283D02*
X179883D01*
X180797D02*
X181483D01*
X182626D02*
X183998D01*
X184683D02*
X186055D01*
X187198D02*
X188341D01*
X190170D02*
X190856D01*
X192456D02*
X194056D01*
X195656D02*
X196571D01*
X9347Y210464D02*
X10490D01*
X12548D02*
X13691D01*
X26492D02*
X33807D01*
X46838D02*
X47981D01*
X50038D02*
X51181D01*
X58953D02*
X62382D01*
X71526D02*
X75184D01*
X83871D02*
X87528D01*
X95758D02*
X99416D01*
X108560D02*
X111989D01*
X123647D02*
X137592D01*
X143307D02*
X146964D01*
X155880D02*
X159537D01*
X167996D02*
X168681D01*
X170510D02*
X171653D01*
X172110D02*
X173025D01*
X176225D02*
X177368D01*
X178740D02*
X179883D01*
X180797D02*
X181483D01*
X182397D02*
X183540D01*
X185141D02*
X186284D01*
X187198D02*
X188570D01*
X190170D02*
X190856D01*
X192456D02*
X194056D01*
X195656D02*
X196571D01*
X9347Y210236D02*
X10490D01*
X12548D02*
X13691D01*
X27178D02*
X33122D01*
X46838D02*
X47981D01*
X50038D02*
X51181D01*
X58953D02*
X62382D01*
X71526D02*
X75184D01*
X83871D02*
X87528D01*
X95758D02*
X99416D01*
X108560D02*
X111989D01*
X123647D02*
X137363D01*
X143307D02*
X146964D01*
X155880D02*
X159537D01*
X167996D02*
X168681D01*
X170739D02*
X171653D01*
X172110D02*
X173025D01*
X175997D02*
X177140D01*
X178968D02*
X179883D01*
X180797D02*
X181483D01*
X182397D02*
X183312D01*
X185369D02*
X186284D01*
X187198D02*
X188570D01*
X190170D02*
X190856D01*
X192456D02*
X193142D01*
X193370D02*
X194056D01*
X195656D02*
X196571D01*
X9347Y210007D02*
X10490D01*
X12548D02*
X13691D01*
X21234D02*
X38837D01*
X46838D02*
X47981D01*
X50038D02*
X51181D01*
X58953D02*
X62382D01*
X71526D02*
X75184D01*
X83871D02*
X87528D01*
X95758D02*
X99416D01*
X108560D02*
X111989D01*
X123647D02*
X136906D01*
X143307D02*
X146964D01*
X155880D02*
X159537D01*
X167996D02*
X168681D01*
X170739D02*
X171653D01*
X172110D02*
X173025D01*
X175997D02*
X176911D01*
X179197D02*
X180111D01*
X180797D02*
X181483D01*
X182169D02*
X183083D01*
X185598D02*
X186512D01*
X187198D02*
X188798D01*
X190170D02*
X190856D01*
X192227D02*
X193142D01*
X193370D02*
X194285D01*
X195656D02*
X196571D01*
X9347Y209779D02*
X10490D01*
X12548D02*
X13691D01*
X21234D02*
X38837D01*
X46838D02*
X47981D01*
X50038D02*
X51181D01*
X58953D02*
X62382D01*
X71526D02*
X75184D01*
X83871D02*
X87528D01*
X95758D02*
X99416D01*
X108560D02*
X111989D01*
X123647D02*
X136677D01*
X143307D02*
X146964D01*
X155880D02*
X159537D01*
X167996D02*
X168681D01*
X170739D02*
X171653D01*
X172110D02*
X173025D01*
X175768D02*
X176682D01*
X179197D02*
X180111D01*
X180797D02*
X181483D01*
X182169D02*
X183083D01*
X185598D02*
X186512D01*
X187198D02*
X189027D01*
X190170D02*
X190856D01*
X192227D02*
X193142D01*
X193370D02*
X194285D01*
X195656D02*
X196571D01*
X9119Y209550D02*
X10490D01*
X12548D02*
X13691D01*
X21234D02*
X38837D01*
X46838D02*
X47981D01*
X50038D02*
X51181D01*
X58953D02*
X62382D01*
X71526D02*
X75184D01*
X83871D02*
X87528D01*
X95758D02*
X99416D01*
X108560D02*
X111989D01*
X123647D02*
X137135D01*
X143307D02*
X146964D01*
X155880D02*
X159537D01*
X167996D02*
X168681D01*
X170510D02*
X171425D01*
X172110D02*
X173025D01*
X175768D02*
X176682D01*
X180797D02*
X181483D01*
X182169D02*
X183083D01*
X185598D02*
X186512D01*
X187198D02*
X187884D01*
X188112D02*
X189027D01*
X190170D02*
X190856D01*
X191999D02*
X192913D01*
X193599D02*
X194513D01*
X195656D02*
X196571D01*
X9119Y209321D02*
X10490D01*
X12548D02*
X13691D01*
X21234D02*
X38837D01*
X46838D02*
X47981D01*
X50038D02*
X51181D01*
X58953D02*
X62382D01*
X71526D02*
X75184D01*
X83871D02*
X87528D01*
X95758D02*
X99416D01*
X108560D02*
X111989D01*
X123647D02*
X137592D01*
X143307D02*
X146964D01*
X155880D02*
X159537D01*
X167996D02*
X168681D01*
X170053D02*
X171425D01*
X172110D02*
X175311D01*
X175768D02*
X176682D01*
X180797D02*
X181483D01*
X182169D02*
X182855D01*
X185826D02*
X186512D01*
X187198D02*
X187884D01*
X188341D02*
X189255D01*
X190170D02*
X190856D01*
X191999D02*
X192913D01*
X193599D02*
X194513D01*
X195656D02*
X196571D01*
X9119Y209093D02*
X10490D01*
X12548D02*
X13691D01*
X21234D02*
X38837D01*
X46838D02*
X47981D01*
X50038D02*
X51181D01*
X58953D02*
X62382D01*
X71526D02*
X75184D01*
X83871D02*
X87528D01*
X95758D02*
X99416D01*
X108560D02*
X111989D01*
X123647D02*
X138049D01*
X143307D02*
X146964D01*
X155880D02*
X159537D01*
X167996D02*
X171196D01*
X172110D02*
X175311D01*
X175768D02*
X176682D01*
X177825D02*
X180111D01*
X180797D02*
X181483D01*
X182169D02*
X182855D01*
X185826D02*
X186512D01*
X187198D02*
X187884D01*
X188341D02*
X189484D01*
X190170D02*
X190856D01*
X191999D02*
X192913D01*
X193599D02*
X194513D01*
X195656D02*
X196571D01*
X9119Y208864D02*
X10490D01*
X12548D02*
X13691D01*
X21234D02*
X38837D01*
X46838D02*
X47981D01*
X50038D02*
X51181D01*
X58953D02*
X62382D01*
X71526D02*
X75184D01*
X83871D02*
X87528D01*
X95758D02*
X99416D01*
X108560D02*
X111989D01*
X123647D02*
X138278D01*
X143307D02*
X146964D01*
X155880D02*
X159537D01*
X167996D02*
X171196D01*
X172110D02*
X175311D01*
X175768D02*
X176682D01*
X177825D02*
X180111D01*
X180797D02*
X181483D01*
X182169D02*
X182855D01*
X185826D02*
X186512D01*
X187198D02*
X187884D01*
X188570D02*
X189484D01*
X190170D02*
X190856D01*
X191770D02*
X192684D01*
X193827D02*
X194742D01*
X195656D02*
X196571D01*
X9119Y208636D02*
X10490D01*
X12548D02*
X13691D01*
X21234D02*
X38837D01*
X46838D02*
X47981D01*
X50038D02*
X51181D01*
X58953D02*
X62382D01*
X71526D02*
X75184D01*
X83871D02*
X87528D01*
X95758D02*
X99416D01*
X108560D02*
X111989D01*
X123647D02*
X138506D01*
X143307D02*
X146964D01*
X155880D02*
X159537D01*
X167996D02*
X171425D01*
X172110D02*
X173025D01*
X175768D02*
X176682D01*
X177825D02*
X180111D01*
X180797D02*
X181483D01*
X182169D02*
X183083D01*
X185826D02*
X186512D01*
X187198D02*
X187884D01*
X188798D02*
X189713D01*
X190170D02*
X190856D01*
X191770D02*
X194742D01*
X195656D02*
X196571D01*
X9119Y208407D02*
X10490D01*
X12548D02*
X13691D01*
X21234D02*
X38837D01*
X46838D02*
X47981D01*
X50038D02*
X51181D01*
X58953D02*
X62382D01*
X71526D02*
X75184D01*
X83871D02*
X87528D01*
X95758D02*
X99416D01*
X108560D02*
X111989D01*
X123647D02*
X138735D01*
X143307D02*
X146964D01*
X155880D02*
X159537D01*
X167996D02*
X168681D01*
X170510D02*
X171425D01*
X172110D02*
X173025D01*
X175768D02*
X176682D01*
X179426D02*
X180111D01*
X180797D02*
X181483D01*
X182169D02*
X183083D01*
X185598D02*
X186512D01*
X187198D02*
X187884D01*
X188798D02*
X189941D01*
X190170D02*
X190856D01*
X191770D02*
X194742D01*
X195656D02*
X196571D01*
X9119Y208178D02*
X10490D01*
X12548D02*
X13691D01*
X21234D02*
X38837D01*
X46838D02*
X47981D01*
X50038D02*
X51181D01*
X58953D02*
X62382D01*
X71526D02*
X75184D01*
X83871D02*
X87528D01*
X95758D02*
X99416D01*
X108560D02*
X111989D01*
X123647D02*
X138963D01*
X143307D02*
X146964D01*
X155880D02*
X159537D01*
X167996D02*
X168681D01*
X170510D02*
X171425D01*
X172110D02*
X173025D01*
X175768D02*
X176682D01*
X179197D02*
X180111D01*
X180797D02*
X181483D01*
X182169D02*
X183083D01*
X185598D02*
X186512D01*
X187198D02*
X187884D01*
X189027D02*
X189941D01*
X190170D02*
X190856D01*
X191541D02*
X194970D01*
X195656D02*
X196571D01*
X9119Y207950D02*
X10490D01*
X12548D02*
X13691D01*
X21234D02*
X38837D01*
X46838D02*
X47981D01*
X50038D02*
X51181D01*
X58953D02*
X62382D01*
X71526D02*
X75184D01*
X83871D02*
X87528D01*
X95758D02*
X99416D01*
X108560D02*
X111989D01*
X123647D02*
X127305D01*
X133934D02*
X139192D01*
X143307D02*
X146964D01*
X155880D02*
X159537D01*
X167996D02*
X168681D01*
X170739D02*
X171425D01*
X172110D02*
X173025D01*
X175997D02*
X176911D01*
X179197D02*
X180111D01*
X180797D02*
X181483D01*
X182169D02*
X183312D01*
X185369D02*
X186512D01*
X187198D02*
X187884D01*
X189255D02*
X190856D01*
X191541D02*
X192456D01*
X194056D02*
X194970D01*
X195656D02*
X196571D01*
X9119Y207721D02*
X10490D01*
X12548D02*
X13691D01*
X21234D02*
X38837D01*
X46838D02*
X47981D01*
X50038D02*
X51181D01*
X58953D02*
X62382D01*
X71526D02*
X75184D01*
X83871D02*
X87528D01*
X95758D02*
X99416D01*
X108560D02*
X111989D01*
X123647D02*
X127305D01*
X134620D02*
X139192D01*
X143307D02*
X146964D01*
X155880D02*
X159537D01*
X167996D02*
X168681D01*
X170739D02*
X171425D01*
X172110D02*
X173025D01*
X175997D02*
X177140D01*
X178968D02*
X180111D01*
X180797D02*
X181483D01*
X182397D02*
X183312D01*
X185369D02*
X186284D01*
X187198D02*
X187884D01*
X189255D02*
X190856D01*
X191313D02*
X192227D01*
X194285D02*
X195199D01*
X195656D02*
X196571D01*
X9347Y207493D02*
X10490D01*
X12548D02*
X13691D01*
X21234D02*
X38837D01*
X46838D02*
X47981D01*
X50038D02*
X51181D01*
X58953D02*
X62382D01*
X71526D02*
X75184D01*
X83871D02*
X87528D01*
X95758D02*
X99416D01*
X108560D02*
X111989D01*
X123647D02*
X127305D01*
X135077D02*
X139421D01*
X143307D02*
X146964D01*
X155880D02*
X159537D01*
X167996D02*
X168681D01*
X170739D02*
X171425D01*
X172110D02*
X173025D01*
X176225D02*
X177368D01*
X178740D02*
X180111D01*
X180797D02*
X181483D01*
X182397D02*
X183769D01*
X184912D02*
X186284D01*
X187198D02*
X187884D01*
X189484D02*
X190856D01*
X191313D02*
X192227D01*
X194285D02*
X195199D01*
X195656D02*
X196571D01*
X9347Y207264D02*
X10490D01*
X12548D02*
X13691D01*
X21234D02*
X38837D01*
X46838D02*
X47981D01*
X50038D02*
X51181D01*
X58953D02*
X62382D01*
X71526D02*
X75184D01*
X83871D02*
X87528D01*
X95758D02*
X99416D01*
X108560D02*
X111989D01*
X123647D02*
X127305D01*
X135534D02*
X139421D01*
X143307D02*
X146964D01*
X155880D02*
X159537D01*
X167996D02*
X168681D01*
X170739D02*
X171653D01*
X172110D02*
X175539D01*
X176225D02*
X180111D01*
X180797D02*
X181483D01*
X182626D02*
X186055D01*
X187198D02*
X187884D01*
X189713D02*
X190856D01*
X191313D02*
X192227D01*
X194285D02*
X195199D01*
X195656D02*
X198857D01*
X9347Y207035D02*
X10490D01*
X12548D02*
X13691D01*
X21234D02*
X38837D01*
X46838D02*
X47981D01*
X50038D02*
X51181D01*
X58953D02*
X62382D01*
X71526D02*
X75184D01*
X83871D02*
X87528D01*
X95758D02*
X99416D01*
X108560D02*
X111989D01*
X123647D02*
X127305D01*
X135763D02*
X139649D01*
X143307D02*
X159537D01*
X167996D02*
X168681D01*
X170739D02*
X171653D01*
X172110D02*
X175539D01*
X176454D02*
X180111D01*
X180797D02*
X181483D01*
X182855D02*
X185826D01*
X187198D02*
X187884D01*
X189713D02*
X190856D01*
X191084D02*
X191999D01*
X194513D02*
X195428D01*
X195656D02*
X198857D01*
X9347Y206807D02*
X10490D01*
X12548D02*
X13691D01*
X26949D02*
X33350D01*
X46838D02*
X47981D01*
X50038D02*
X51181D01*
X58953D02*
X62382D01*
X71526D02*
X75184D01*
X83871D02*
X87528D01*
X95758D02*
X99416D01*
X108560D02*
X111989D01*
X123647D02*
X127305D01*
X135763D02*
X139649D01*
X143307D02*
X159537D01*
X167996D02*
X168681D01*
X170739D02*
X171653D01*
X172110D02*
X175539D01*
X176911D02*
X179197D01*
X179426D02*
X180111D01*
X180797D02*
X181483D01*
X183312D02*
X185598D01*
X187198D02*
X187884D01*
X189941D02*
X190856D01*
X191084D02*
X191999D01*
X194513D02*
X195428D01*
X195656D02*
X198857D01*
X9347Y206578D02*
X10490D01*
X12548D02*
X13691D01*
X26264D02*
X33807D01*
X46838D02*
X47981D01*
X50038D02*
X51181D01*
X58953D02*
X62611D01*
X71526D02*
X75184D01*
X83871D02*
X87528D01*
X95758D02*
X99416D01*
X108560D02*
X111989D01*
X123647D02*
X127305D01*
X135992D02*
X139878D01*
X143307D02*
X159537D01*
X177597D02*
X178283D01*
X183998D02*
X184683D01*
X9347Y206350D02*
X10490D01*
X12548D02*
X13691D01*
X25806D02*
X34265D01*
X46609D02*
X47981D01*
X50038D02*
X51181D01*
X58953D02*
X62611D01*
X71526D02*
X75184D01*
X83871D02*
X87528D01*
X95758D02*
X99416D01*
X108560D02*
X111989D01*
X123647D02*
X127305D01*
X135992D02*
X139878D01*
X143307D02*
X159537D01*
X9347Y206121D02*
X10490D01*
X12548D02*
X13919D01*
X25578D02*
X34722D01*
X46609D02*
X47981D01*
X50038D02*
X51181D01*
X58953D02*
X62611D01*
X71298D02*
X75184D01*
X83871D02*
X87528D01*
X95758D02*
X99416D01*
X108560D02*
X111989D01*
X123647D02*
X127305D01*
X136220D02*
X139878D01*
X143307D02*
X159537D01*
X9347Y205892D02*
X10490D01*
X12548D02*
X13919D01*
X25121D02*
X35179D01*
X46609D02*
X47752D01*
X49809D02*
X51181D01*
X58953D02*
X62611D01*
X71298D02*
X75184D01*
X83871D02*
X87528D01*
X95758D02*
X99416D01*
X108560D02*
X111989D01*
X123647D02*
X127305D01*
X136220D02*
X139878D01*
X143307D02*
X159537D01*
X9347Y205664D02*
X10719D01*
X12776D02*
X13919D01*
X24892D02*
X35408D01*
X46609D02*
X47752D01*
X49809D02*
X51181D01*
X58953D02*
X62611D01*
X71298D02*
X75184D01*
X83871D02*
X87528D01*
X95758D02*
X99416D01*
X108560D02*
X111989D01*
X123647D02*
X127305D01*
X136220D02*
X139878D01*
X143307D02*
X159537D01*
X9347Y205435D02*
X10719D01*
X12776D02*
X13919D01*
X24435D02*
X35636D01*
X46609D02*
X47752D01*
X49809D02*
X50952D01*
X58953D02*
X62611D01*
X71298D02*
X74955D01*
X83871D02*
X87528D01*
X95758D02*
X99416D01*
X108560D02*
X111989D01*
X123647D02*
X127305D01*
X136220D02*
X139878D01*
X143307D02*
X159537D01*
X9576Y205207D02*
X10719D01*
X12776D02*
X13919D01*
X24206D02*
X36093D01*
X46380D02*
X47752D01*
X49809D02*
X50952D01*
X58953D02*
X62611D01*
X71298D02*
X74955D01*
X83871D02*
X87528D01*
X95758D02*
X99416D01*
X108560D02*
X111989D01*
X123647D02*
X127305D01*
X136449D02*
X139878D01*
X143307D02*
X159537D01*
X9576Y204978D02*
X10719D01*
X12776D02*
X14148D01*
X23978D02*
X36322D01*
X46380D02*
X47752D01*
X49809D02*
X50952D01*
X58953D02*
X62611D01*
X71298D02*
X74955D01*
X83871D02*
X87528D01*
X95758D02*
X99416D01*
X108560D02*
X111989D01*
X123647D02*
X127305D01*
X136449D02*
X139878D01*
X143307D02*
X159537D01*
X9576Y204749D02*
X10719D01*
X12776D02*
X14148D01*
X23749D02*
X36551D01*
X46380D02*
X47752D01*
X49581D02*
X50952D01*
X58953D02*
X62611D01*
X71298D02*
X74955D01*
X83871D02*
X87528D01*
X95758D02*
X99416D01*
X108560D02*
X111989D01*
X123647D02*
X127305D01*
X136220D02*
X139878D01*
X143307D02*
X159537D01*
X9576Y204521D02*
X10947D01*
X13005D02*
X14148D01*
X23520D02*
X36779D01*
X46380D02*
X47523D01*
X49581D02*
X50952D01*
X58953D02*
X62840D01*
X71069D02*
X74955D01*
X83871D02*
X87528D01*
X95758D02*
X99416D01*
X108560D02*
X111989D01*
X123647D02*
X127305D01*
X136220D02*
X139878D01*
X143307D02*
X159537D01*
X9576Y204292D02*
X10947D01*
X13005D02*
X14148D01*
X23292D02*
X36779D01*
X46152D02*
X47523D01*
X49581D02*
X50952D01*
X58953D02*
X62840D01*
X71069D02*
X74955D01*
X83871D02*
X87528D01*
X95758D02*
X99416D01*
X108560D02*
X111989D01*
X123647D02*
X127305D01*
X136220D02*
X139878D01*
X143307D02*
X146964D01*
X155880D02*
X159537D01*
X9804Y204064D02*
X10947D01*
X13005D02*
X14376D01*
X23063D02*
X37008D01*
X46152D02*
X47523D01*
X49581D02*
X50724D01*
X58953D02*
X62840D01*
X71069D02*
X74955D01*
X83871D02*
X87528D01*
X95758D02*
X99416D01*
X108560D02*
X111989D01*
X123647D02*
X127305D01*
X136220D02*
X139878D01*
X143307D02*
X146964D01*
X155880D02*
X159537D01*
X9804Y203835D02*
X10947D01*
X13005D02*
X14376D01*
X23063D02*
X37236D01*
X46152D02*
X47523D01*
X49581D02*
X50724D01*
X59182D02*
X63068D01*
X70841D02*
X74727D01*
X83871D02*
X87528D01*
X95758D02*
X99416D01*
X108560D02*
X111989D01*
X123647D02*
X127305D01*
X135992D02*
X139878D01*
X143307D02*
X146964D01*
X155880D02*
X159537D01*
X167996D02*
X170510D01*
X172110D02*
X173025D01*
X175082D02*
X175997D01*
X176682D02*
X180111D01*
X180569D02*
X181483D01*
X183540D02*
X184226D01*
X186055D02*
X187884D01*
X190398D02*
X192227D01*
X196799D02*
X197714D01*
X199771D02*
X200457D01*
X201143D02*
X203886D01*
X205486D02*
X208686D01*
X210058D02*
X211887D01*
X9804Y203606D02*
X11176D01*
X13233D02*
X14376D01*
X22835D02*
X37465D01*
X46152D02*
X47295D01*
X49352D02*
X50724D01*
X59182D02*
X63068D01*
X70841D02*
X74727D01*
X83871D02*
X87528D01*
X95758D02*
X99416D01*
X108560D02*
X111989D01*
X123647D02*
X127305D01*
X135992D02*
X139878D01*
X143307D02*
X146964D01*
X155880D02*
X159537D01*
X167996D02*
X170967D01*
X172110D02*
X173025D01*
X175082D02*
X175997D01*
X176682D02*
X180111D01*
X180569D02*
X181483D01*
X183540D02*
X184226D01*
X185598D02*
X188341D01*
X190170D02*
X192684D01*
X196571D02*
X197714D01*
X199771D02*
X200457D01*
X201143D02*
X204343D01*
X205486D02*
X208686D01*
X209601D02*
X212115D01*
X9804Y203378D02*
X11176D01*
X13233D02*
X14605D01*
X22606D02*
X28321D01*
X28550D02*
X31750D01*
X31979D02*
X37465D01*
X45923D02*
X47295D01*
X49352D02*
X50724D01*
X59182D02*
X63297D01*
X70612D02*
X74727D01*
X83871D02*
X87528D01*
X95758D02*
X99416D01*
X108560D02*
X111989D01*
X123647D02*
X127305D01*
X135763D02*
X139878D01*
X143307D02*
X146964D01*
X155880D02*
X159537D01*
X167996D02*
X171196D01*
X172110D02*
X173025D01*
X175082D02*
X175997D01*
X176682D02*
X180111D01*
X180569D02*
X181712D01*
X183540D02*
X184226D01*
X185369D02*
X188570D01*
X189941D02*
X192913D01*
X196571D02*
X197714D01*
X199771D02*
X200457D01*
X201143D02*
X204572D01*
X205486D02*
X208686D01*
X209372D02*
X212344D01*
X10033Y203149D02*
X11176D01*
X13233D02*
X14605D01*
X22606D02*
X27864D01*
X28550D02*
X31750D01*
X32436D02*
X37694D01*
X45923D02*
X47295D01*
X49352D02*
X50495D01*
X59411D02*
X63525D01*
X70383D02*
X74498D01*
X83871D02*
X87528D01*
X95758D02*
X99416D01*
X108560D02*
X111989D01*
X117246D02*
X118618D01*
X123647D02*
X127305D01*
X135763D02*
X139878D01*
X143307D02*
X146964D01*
X155880D02*
X159537D01*
X167996D02*
X171425D01*
X172110D02*
X173025D01*
X175082D02*
X175997D01*
X176682D02*
X180111D01*
X180569D02*
X181712D01*
X183540D02*
X184226D01*
X185141D02*
X186512D01*
X187427D02*
X188798D01*
X189713D02*
X190856D01*
X191770D02*
X192913D01*
X196571D02*
X197942D01*
X199771D02*
X200457D01*
X201143D02*
X204800D01*
X205486D02*
X208686D01*
X209372D02*
X210515D01*
X211201D02*
X212573D01*
X10033Y202921D02*
X11176D01*
X13462D02*
X14605D01*
X22377D02*
X27407D01*
X28550D02*
X31750D01*
X32893D02*
X37922D01*
X45923D02*
X47066D01*
X49124D02*
X50495D01*
X59411D02*
X63754D01*
X70155D02*
X74498D01*
X83871D02*
X87528D01*
X95758D02*
X99416D01*
X108560D02*
X111989D01*
X116789D02*
X119075D01*
X123647D02*
X127305D01*
X135534D02*
X139649D01*
X143307D02*
X146964D01*
X155880D02*
X159537D01*
X167996D02*
X168681D01*
X170510D02*
X171425D01*
X172110D02*
X173025D01*
X175082D02*
X175997D01*
X176682D02*
X177597D01*
X180569D02*
X181940D01*
X183540D02*
X184226D01*
X185141D02*
X186284D01*
X187884D02*
X189027D01*
X189713D02*
X190627D01*
X191999D02*
X193142D01*
X196342D02*
X197942D01*
X199771D02*
X200457D01*
X201143D02*
X202057D01*
X203886D02*
X204800D01*
X205486D02*
X206400D01*
X209144D02*
X210058D01*
X211658D02*
X212573D01*
X10033Y202692D02*
X11405D01*
X13462D02*
X14834D01*
X22377D02*
X26949D01*
X28550D02*
X31750D01*
X33122D02*
X37922D01*
X45695D02*
X47066D01*
X49124D02*
X50495D01*
X59411D02*
X63983D01*
X69926D02*
X74498D01*
X83871D02*
X87528D01*
X95758D02*
X99416D01*
X108560D02*
X111989D01*
X116332D02*
X119532D01*
X123647D02*
X127305D01*
X135077D02*
X139649D01*
X143307D02*
X146964D01*
X155880D02*
X159537D01*
X167996D02*
X168681D01*
X170510D02*
X171425D01*
X172110D02*
X173025D01*
X175082D02*
X175997D01*
X176682D02*
X177597D01*
X180569D02*
X182169D01*
X183540D02*
X184226D01*
X184912D02*
X186055D01*
X188112D02*
X189027D01*
X189713D02*
X190398D01*
X192227D02*
X193142D01*
X196342D02*
X197028D01*
X197256D02*
X198171D01*
X199771D02*
X200457D01*
X201143D02*
X202057D01*
X204114D02*
X204800D01*
X205486D02*
X206400D01*
X209144D02*
X210058D01*
X211887D02*
X212573D01*
X10033Y202463D02*
X11405D01*
X13462D02*
X14834D01*
X22149D02*
X26721D01*
X28550D02*
X31750D01*
X33579D02*
X38151D01*
X45695D02*
X47066D01*
X49124D02*
X50267D01*
X59639D02*
X64211D01*
X69698D02*
X74270D01*
X83871D02*
X87528D01*
X95758D02*
X99416D01*
X108560D02*
X111989D01*
X116103D02*
X119761D01*
X123647D02*
X127305D01*
X134620D02*
X139649D01*
X143307D02*
X146964D01*
X155880D02*
X159537D01*
X167996D02*
X168681D01*
X170510D02*
X171425D01*
X172110D02*
X173025D01*
X175082D02*
X175997D01*
X176682D02*
X177597D01*
X180569D02*
X182169D01*
X183540D02*
X184226D01*
X184912D02*
X185826D01*
X188112D02*
X189255D01*
X189713D02*
X190627D01*
X192227D02*
X193142D01*
X196113D02*
X197028D01*
X197256D02*
X198171D01*
X199771D02*
X200457D01*
X201143D02*
X202057D01*
X204114D02*
X204800D01*
X205486D02*
X206400D01*
X209144D02*
X210058D01*
X211887D02*
X212573D01*
X10262Y202235D02*
X11405D01*
X13691D02*
X15062D01*
X22149D02*
X26492D01*
X28550D02*
X31750D01*
X33807D02*
X38151D01*
X45466D02*
X46838D01*
X48895D02*
X50267D01*
X59639D02*
X64668D01*
X69240D02*
X74270D01*
X83871D02*
X87528D01*
X95758D02*
X99416D01*
X108560D02*
X111989D01*
X116103D02*
X119990D01*
X123647D02*
X127305D01*
X133934D02*
X139421D01*
X143307D02*
X146964D01*
X155880D02*
X159537D01*
X167996D02*
X168681D01*
X170510D02*
X171425D01*
X172110D02*
X173025D01*
X175082D02*
X175997D01*
X176682D02*
X177597D01*
X180569D02*
X181254D01*
X181483D02*
X182397D01*
X183540D02*
X184226D01*
X184912D02*
X185826D01*
X188341D02*
X189255D01*
X189713D02*
X190856D01*
X196113D02*
X197028D01*
X197485D02*
X198171D01*
X199771D02*
X200457D01*
X201143D02*
X202057D01*
X203886D02*
X204800D01*
X205486D02*
X206400D01*
X209144D02*
X210287D01*
X10262Y202006D02*
X11633D01*
X13691D02*
X15062D01*
X21920D02*
X26264D01*
X28550D02*
X31750D01*
X34036D02*
X38379D01*
X45466D02*
X46838D01*
X48895D02*
X50267D01*
X59868D02*
X65583D01*
X68326D02*
X74041D01*
X83871D02*
X87528D01*
X95758D02*
X99416D01*
X108560D02*
X111989D01*
X115875D02*
X119990D01*
X123647D02*
X139421D01*
X143307D02*
X146964D01*
X155880D02*
X159537D01*
X167996D02*
X168681D01*
X170282D02*
X171425D01*
X172110D02*
X173025D01*
X175082D02*
X175997D01*
X176682D02*
X177597D01*
X180569D02*
X181254D01*
X181483D02*
X182626D01*
X183540D02*
X184226D01*
X184683D02*
X185598D01*
X188341D02*
X189255D01*
X189713D02*
X191541D01*
X196113D02*
X196799D01*
X197485D02*
X198399D01*
X199771D02*
X200457D01*
X201143D02*
X202057D01*
X203886D02*
X204800D01*
X205486D02*
X206400D01*
X209144D02*
X210972D01*
X10262Y201778D02*
X11633D01*
X13691D02*
X15062D01*
X21920D02*
X26035D01*
X28550D02*
X31750D01*
X34265D02*
X38379D01*
X45237D02*
X46609D01*
X48895D02*
X50038D01*
X60096D02*
X74041D01*
X83871D02*
X87528D01*
X95758D02*
X99416D01*
X108560D02*
X111989D01*
X115875D02*
X120218D01*
X123647D02*
X139192D01*
X143307D02*
X146964D01*
X155880D02*
X159537D01*
X167996D02*
X171196D01*
X172110D02*
X173025D01*
X175082D02*
X175997D01*
X176682D02*
X179883D01*
X180569D02*
X181254D01*
X181712D02*
X182626D01*
X183540D02*
X184226D01*
X184683D02*
X185598D01*
X188341D02*
X189255D01*
X189941D02*
X192456D01*
X195885D02*
X196799D01*
X197485D02*
X198399D01*
X199771D02*
X200457D01*
X201143D02*
X204800D01*
X205486D02*
X208686D01*
X209372D02*
X211887D01*
X10490Y201549D02*
X11862D01*
X13919D02*
X15291D01*
X21692D02*
X25806D01*
X28550D02*
X31750D01*
X34265D02*
X38379D01*
X45237D02*
X46609D01*
X48666D02*
X50038D01*
X60096D02*
X73812D01*
X83871D02*
X87528D01*
X95758D02*
X99416D01*
X108560D02*
X111989D01*
X115646D02*
X120218D01*
X123647D02*
X139192D01*
X143307D02*
X146964D01*
X155880D02*
X159537D01*
X167996D02*
X171196D01*
X172110D02*
X173025D01*
X175082D02*
X175997D01*
X176682D02*
X179883D01*
X180569D02*
X181254D01*
X181940D02*
X182855D01*
X183540D02*
X184226D01*
X184683D02*
X185598D01*
X188341D02*
X189255D01*
X190170D02*
X192913D01*
X195885D02*
X196799D01*
X197714D02*
X198628D01*
X199771D02*
X200457D01*
X201143D02*
X204572D01*
X205486D02*
X208686D01*
X209601D02*
X212344D01*
X10490Y201320D02*
X11862D01*
X13919D02*
X15291D01*
X21692D02*
X25806D01*
X28550D02*
X31750D01*
X34493D02*
X38608D01*
X45009D02*
X46609D01*
X48666D02*
X50038D01*
X60325D02*
X73584D01*
X83871D02*
X87528D01*
X95758D02*
X99416D01*
X108560D02*
X111989D01*
X115646D02*
X120218D01*
X123647D02*
X138963D01*
X143307D02*
X146964D01*
X155880D02*
X159537D01*
X167996D02*
X171425D01*
X172110D02*
X173025D01*
X175082D02*
X175997D01*
X176682D02*
X179883D01*
X180569D02*
X181254D01*
X181940D02*
X183083D01*
X183540D02*
X184226D01*
X184683D02*
X185598D01*
X188341D02*
X189255D01*
X190856D02*
X193142D01*
X195656D02*
X196571D01*
X197714D02*
X198628D01*
X199771D02*
X200457D01*
X201143D02*
X204572D01*
X205486D02*
X208686D01*
X210287D02*
X212573D01*
X10490Y201092D02*
X11862D01*
X14148D02*
X15519D01*
X21692D02*
X25578D01*
X28550D02*
X31750D01*
X34722D02*
X38608D01*
X45009D02*
X46380D01*
X48666D02*
X49809D01*
X60554D02*
X73355D01*
X83871D02*
X87528D01*
X95758D02*
X99416D01*
X108560D02*
X111989D01*
X115646D02*
X120218D01*
X123647D02*
X138735D01*
X143307D02*
X146964D01*
X155880D02*
X159537D01*
X167996D02*
X168681D01*
X170510D02*
X171653D01*
X172110D02*
X173025D01*
X175082D02*
X175997D01*
X176682D02*
X177597D01*
X180569D02*
X181254D01*
X182169D02*
X183083D01*
X183540D02*
X184226D01*
X184683D02*
X185598D01*
X188341D02*
X189255D01*
X191770D02*
X193142D01*
X195656D02*
X198628D01*
X199771D02*
X200457D01*
X201143D02*
X204572D01*
X205486D02*
X206400D01*
X211201D02*
X212801D01*
X10719Y200863D02*
X12090D01*
X14148D02*
X15519D01*
X21463D02*
X25578D01*
X28550D02*
X31750D01*
X34722D02*
X38608D01*
X44780D02*
X46380D01*
X48438D02*
X49809D01*
X60782D02*
X73127D01*
X83871D02*
X87528D01*
X95758D02*
X99416D01*
X108560D02*
X111989D01*
X115646D02*
X120218D01*
X123647D02*
X138506D01*
X143307D02*
X146964D01*
X155880D02*
X159537D01*
X167996D02*
X168681D01*
X170739D02*
X171653D01*
X172110D02*
X173025D01*
X175082D02*
X175997D01*
X176682D02*
X177597D01*
X180569D02*
X181254D01*
X182397D02*
X183312D01*
X183540D02*
X184226D01*
X184912D02*
X185598D01*
X188341D02*
X189255D01*
X189484D02*
X190398D01*
X192227D02*
X193370D01*
X195656D02*
X198857D01*
X199771D02*
X200457D01*
X201143D02*
X202057D01*
X203886D02*
X204800D01*
X205486D02*
X206400D01*
X209144D02*
X209829D01*
X211887D02*
X212801D01*
X10719Y200635D02*
X12090D01*
X14376D02*
X15748D01*
X21463D02*
X25349D01*
X28550D02*
X31750D01*
X34950D02*
X38837D01*
X44780D02*
X46152D01*
X48438D02*
X49809D01*
X61011D02*
X72898D01*
X83871D02*
X87528D01*
X95758D02*
X99416D01*
X108560D02*
X111989D01*
X115646D02*
X120218D01*
X123647D02*
X138278D01*
X143307D02*
X146964D01*
X155880D02*
X159537D01*
X167996D02*
X168681D01*
X170739D02*
X171653D01*
X172110D02*
X173025D01*
X175082D02*
X175997D01*
X176682D02*
X177597D01*
X180569D02*
X181254D01*
X182397D02*
X184226D01*
X184912D02*
X185826D01*
X188341D02*
X189255D01*
X189484D02*
X190398D01*
X192456D02*
X193370D01*
X195428D02*
X198857D01*
X199771D02*
X200457D01*
X201143D02*
X202057D01*
X203886D02*
X204800D01*
X205486D02*
X206400D01*
X209144D02*
X209829D01*
X211887D02*
X212801D01*
X10947Y200406D02*
X12319D01*
X14376D02*
X15977D01*
X21463D02*
X25349D01*
X28550D02*
X31750D01*
X34950D02*
X38837D01*
X44552D02*
X46152D01*
X48209D02*
X49581D01*
X61239D02*
X72669D01*
X83871D02*
X87528D01*
X95758D02*
X99416D01*
X108560D02*
X111989D01*
X115646D02*
X120218D01*
X123647D02*
X137820D01*
X143307D02*
X146964D01*
X155880D02*
X159537D01*
X167996D02*
X168681D01*
X170739D02*
X171653D01*
X172110D02*
X173025D01*
X175082D02*
X175997D01*
X176682D02*
X177597D01*
X180569D02*
X181254D01*
X182626D02*
X184226D01*
X184912D02*
X185826D01*
X188112D02*
X189027D01*
X189484D02*
X190398D01*
X192456D02*
X193370D01*
X195428D02*
X196342D01*
X197942D02*
X199085D01*
X199771D02*
X200457D01*
X201143D02*
X202057D01*
X203886D02*
X204800D01*
X205486D02*
X206400D01*
X209144D02*
X209829D01*
X212115D02*
X212801D01*
X10947Y200177D02*
X12319D01*
X14605D02*
X15977D01*
X21463D02*
X25121D01*
X28550D02*
X31750D01*
X35179D02*
X38837D01*
X44552D02*
X45923D01*
X48209D02*
X49581D01*
X61468D02*
X72441D01*
X83871D02*
X87528D01*
X95758D02*
X99416D01*
X108560D02*
X111989D01*
X115646D02*
X120218D01*
X123647D02*
X137592D01*
X143307D02*
X146964D01*
X155880D02*
X159537D01*
X167996D02*
X168681D01*
X170739D02*
X171653D01*
X172339D02*
X173253D01*
X174854D02*
X175997D01*
X176682D02*
X177597D01*
X180569D02*
X181254D01*
X182855D02*
X184226D01*
X185141D02*
X186055D01*
X187884D02*
X189027D01*
X189484D02*
X190627D01*
X192456D02*
X193370D01*
X195199D02*
X196113D01*
X198171D02*
X199085D01*
X199771D02*
X200457D01*
X201143D02*
X202057D01*
X204114D02*
X204800D01*
X205486D02*
X206400D01*
X209144D02*
X210058D01*
X211887D02*
X212801D01*
X11176Y199949D02*
X12548D01*
X14605D02*
X16205D01*
X21463D02*
X25121D01*
X28550D02*
X31750D01*
X35179D02*
X38837D01*
X44323D02*
X45695D01*
X47981D02*
X49352D01*
X61925D02*
X72212D01*
X83871D02*
X87528D01*
X95758D02*
X99416D01*
X108560D02*
X111989D01*
X115875D02*
X119990D01*
X123647D02*
X137135D01*
X143307D02*
X146964D01*
X155880D02*
X159537D01*
X167996D02*
X168681D01*
X170282D02*
X171653D01*
X172339D02*
X173482D01*
X174625D02*
X175768D01*
X176682D02*
X177597D01*
X180569D02*
X181254D01*
X182855D02*
X184226D01*
X185141D02*
X186512D01*
X187655D02*
X188798D01*
X189713D02*
X190856D01*
X191999D02*
X193142D01*
X195199D02*
X196113D01*
X198171D02*
X199085D01*
X199771D02*
X200457D01*
X201143D02*
X202057D01*
X204114D02*
X204800D01*
X205486D02*
X206400D01*
X209144D02*
X210287D01*
X211658D02*
X212801D01*
X11176Y199720D02*
X12548D01*
X14834D02*
X16205D01*
X21463D02*
X25121D01*
X28550D02*
X31750D01*
X35179D02*
X38837D01*
X44094D02*
X45695D01*
X47981D02*
X49352D01*
X62154D02*
X71755D01*
X83871D02*
X87528D01*
X95758D02*
X99416D01*
X108560D02*
X111989D01*
X115875D02*
X119990D01*
X123647D02*
X136449D01*
X143307D02*
X146964D01*
X155880D02*
X159537D01*
X167996D02*
X171425D01*
X172339D02*
X175768D01*
X176682D02*
X180111D01*
X180569D02*
X181254D01*
X183083D02*
X184226D01*
X185369D02*
X188570D01*
X189713D02*
X193142D01*
X195199D02*
X196113D01*
X198399D02*
X199314D01*
X199771D02*
X200457D01*
X201143D02*
X202057D01*
X204114D02*
X204800D01*
X205486D02*
X208686D01*
X209372D02*
X212573D01*
X11405Y199492D02*
X12776D01*
X15062D02*
X16434D01*
X21234D02*
X24892D01*
X28550D02*
X31750D01*
X35179D02*
X38837D01*
X44094D02*
X45466D01*
X47752D02*
X49124D01*
X62611D02*
X71298D01*
X83871D02*
X87528D01*
X95758D02*
X99416D01*
X108560D02*
X111989D01*
X116103D02*
X119761D01*
X123647D02*
X135763D01*
X143307D02*
X146964D01*
X155880D02*
X159537D01*
X167996D02*
X171196D01*
X172568D02*
X175539D01*
X176682D02*
X180111D01*
X180569D02*
X181254D01*
X183083D02*
X184226D01*
X185598D02*
X188341D01*
X189941D02*
X192913D01*
X194970D02*
X195885D01*
X198399D02*
X199314D01*
X199771D02*
X200457D01*
X201143D02*
X202057D01*
X204114D02*
X205029D01*
X205486D02*
X208686D01*
X209601D02*
X212344D01*
X11405Y199263D02*
X12776D01*
X15062D02*
X16662D01*
X21234D02*
X24892D01*
X28550D02*
X31750D01*
X35179D02*
X38837D01*
X43866D02*
X45466D01*
X47752D02*
X49124D01*
X63297D02*
X70612D01*
X83871D02*
X87528D01*
X95758D02*
X99416D01*
X108560D02*
X111989D01*
X116332D02*
X119532D01*
X123647D02*
X134620D01*
X143307D02*
X146964D01*
X155880D02*
X159537D01*
X167996D02*
X170739D01*
X173025D02*
X175082D01*
X176682D02*
X180111D01*
X180569D02*
X181254D01*
X183312D02*
X184226D01*
X186055D02*
X188112D01*
X190398D02*
X192456D01*
X194970D02*
X195885D01*
X198399D02*
X199314D01*
X199771D02*
X200457D01*
X201143D02*
X202057D01*
X204114D02*
X205029D01*
X205486D02*
X208686D01*
X209829D02*
X212115D01*
X11633Y199034D02*
X13005D01*
X15291D02*
X16891D01*
X21234D02*
X24892D01*
X28550D02*
X31750D01*
X35408D02*
X38837D01*
X43637D02*
X45237D01*
X47523D02*
X48895D01*
X63983D02*
X69926D01*
X116561D02*
X119304D01*
X11633Y198806D02*
X13005D01*
X15291D02*
X16891D01*
X21234D02*
X24892D01*
X28550D02*
X31750D01*
X35408D02*
X38837D01*
X43637D02*
X45009D01*
X47523D02*
X48895D01*
X65126D02*
X69012D01*
X116789D02*
X119075D01*
X11862Y198577D02*
X13233D01*
X15519D02*
X17120D01*
X21234D02*
X24892D01*
X28550D02*
X31750D01*
X35408D02*
X38837D01*
X43409D02*
X45009D01*
X47295D02*
X48666D01*
X11862Y198349D02*
X13462D01*
X15748D02*
X17348D01*
X43180D02*
X44780D01*
X47066D02*
X48666D01*
X12090Y198120D02*
X13462D01*
X15977D02*
X17577D01*
X42951D02*
X44552D01*
X47066D02*
X48438D01*
X12090Y197891D02*
X13691D01*
X15977D02*
X17577D01*
X42723D02*
X44552D01*
X46838D02*
X48438D01*
X12319Y197663D02*
X13691D01*
X16205D02*
X17805D01*
X42723D02*
X44323D01*
X46609D02*
X48209D01*
X12548Y197434D02*
X13919D01*
X16434D02*
X18034D01*
X42494D02*
X44094D01*
X46609D02*
X47981D01*
X12548Y197206D02*
X14148D01*
X16662D02*
X18263D01*
X42266D02*
X43866D01*
X46380D02*
X47981D01*
X12776Y196977D02*
X14376D01*
X16891D02*
X18491D01*
X42037D02*
X43637D01*
X46152D02*
X47752D01*
X13005Y196748D02*
X14376D01*
X16891D02*
X18720D01*
X41808D02*
X43409D01*
X46152D02*
X47523D01*
X13005Y196520D02*
X14605D01*
X17120D02*
X18948D01*
X41580D02*
X43180D01*
X45923D02*
X47523D01*
X13233Y196291D02*
X14834D01*
X17348D02*
X19177D01*
X41351D02*
X43180D01*
X45695D02*
X47295D01*
X13462Y196063D02*
X15062D01*
X17577D02*
X19634D01*
X40894D02*
X42951D01*
X45466D02*
X47066D01*
X13462Y195834D02*
X15291D01*
X17805D02*
X19863D01*
X40665D02*
X42723D01*
X45237D02*
X46838D01*
X13691Y195605D02*
X15291D01*
X18034D02*
X20091D01*
X40437D02*
X42266D01*
X45009D02*
X46838D01*
X13919Y195377D02*
X15519D01*
X18263D02*
X20320D01*
X40208D02*
X42037D01*
X45009D02*
X46609D01*
X14148Y195148D02*
X15748D01*
X18720D02*
X20777D01*
X39751D02*
X41808D01*
X44780D02*
X46380D01*
X14376Y194920D02*
X15977D01*
X18948D02*
X21006D01*
X39522D02*
X41580D01*
X44552D02*
X46152D01*
X14605Y194691D02*
X16205D01*
X19177D02*
X21463D01*
X39065D02*
X41351D01*
X44323D02*
X45923D01*
X14605Y194462D02*
X16434D01*
X19406D02*
X21692D01*
X38837D02*
X41123D01*
X44094D02*
X45695D01*
X14834Y194234D02*
X16662D01*
X19863D02*
X22149D01*
X38379D02*
X40665D01*
X43866D02*
X45466D01*
X15062Y194005D02*
X16891D01*
X20091D02*
X22606D01*
X37922D02*
X40437D01*
X43637D02*
X45466D01*
X15291Y193777D02*
X17120D01*
X20549D02*
X23063D01*
X37465D02*
X39980D01*
X43180D02*
X45237D01*
X15519Y193548D02*
X17577D01*
X20777D02*
X23520D01*
X37008D02*
X39751D01*
X42951D02*
X45009D01*
X15748Y193319D02*
X17805D01*
X21234D02*
X23978D01*
X36551D02*
X39294D01*
X42723D02*
X44552D01*
X16205Y193091D02*
X18034D01*
X21692D02*
X24663D01*
X35865D02*
X38837D01*
X42494D02*
X44323D01*
X16434Y192862D02*
X18263D01*
X21920D02*
X25349D01*
X35179D02*
X38379D01*
X42037D02*
X44094D01*
X16662Y192634D02*
X18720D01*
X22377D02*
X26035D01*
X34493D02*
X37922D01*
X41808D02*
X43866D01*
X16891Y192405D02*
X18948D01*
X23063D02*
X26949D01*
X33579D02*
X37465D01*
X41580D02*
X43637D01*
X17120Y192176D02*
X19406D01*
X23520D02*
X28550D01*
X31979D02*
X37008D01*
X41123D02*
X43409D01*
X17577Y191948D02*
X19634D01*
X24206D02*
X36322D01*
X40894D02*
X42951D01*
X17805Y191719D02*
X20091D01*
X24892D02*
X35636D01*
X40437D02*
X42723D01*
X18034Y191491D02*
X20320D01*
X25578D02*
X34950D01*
X39980D02*
X42494D01*
X18491Y191262D02*
X20777D01*
X26492D02*
X34036D01*
X39751D02*
X42037D01*
X18720Y191033D02*
X21234D01*
X27864D02*
X32664D01*
X39294D02*
X41808D01*
X19177Y190805D02*
X21692D01*
X38837D02*
X41351D01*
X19406Y190576D02*
X22149D01*
X38379D02*
X40894D01*
X19863Y190348D02*
X22835D01*
X37694D02*
X40665D01*
X20320Y190119D02*
X23292D01*
X37236D02*
X40208D01*
X20777Y189890D02*
X23978D01*
X36551D02*
X39751D01*
X21234Y189662D02*
X24663D01*
X35865D02*
X39294D01*
X21692Y189433D02*
X25578D01*
X34950D02*
X38837D01*
X22149Y189205D02*
X26492D01*
X34036D02*
X38151D01*
X22835Y188976D02*
X28092D01*
X32436D02*
X37694D01*
X23520Y188747D02*
X37008D01*
X24206Y188519D02*
X36322D01*
X25121Y188290D02*
X35408D01*
X26035Y188062D02*
X34493D01*
X27407Y187833D02*
X33122D01*
D57*
X403860Y230569D02*
X408305D01*
X402527Y230124D02*
X406972D01*
X295847Y229680D02*
X299403D01*
X307404D02*
X311849D01*
X351409D02*
X353187D01*
X357632D02*
X359410D01*
X401193D02*
X403860D01*
X412750D02*
X417195D01*
X294069Y229235D02*
X298514D01*
X306514D02*
X311849D01*
X350075D02*
X353187D01*
X356743D02*
X359410D01*
X400748D02*
X402082D01*
X411417D02*
X417640D01*
X292735Y228790D02*
X295402D01*
X305625D02*
X307848D01*
X311404D02*
X312293D01*
X349631D02*
X352743D01*
X355854D02*
X358965D01*
X399860D02*
X401193D01*
X410527D02*
X413639D01*
X416750D02*
X418084D01*
X291402Y228346D02*
X293624D01*
X305181D02*
X306959D01*
X311404D02*
X312293D01*
X348742D02*
X352298D01*
X355410D02*
X358521D01*
X399415D02*
X400748D01*
X410083D02*
X412750D01*
X417195D02*
X418084D01*
X290513Y227901D02*
X292290D01*
X304292D02*
X306514D01*
X311404D02*
X312293D01*
X348298D02*
X351853D01*
X354520D02*
X356298D01*
X356743D02*
X358077D01*
X398970D02*
X400304D01*
X409194D02*
X411861D01*
X417195D02*
X418084D01*
X289624Y227457D02*
X291402D01*
X303848D02*
X305625D01*
X311404D02*
X311849D01*
X347853D02*
X349631D01*
X350075D02*
X351409D01*
X354076D02*
X355854D01*
X356298D02*
X357632D01*
X398970D02*
X399860D01*
X408750D02*
X411417D01*
X416750D02*
X417640D01*
X289179Y227013D02*
X290513D01*
X303403D02*
X305181D01*
X310959D02*
X311849D01*
X347408D02*
X348742D01*
X349631D02*
X350965D01*
X353632D02*
X354965D01*
X355854D02*
X357188D01*
X398526D02*
X399415D01*
X408305D02*
X410972D01*
X416750D02*
X417640D01*
X288290Y226568D02*
X290068D01*
X302959D02*
X304736D01*
X310959D02*
X311849D01*
X346520D02*
X348298D01*
X349187D02*
X350520D01*
X353187D02*
X354520D01*
X355410D02*
X357188D01*
X398526D02*
X399415D01*
X407860D02*
X410527D01*
X415862D02*
X417195D01*
X287845Y226124D02*
X289179D01*
X302514D02*
X304292D01*
X310515D02*
X311404D01*
X346075D02*
X347853D01*
X348742D02*
X350075D01*
X352743D02*
X354076D01*
X354965D02*
X356743D01*
X398526D02*
X398970D01*
X407416D02*
X409638D01*
X415417D02*
X416750D01*
X287845Y225679D02*
X288734D01*
X302069D02*
X303848D01*
X310070D02*
X310959D01*
X345630D02*
X347408D01*
X348298D02*
X350075D01*
X352298D02*
X353632D01*
X354520D02*
X356298D01*
X398526D02*
X398970D01*
X406972D02*
X409194D01*
X414528D02*
X416306D01*
X287401Y225235D02*
X288290D01*
X301625D02*
X303403D01*
X309626D02*
X310515D01*
X345186D02*
X346964D01*
X347853D02*
X349631D01*
X351853D02*
X353187D01*
X354076D02*
X355854D01*
X398526D02*
X398970D01*
X406972D02*
X409194D01*
X413639D02*
X415417D01*
X286957Y224790D02*
X288290D01*
X301180D02*
X303403D01*
X309181D02*
X310070D01*
X344742D02*
X346520D01*
X347408D02*
X349187D01*
X351409D02*
X352743D01*
X353632D02*
X355410D01*
X398526D02*
X399415D01*
X406527D02*
X408750D01*
X412750D02*
X414972D01*
X286957Y224345D02*
X287845D01*
X300736D02*
X302959D01*
X308737D02*
X309626D01*
X344297D02*
X346075D01*
X346964D02*
X348742D01*
X350965D02*
X352298D01*
X353187D02*
X354965D01*
X398526D02*
X399415D01*
X406527D02*
X408305D01*
X411417D02*
X414084D01*
X286957Y223901D02*
X287845D01*
X300736D02*
X302514D01*
X307848D02*
X309181D01*
X343853D02*
X345630D01*
X346520D02*
X348298D01*
X350520D02*
X351853D01*
X352743D02*
X354965D01*
X398526D02*
X399860D01*
X406527D02*
X407860D01*
X410527D02*
X412750D01*
X450532D02*
X452755D01*
X286957Y223456D02*
X287401D01*
X300292D02*
X302069D01*
X307404D02*
X308737D01*
X343853D02*
X345186D01*
X346075D02*
X347853D01*
X350075D02*
X351409D01*
X352298D02*
X354520D01*
X398970D02*
X400304D01*
X406082D02*
X407860D01*
X409194D02*
X411861D01*
X450088D02*
X452755D01*
X286512Y223012D02*
X287401D01*
X299847D02*
X302069D01*
X306514D02*
X307848D01*
X343408D02*
X344742D01*
X345630D02*
X347853D01*
X349631D02*
X350965D01*
X351853D02*
X354076D01*
X399415D02*
X401193D01*
X406082D02*
X410527D01*
X449644D02*
X452310D01*
X286512Y222568D02*
X287401D01*
X299403D02*
X301625D01*
X306070D02*
X306959D01*
X342963D02*
X344297D01*
X345186D02*
X347408D01*
X349187D02*
X350520D01*
X351409D02*
X353632D01*
X399860D02*
X409194D01*
X449199D02*
X451866D01*
X286512Y222123D02*
X287401D01*
X298958D02*
X301180D01*
X305181D02*
X306514D01*
X342519D02*
X343853D01*
X344742D02*
X346964D01*
X348742D02*
X350075D01*
X350965D02*
X353187D01*
X400748D02*
X407416D01*
X448755D02*
X451422D01*
X286957Y221679D02*
X287845D01*
X298514D02*
X300736D01*
X304292D02*
X305625D01*
X342075D02*
X343408D01*
X344297D02*
X346520D01*
X348298D02*
X349631D01*
X350520D02*
X352743D01*
X406527D02*
X407416D01*
X448755D02*
X450977D01*
X286957Y221234D02*
X287845D01*
X298514D02*
X300736D01*
X303403D02*
X304736D01*
X341630D02*
X342963D01*
X343853D02*
X346075D01*
X348298D02*
X349187D01*
X350075D02*
X352743D01*
X404305D02*
X410083D01*
X448310D02*
X450532D01*
X286957Y220790D02*
X288290D01*
X298069D02*
X300292D01*
X302514D02*
X303848D01*
X341185D02*
X342519D01*
X343408D02*
X346075D01*
X347853D02*
X348742D01*
X349631D02*
X352298D01*
X402527D02*
X410083D01*
X447865D02*
X450088D01*
X287401Y220345D02*
X288734D01*
X297624D02*
X299847D01*
X301180D02*
X302514D01*
X340741D02*
X342075D01*
X342963D02*
X345630D01*
X347408D02*
X348298D01*
X349187D02*
X351853D01*
X401637D02*
X405193D01*
X407860D02*
X410083D01*
X447421D02*
X450088D01*
X287845Y219900D02*
X289179D01*
X297180D02*
X301625D01*
X340297D02*
X341630D01*
X342519D02*
X345186D01*
X346964D02*
X348298D01*
X348742D02*
X351409D01*
X400748D02*
X403860D01*
X446977D02*
X449644D01*
X288290Y219456D02*
X290068D01*
X296735D02*
X299847D01*
X339852D02*
X341185D01*
X342519D02*
X344742D01*
X346520D02*
X347853D01*
X348742D02*
X350965D01*
X362966D02*
X364300D01*
X399860D02*
X402971D01*
X423862D02*
X425196D01*
X446532D02*
X449199D01*
X288734Y219011D02*
X292735D01*
X293179D02*
X298958D01*
X339408D02*
X340741D01*
X342075D02*
X344297D01*
X346075D02*
X347408D01*
X348298D02*
X350965D01*
X362522D02*
X364744D01*
X399415D02*
X402527D01*
X423418D02*
X425196D01*
X446087D02*
X448755D01*
X290068Y218567D02*
X298514D01*
X338963D02*
X340297D01*
X341630D02*
X344297D01*
X345630D02*
X346964D01*
X347853D02*
X350520D01*
X362522D02*
X364744D01*
X398526D02*
X401637D01*
X422974D02*
X424752D01*
X446087D02*
X448310D01*
X296291Y218123D02*
X298069D01*
X338963D02*
X340297D01*
X341185D02*
X343853D01*
X345186D02*
X346520D01*
X347408D02*
X350075D01*
X362966D02*
X364300D01*
X398082D02*
X401193D01*
X422529D02*
X424307D01*
X445643D02*
X447865D01*
X295847Y217678D02*
X298069D01*
X338518D02*
X339852D01*
X340741D02*
X343408D01*
X344742D02*
X346075D01*
X346964D02*
X349631D01*
X397637D02*
X400748D01*
X405638D02*
X409638D01*
X422085D02*
X423862D01*
X445199D02*
X447421D01*
X295402Y217234D02*
X297624D01*
X314960D02*
X316294D01*
X338074D02*
X339408D01*
X340297D02*
X342963D01*
X344297D02*
X345630D01*
X346520D02*
X349187D01*
X385635D02*
X386969D01*
X397637D02*
X400304D01*
X404305D02*
X410083D01*
X416306D02*
X417640D01*
X421640D02*
X423418D01*
X444754D02*
X446977D01*
X460756D02*
X462090D01*
X294958Y216789D02*
X297180D01*
X314515D02*
X315849D01*
X337630D02*
X338963D01*
X340297D02*
X342963D01*
X343853D02*
X345186D01*
X346520D02*
X349187D01*
X369633D02*
X371412D01*
X385191D02*
X386525D01*
X397192D02*
X399860D01*
X403415D02*
X405638D01*
X409194D02*
X410527D01*
X415862D02*
X417195D01*
X421195D02*
X423418D01*
X444310D02*
X446977D01*
X460312D02*
X461645D01*
X294958Y216345D02*
X296735D01*
X313626D02*
X315404D01*
X337185D02*
X338518D01*
X339852D02*
X342519D01*
X343853D02*
X344742D01*
X346075D02*
X348742D01*
X369633D02*
X371412D01*
X384302D02*
X386080D01*
X396748D02*
X399415D01*
X402527D02*
X404749D01*
X409638D02*
X410527D01*
X414972D02*
X416750D01*
X420751D02*
X422974D01*
X443865D02*
X446532D01*
X459422D02*
X461200D01*
X294513Y215900D02*
X296291D01*
X302959D02*
X306514D01*
X307404D02*
X309626D01*
X313182D02*
X314960D01*
X336740D02*
X338074D01*
X339408D02*
X342075D01*
X343408D02*
X344297D01*
X345630D02*
X348298D01*
X352743D02*
X355854D01*
X359410D02*
X361632D01*
X364300D02*
X367411D01*
X369633D02*
X372745D01*
X377190D02*
X380302D01*
X383857D02*
X385635D01*
X396748D02*
X398970D01*
X402082D02*
X403860D01*
X409638D02*
X410527D01*
X414528D02*
X416306D01*
X420307D02*
X422529D01*
X422974D02*
X425640D01*
X430530D02*
X434086D01*
X434975D02*
X437197D01*
X439865D02*
X442976D01*
X443420D02*
X446087D01*
X449199D02*
X452755D01*
X453644D02*
X455867D01*
X458978D02*
X460756D01*
X294069Y215455D02*
X295847D01*
X302069D02*
X306514D01*
X306959D02*
X309181D01*
X312293D02*
X314960D01*
X336296D02*
X337630D01*
X339408D02*
X341630D01*
X342963D02*
X343853D01*
X345186D02*
X347853D01*
X352298D02*
X355854D01*
X358965D02*
X361632D01*
X363410D02*
X367855D01*
X370078D02*
X373190D01*
X376745D02*
X380302D01*
X382968D02*
X385635D01*
X396748D02*
X398970D01*
X401637D02*
X402971D01*
X409638D02*
X410527D01*
X413639D02*
X416306D01*
X419862D02*
X425640D01*
X429641D02*
X434086D01*
X434530D02*
X436753D01*
X438975D02*
X445643D01*
X448310D02*
X452755D01*
X453200D02*
X455422D01*
X458089D02*
X460756D01*
X293624Y215011D02*
X295402D01*
X301625D02*
X304292D01*
X305625D02*
X308737D01*
X311849D02*
X314960D01*
X335852D02*
X337185D01*
X338963D02*
X341630D01*
X342519D02*
X343853D01*
X345186D02*
X347853D01*
X351409D02*
X354076D01*
X354520D02*
X355854D01*
X358521D02*
X361188D01*
X362522D02*
X365633D01*
X366967D02*
X367855D01*
X369633D02*
X373190D01*
X375857D02*
X378523D01*
X378968D02*
X380302D01*
X382524D02*
X385635D01*
X396303D02*
X398526D01*
X400748D02*
X402527D01*
X409638D02*
X410527D01*
X413195D02*
X416306D01*
X419417D02*
X423418D01*
X423862D02*
X425640D01*
X429197D02*
X431864D01*
X433197D02*
X436309D01*
X438087D02*
X441198D01*
X442532D02*
X445199D01*
X447865D02*
X450532D01*
X451866D02*
X454977D01*
X457645D02*
X460756D01*
X293179Y214566D02*
X294958D01*
X300736D02*
X303403D01*
X305625D02*
X308293D01*
X311404D02*
X312738D01*
X313626D02*
X314960D01*
X335407D02*
X336740D01*
X338518D02*
X341185D01*
X342075D02*
X343408D01*
X344742D02*
X347408D01*
X350965D02*
X353632D01*
X354076D02*
X355410D01*
X357632D02*
X360743D01*
X362077D02*
X364744D01*
X366967D02*
X367855D01*
X369189D02*
X372745D01*
X375412D02*
X378079D01*
X378523D02*
X379857D01*
X382080D02*
X383413D01*
X384302D02*
X385635D01*
X396303D02*
X398082D01*
X400304D02*
X402082D01*
X409194D02*
X410083D01*
X412750D02*
X414084D01*
X414972D02*
X416306D01*
X418529D02*
X422529D01*
X423418D02*
X425640D01*
X428307D02*
X430975D01*
X433197D02*
X435864D01*
X437642D02*
X440309D01*
X442532D02*
X444754D01*
X446977D02*
X449644D01*
X451866D02*
X454533D01*
X457200D02*
X458534D01*
X459422D02*
X460756D01*
X292735Y214122D02*
X294513D01*
X300292D02*
X302959D01*
X305625D02*
X307848D01*
X310515D02*
X312293D01*
X313182D02*
X314960D01*
X334963D02*
X336296D01*
X338518D02*
X340741D01*
X341630D02*
X342963D01*
X344297D02*
X346964D01*
X350520D02*
X354965D01*
X357188D02*
X360299D01*
X361632D02*
X364300D01*
X366967D02*
X367855D01*
X368745D02*
X372745D01*
X374967D02*
X379412D01*
X381190D02*
X382968D01*
X383857D02*
X385635D01*
X396303D02*
X398082D01*
X399860D02*
X401193D01*
X409194D02*
X410083D01*
X411861D02*
X413639D01*
X414528D02*
X416306D01*
X418084D02*
X422085D01*
X422974D02*
X425196D01*
X427863D02*
X430530D01*
X433197D02*
X435420D01*
X437197D02*
X439865D01*
X442532D02*
X444310D01*
X446532D02*
X449199D01*
X451866D02*
X454089D01*
X456311D02*
X458089D01*
X458978D02*
X460756D01*
X292290Y213678D02*
X294069D01*
X299847D02*
X302514D01*
X305181D02*
X307404D01*
X310070D02*
X311404D01*
X313182D02*
X314960D01*
X326073D02*
X327850D01*
X334518D02*
X335852D01*
X338074D02*
X340741D01*
X341185D02*
X342519D01*
X344297D02*
X346520D01*
X350075D02*
X354076D01*
X356743D02*
X359855D01*
X361188D02*
X363855D01*
X366522D02*
X367411D01*
X368300D02*
X372300D01*
X374523D02*
X378523D01*
X380746D02*
X382080D01*
X383857D02*
X385635D01*
X396303D02*
X398082D01*
X399415D02*
X400748D01*
X408750D02*
X409638D01*
X411417D02*
X412750D01*
X414528D02*
X416306D01*
X417640D02*
X421195D01*
X422974D02*
X425196D01*
X427419D02*
X430085D01*
X432752D02*
X434975D01*
X436753D02*
X439420D01*
X442087D02*
X444310D01*
X446087D02*
X448755D01*
X451422D02*
X453644D01*
X455867D02*
X457200D01*
X458978D02*
X460756D01*
X291402Y213233D02*
X293179D01*
X299847D02*
X302069D01*
X304736D02*
X306959D01*
X308737D02*
X310959D01*
X312738D02*
X314960D01*
X315849D02*
X316738D01*
X325628D02*
X328295D01*
X333629D02*
X335407D01*
X338074D02*
X340297D01*
X340741D02*
X342075D01*
X343853D02*
X346520D01*
X349631D02*
X353187D01*
X355854D02*
X359410D01*
X361188D02*
X362966D01*
X366077D02*
X371856D01*
X374078D02*
X377635D01*
X380302D02*
X381635D01*
X383413D02*
X385635D01*
X386525D02*
X387413D01*
X396303D02*
X397637D01*
X399415D02*
X400304D01*
X408305D02*
X409638D01*
X410972D02*
X412305D01*
X414084D02*
X416306D01*
X417195D02*
X420751D01*
X422529D02*
X424752D01*
X426974D02*
X429641D01*
X432308D02*
X434530D01*
X436309D02*
X438531D01*
X441642D02*
X443865D01*
X446087D02*
X448310D01*
X450977D02*
X453200D01*
X454977D02*
X456755D01*
X458534D02*
X460756D01*
X461645D02*
X462534D01*
X290957Y212789D02*
X292735D01*
X299403D02*
X301625D01*
X304292D02*
X306514D01*
X308293D02*
X310070D01*
X312738D02*
X316294D01*
X325628D02*
X328295D01*
X333185D02*
X334963D01*
X337630D02*
X339852D01*
X340297D02*
X341630D01*
X343853D02*
X346075D01*
X349187D02*
X352298D01*
X354965D02*
X358965D01*
X360299D02*
X362522D01*
X365633D02*
X368745D01*
X369189D02*
X371412D01*
X373190D02*
X376745D01*
X379412D02*
X381190D01*
X383413D02*
X386969D01*
X396303D02*
X397637D01*
X398970D02*
X399860D01*
X407416D02*
X409194D01*
X410972D02*
X411417D01*
X414084D02*
X420307D01*
X422085D02*
X424752D01*
X426530D02*
X429197D01*
X431864D02*
X434086D01*
X435864D02*
X438087D01*
X441198D02*
X443420D01*
X445199D02*
X447865D01*
X450532D02*
X452755D01*
X454533D02*
X455867D01*
X458534D02*
X462090D01*
X280734Y212344D02*
X286512D01*
X290068D02*
X291846D01*
X298514D02*
X301180D01*
X303848D02*
X306514D01*
X307848D02*
X309181D01*
X312293D02*
X315849D01*
X325628D02*
X327850D01*
X332740D02*
X334073D01*
X337630D02*
X341185D01*
X343853D02*
X345630D01*
X348298D02*
X351409D01*
X354520D02*
X355854D01*
X356743D02*
X358965D01*
X359410D02*
X362522D01*
X364744D02*
X366967D01*
X368745D02*
X370967D01*
X372745D02*
X375857D01*
X378968D02*
X380302D01*
X382968D02*
X386525D01*
X396748D02*
X398082D01*
X406527D02*
X408305D01*
X413639D02*
X417195D01*
X417640D02*
X419862D01*
X422085D02*
X424307D01*
X425640D02*
X428752D01*
X431419D02*
X434086D01*
X435420D02*
X438087D01*
X440309D02*
X442976D01*
X444754D02*
X447421D01*
X450088D02*
X452755D01*
X454089D02*
X455422D01*
X458089D02*
X461645D01*
X280289Y211900D02*
X282512D01*
X282956D02*
X288290D01*
X289179D02*
X290957D01*
X297624D02*
X300736D01*
X302959D02*
X306070D01*
X306959D02*
X308737D01*
X309181D02*
X310959D01*
X311849D02*
X314515D01*
X325628D02*
X326962D01*
X331851D02*
X333629D01*
X337185D02*
X340741D01*
X343853D02*
X345630D01*
X347853D02*
X350965D01*
X353632D02*
X355410D01*
X356298D02*
X358521D01*
X358965D02*
X360299D01*
X360743D02*
X362077D01*
X364300D02*
X366077D01*
X368745D02*
X370522D01*
X371856D02*
X373634D01*
X374078D02*
X375412D01*
X378079D02*
X381635D01*
X382524D02*
X385191D01*
X396748D02*
X398082D01*
X405638D02*
X407860D01*
X410527D02*
X412305D01*
X413195D02*
X415862D01*
X417195D02*
X419417D01*
X421640D02*
X423862D01*
X425196D02*
X428307D01*
X430530D02*
X433642D01*
X434530D02*
X437642D01*
X439865D02*
X442532D01*
X443865D02*
X446977D01*
X449199D02*
X452310D01*
X453200D02*
X456755D01*
X457645D02*
X460312D01*
X280289Y211455D02*
X281178D01*
X286957D02*
X290068D01*
X296291D02*
X298514D01*
X299403D02*
X300736D01*
X302069D02*
X305625D01*
X306514D02*
X307848D01*
X309181D02*
X310959D01*
X311404D02*
X313626D01*
X326073D02*
X327406D01*
X330962D02*
X333185D01*
X337185D02*
X339852D01*
X343853D02*
X345186D01*
X346964D02*
X348742D01*
X349631D02*
X350965D01*
X352743D02*
X354520D01*
X355854D02*
X359855D01*
X360743D02*
X361632D01*
X363410D02*
X365633D01*
X368300D02*
X370078D01*
X371412D02*
X372745D01*
X374078D02*
X375412D01*
X377190D02*
X378968D01*
X379857D02*
X381635D01*
X382080D02*
X384302D01*
X397192D02*
X398970D01*
X404305D02*
X406972D01*
X410527D02*
X412305D01*
X412750D02*
X414972D01*
X416750D02*
X418973D01*
X421640D02*
X423418D01*
X424307D02*
X426085D01*
X426974D02*
X428307D01*
X429641D02*
X433197D01*
X434086D02*
X435420D01*
X436309D02*
X437197D01*
X438975D02*
X442087D01*
X442976D02*
X444754D01*
X445643D02*
X446977D01*
X448310D02*
X451866D01*
X452755D02*
X454089D01*
X454977D02*
X456755D01*
X457200D02*
X459422D01*
X280289Y211010D02*
X297624D01*
X299403D02*
X303403D01*
X303848D02*
X307404D01*
X309181D02*
X313182D01*
X326517D02*
X332295D01*
X337185D02*
X339408D01*
X343853D02*
X347853D01*
X349631D02*
X354076D01*
X355410D02*
X358965D01*
X360743D02*
X364744D01*
X368300D02*
X371856D01*
X374078D02*
X378523D01*
X379857D02*
X383857D01*
X397637D02*
X406082D01*
X410527D02*
X414528D01*
X416306D02*
X418529D01*
X421640D02*
X425196D01*
X426974D02*
X430975D01*
X431419D02*
X434975D01*
X436309D02*
X440309D01*
X440754D02*
X443865D01*
X445643D02*
X449644D01*
X450088D02*
X453644D01*
X454977D02*
X458978D01*
X280734Y210566D02*
X286957D01*
X289624D02*
X296291D01*
X299847D02*
X302514D01*
X303848D02*
X306514D01*
X309181D02*
X312293D01*
X326962D02*
X331407D01*
X337185D02*
X338963D01*
X344297D02*
X346964D01*
X350075D02*
X353187D01*
X354965D02*
X358077D01*
X361188D02*
X363855D01*
X368745D02*
X370967D01*
X374523D02*
X377635D01*
X379857D02*
X382968D01*
X398526D02*
X404749D01*
X410527D02*
X413639D01*
X415862D02*
X418529D01*
X421640D02*
X424307D01*
X427419D02*
X430085D01*
X431419D02*
X434086D01*
X436309D02*
X439420D01*
X440754D02*
X442976D01*
X446087D02*
X448755D01*
X450088D02*
X452755D01*
X454977D02*
X458089D01*
X354520Y210121D02*
X357188D01*
X415862D02*
X418084D01*
X354076Y209677D02*
X356298D01*
X415417D02*
X417640D01*
X353632Y209233D02*
X355854D01*
X414972D02*
X417195D01*
X352298Y208788D02*
X355410D01*
X414528D02*
X416750D01*
X351409Y208344D02*
X354965D01*
X414084D02*
X416306D01*
X350075Y207899D02*
X351853D01*
X352743D02*
X354520D01*
X413639D02*
X416306D01*
X349631Y207454D02*
X350965D01*
X352298D02*
X354076D01*
X413639D02*
X415862D01*
X348742Y207010D02*
X350075D01*
X351853D02*
X353632D01*
X413195D02*
X415417D01*
X348298Y206565D02*
X349631D01*
X351409D02*
X353187D01*
X412750D02*
X414972D01*
X347853Y206121D02*
X348742D01*
X350965D02*
X352743D01*
X412305D02*
X414528D01*
X347408Y205676D02*
X348298D01*
X350520D02*
X352298D01*
X411861D02*
X414084D01*
X347408Y205232D02*
X348298D01*
X350075D02*
X351853D01*
X411417D02*
X414084D01*
X346964Y204788D02*
X347853D01*
X349631D02*
X351409D01*
X411417D02*
X413639D01*
X346964Y204343D02*
X350520D01*
X410972D02*
X413195D01*
X347408Y203899D02*
X350075D01*
X410527D02*
X412750D01*
X410083Y203454D02*
X412305D01*
X409638Y203009D02*
X411861D01*
D58*
X752458Y406000D02*
G03*
X752458Y406000I-1250J0D01*
G01*
X661970Y451340D02*
G03*
X661970Y451340I-1000J0D01*
G01*
D59*
X744958Y385000D02*
G03*
X744958Y385000I-3000J0D01*
G01*
X205844Y354950D02*
G03*
X205844Y354950I-3000J0D01*
G01*
D60*
X235700Y160280D02*
G03*
X235700Y160280I-2500J0D01*
G01*
X462830Y554560D02*
G03*
X462830Y554560I-250J0D01*
G01*
Y510110D02*
G03*
X462830Y510110I-250J0D01*
G01*
X102350Y160280D02*
G03*
X102350Y160280I-2500J0D01*
G01*
D61*
X435514Y127950D02*
G03*
X435514Y127950I-1414J0D01*
G01*
D62*
X561959Y395000D02*
X751958D01*
X561959Y205000D02*
X751958D01*
Y395000D01*
X561959Y205000D02*
Y395000D01*
D63*
X16146Y17778D02*
X11430D01*
Y10160D01*
X16146D01*
X11430Y14151D02*
X14332D01*
X17416Y17778D02*
Y10160D01*
X21769D01*
X34031Y15964D02*
X33668Y16690D01*
X32943Y17416D01*
X32217Y17778D01*
X30766D01*
X30041Y17416D01*
X29315Y16690D01*
X28952Y15964D01*
X28589Y14876D01*
Y13062D01*
X28952Y11974D01*
X29315Y11248D01*
X30041Y10523D01*
X30766Y10160D01*
X32217D01*
X32943Y10523D01*
X33668Y11248D01*
X34031Y11974D01*
Y13062D01*
X32217D02*
X34031D01*
X35773Y17778D02*
Y10160D01*
Y17778D02*
X39037D01*
X40126Y17416D01*
X40489Y17053D01*
X40851Y16327D01*
Y15602D01*
X40489Y14876D01*
X40126Y14513D01*
X39037Y14151D01*
X35773D01*
X38312D02*
X40851Y10160D01*
X48361D02*
X45459Y17778D01*
X42557Y10160D01*
X43645Y12700D02*
X47273D01*
X50139Y17778D02*
Y10160D01*
Y17778D02*
X55217Y10160D01*
Y17778D02*
Y10160D01*
X68749Y15964D02*
X68386Y16690D01*
X67661Y17416D01*
X66935Y17778D01*
X65484D01*
X64759Y17416D01*
X64033Y16690D01*
X63670Y15964D01*
X63307Y14876D01*
Y13062D01*
X63670Y11974D01*
X64033Y11248D01*
X64759Y10523D01*
X65484Y10160D01*
X66935D01*
X67661Y10523D01*
X68386Y11248D01*
X68749Y11974D01*
Y13062D01*
X66935D02*
X68749D01*
X70490Y17778D02*
Y10160D01*
Y17778D02*
X73756D01*
X74844Y17416D01*
X75207Y17053D01*
X75569Y16327D01*
Y15602D01*
X75207Y14876D01*
X74844Y14513D01*
X73756Y14151D01*
X70490D01*
X73030D02*
X75569Y10160D01*
X77274Y17778D02*
Y12337D01*
X77637Y11248D01*
X78363Y10523D01*
X79451Y10160D01*
X80177D01*
X81265Y10523D01*
X81991Y11248D01*
X82353Y12337D01*
Y17778D01*
X84458Y13788D02*
X87723D01*
X88811Y14151D01*
X89174Y14513D01*
X89537Y15239D01*
Y16327D01*
X89174Y17053D01*
X88811Y17416D01*
X87723Y17778D01*
X84458D01*
Y10160D01*
X93418Y17778D02*
X92693Y17416D01*
X91967Y16690D01*
X91604Y15964D01*
X91242Y14876D01*
Y13062D01*
X91604Y11974D01*
X91967Y11248D01*
X92693Y10523D01*
X93418Y10160D01*
X94869D01*
X95595Y10523D01*
X96320Y11248D01*
X96683Y11974D01*
X97046Y13062D01*
Y14876D01*
X96683Y15964D01*
X96320Y16690D01*
X95595Y17416D01*
X94869Y17778D01*
X93418D01*
X109163D02*
X105535D01*
X105172Y14513D01*
X105535Y14876D01*
X106623Y15239D01*
X107712D01*
X108800Y14876D01*
X109526Y14151D01*
X109888Y13062D01*
Y12337D01*
X109526Y11248D01*
X108800Y10523D01*
X107712Y10160D01*
X106623D01*
X105535Y10523D01*
X105172Y10886D01*
X104810Y11611D01*
M02*
