M48
;Layer_Color=9474304
;FILE_FORMAT=4:4
METRIC,LZ
;TYPE=PLATED
T1F00S00C0.4000
T2F00S00C0.8000
T3F00S00C0.8890
T4F00S00C0.9100
T5F00S00C1.5000
T6F00S00C1.6000
;TYPE=NON_PLATED
%
T01
X0009017Y0001905
X0013208Y0001143
X0007874Y000889
X000889Y001397
X0017145Y0013335
X001899Y0012513
X0020574Y0012319
X0021844Y0008763
X0023495Y0009398
X0017145Y000889
X0016256Y0001905
X0021844
X003683Y0013335
X0043434Y0014224
X0044196Y0012065
X0042235Y0010739
X004699Y0009271
X0046863Y0007493
X0050612Y0007615
X0051562Y0009525
Y0012192
X0050673Y0013589
X0053848Y0012954
Y000762
Y0001143
X0057404Y0010795
X0070485Y0013335
X0074295Y0010795
X0085344
X0084709Y000889
X0085344Y000508
X0084709Y0013335
X0069977Y0003175
X0098806Y0002794
Y000889
Y0012319
Y0043307
Y004953
Y0052832
X0083947Y0045466
X0083185Y0038735
X0083947Y0036449
X0083312Y0033655
X0083439Y0031369
X008382Y00291193
Y0026924
Y0024511
X0082017Y0024282
Y002225
X007874Y002286
X0077978Y0023876
X0077851Y0025273
X0077724Y002667
X0077851Y0028194
X0077978Y002921
X007366Y0029718
X0074041Y0031623
X0074168Y0033782
X0074041Y0035179
X0072009Y0036957
X0070993Y0037846
X0070104Y0038354
X0069596Y0037592
X0068961Y0036957
X0066929Y0037846
X0065913Y0037719
X0065532Y0038735
X0067564Y0038608
X0062992
X0062103Y0037973
X0060833
X0059944Y0038354
X005842Y00381
X0057531Y0038735
X005715Y0036195
X0057658Y0035052
X0058801Y0034925
X0059944Y0036449
X0061429Y003725
X0063754Y0037719
X00624459Y0042418
X0059055Y0043307
X0057531Y0043942
X005842Y0046228
X0059944Y0045085
X0055245Y0042545
X0057404Y0033147
X0056896Y003048
X005715Y0027305
X0057159Y00236477
X0058293Y0024384
X0058928Y002286
X005842Y0021844
X0056769Y0021717
X00574459Y00181192
X0056134Y0017272
X005842Y001524
X0061468Y0022225
X00649458Y00215119
X00704458Y00215508
Y00178192
X0072136Y0016002
X0077978Y0014605
X008382Y0016002
X0084709Y0018415
X0074295Y0021209
X0072009Y0027051
X00704458Y00282332
Y00322188
X0073025Y0038354
X0077724Y0037846
X0074549Y0046609
X0072009
X0073025Y004826
X0073279Y0049149
X0070993Y0049022
X0075946Y004826
X00649157Y002875
X0061429Y0027305
X0059563Y002875
X005969Y0025273
X005334Y0026162
X0053467Y002413
X005334Y0022225
X0052705Y0021209
X005334Y0018034
X0050292Y0022733
X0050038Y0026543
X0050292Y0028194
X0052832Y002921
X0053721Y0032258
X0053086Y0035052
X0050165Y003429
X0047117
X004699Y003302
X0046228Y0032258
X004572Y0030861
X0046863Y0029083
X0046228Y0027051
X0045339Y002667
X0044704Y0028194
X0047498Y0026289
X004699Y00252095
X0046355Y002413
X0045466Y0022098
X0044069Y0020193
X0045466Y0017272
X0044196Y001524
X0042235Y0016073
X004064Y0017145
X0036195Y0022098
X0036957Y0024257
Y0025908
X003556Y0028194
Y0029083
Y0030988
X0034036Y0029845
X0033147Y0030226
X0029591Y0029464
X0029337Y0028575
X0028575Y0029718
X002794Y0030607
X0029718Y003175
Y003302
X0032639Y003429
X0033147Y0036195
X0032258Y0036957
X0031242Y0037719
X0035052Y0036957
X0036195Y0036195
X0044069Y0033655
X0046355Y003556
X0047117Y0036195
Y0041529
X004445Y0040767
X0050165Y0042545
X0049784Y0043942
X005334Y0042545
Y0038862
X0043307Y0048006
X0042037Y0047752
X003937
Y0045593
X004064Y0046355
X0036957Y0047371
X003048Y0044958
X0030607Y0042164
X002794Y0039624
X002667Y0037973
X0025908Y004064
X0025015Y0040382
X0021971Y0040513
X00235844Y00370463
X00230844Y00332444
X0022225Y0033909
X002159Y0032131
X0025908Y0033655
X0025015Y0029595
X0025654Y0025781
X00290844Y00253986
X0030226Y0024257
X0029083Y0021336
Y0018669
X0025654Y002032
X0024003Y0020447
X0022225Y0019685
X0023114Y0018796
X0023495Y0017145
X0020955Y0017399
X0019685
X0018983Y0018034
X0016256Y0021336
X0017145Y002286
X0018983Y0024317
X0016256Y00254
X0015494Y002921
X0018387Y0029436
X0018415Y0036576
X0016256Y0047879
Y0050292
X002794Y0051435
X004064Y0053213
X0043307Y0051308
X0033401Y0023241
X0032766Y0020955
X0020955Y0022225
X0012446Y00254
Y0029464
X0014224Y0031242
X000889Y0019685
X0008382Y0050165
X0013716Y004859
X00127Y0057785
X0043307Y0056515
X008128Y0058039
X0083185Y0055118
X0098679Y0058928
T02
X0040132Y0007874
X006604Y0001524
X0009779Y0024257
T03
X0054229Y0051435
X0056769
X0059309
X0061849
X0064389
X0066929
X0069469
X0072009
X0074549
X0077089
X0079629
X0051689
Y0053975
X0054229
X0056769
X0059309
X0061849
X0064389
X0066929
X0069469
X0072009
X0074549
X0077089
X0079629
T04
X003937Y0024765
Y0027305
X004191
Y0024765
Y0032385
X003937
T05
X0030988Y0005715
X0060325Y00054917
X00797493Y0005461
T06
X0028413Y000314
Y000829
X0033563
Y000314
X005775Y00029167
X00629
Y00080667
X005775
X00771743Y0008036
X00823243
Y0002886
X00771743
M30
